<svg width="121" height="112" viewBox="0 0 121 112" fill="none" xmlns="http://www.w3.org/2000/svg">
<path d="M1.83672 2.94737C1.47345 2.94737 1.11834 2.8609 0.816287 2.69897C0.514238 2.53704 0.278844 2.30692 0.139826 2.03764C0.000808811 1.76836 -0.0355821 1.47201 0.0352885 1.18615C0.106159 0.90028 0.281115 0.637745 0.537986 0.431647C0.794857 0.22555 1.12207 0.0851756 1.47836 0.0283134C1.83465 -0.0285489 2.204 0.000648941 2.53962 0.112188C2.87524 0.223728 3.16205 0.412594 3.36387 0.654939C3.5657 0.897284 3.67347 1.18221 3.67347 1.47367C3.67347 1.86452 3.47991 2.23933 3.13546 2.5157C2.79101 2.79207 2.32385 2.94737 1.83672 2.94737V2.94737Z" fill="black"/>
<path d="M1.83672 21.6828C1.47345 21.6828 1.11834 21.5963 0.816287 21.4344C0.514238 21.2724 0.278844 21.0423 0.139826 20.773C0.000808811 20.5038 -0.0355821 20.2074 0.0352885 19.9216C0.106159 19.6357 0.281115 19.3732 0.537986 19.1671C0.794857 18.961 1.12207 18.8206 1.47836 18.7637C1.83465 18.7069 2.204 18.7361 2.53962 18.8476C2.87524 18.9591 3.16205 19.148 3.36387 19.3904C3.5657 19.6327 3.67347 19.9176 3.67347 20.2091C3.67347 20.4026 3.62592 20.5943 3.53362 20.773C3.44131 20.9518 3.30602 21.1143 3.13546 21.2511C2.9649 21.388 2.76246 21.4965 2.53962 21.5706C2.31678 21.6446 2.07793 21.6828 1.83672 21.6828V21.6828Z" fill="black"/>
<path d="M1.83672 40.4575C1.47345 40.4575 1.11834 40.3711 0.816287 40.2092C0.514238 40.0472 0.278844 39.817 0.139826 39.5478C0.000808811 39.2785 -0.0355821 38.9822 0.0352885 38.6964C0.106159 38.4105 0.281115 38.1479 0.537986 37.9418C0.794857 37.7357 1.12207 37.5953 1.47836 37.5384C1.83465 37.4816 2.204 37.5108 2.53962 37.6223C2.87524 37.7339 3.16205 37.9227 3.36387 38.1651C3.5657 38.4074 3.67347 38.6923 3.67347 38.9838C3.67347 39.3747 3.47991 39.7495 3.13546 40.0258C2.79101 40.3022 2.32385 40.4575 1.83672 40.4575V40.4575Z" fill="black"/>
<path d="M1.83672 59.1241C1.47345 59.1241 1.11834 59.0377 0.816287 58.8758C0.514238 58.7139 0.278844 58.4837 0.139826 58.2144C0.000808811 57.9451 -0.0355821 57.6488 0.0352885 57.363C0.106159 57.0771 0.281115 56.8145 0.537986 56.6084C0.794857 56.4023 1.12207 56.2619 1.47836 56.2051C1.83465 56.1482 2.204 56.1774 2.53962 56.2889C2.87524 56.4005 3.16205 56.5894 3.36387 56.8317C3.5657 57.074 3.67347 57.359 3.67347 57.6504C3.67347 58.0413 3.47991 58.4161 3.13546 58.6925C2.79101 58.9688 2.32385 59.1241 1.83672 59.1241V59.1241Z" fill="black"/>
<path d="M1.83672 77.8695C1.47345 77.8695 1.11834 77.783 0.816287 77.6211C0.514238 77.4592 0.278844 77.229 0.139826 76.9598C0.000808811 76.6905 -0.0355821 76.3941 0.0352885 76.1083C0.106159 75.8224 0.281115 75.5599 0.537986 75.3538C0.794857 75.1477 1.12207 75.0073 1.47836 74.9504C1.83465 74.8936 2.204 74.9228 2.53962 75.0343C2.87524 75.1458 3.16205 75.3347 3.36387 75.5771C3.5657 75.8194 3.67347 76.1043 3.67347 76.3958C3.67347 76.7866 3.47991 77.1614 3.13546 77.4378C2.79101 77.7142 2.32385 77.8695 1.83672 77.8695V77.8695Z" fill="black"/>
<path d="M1.83672 96.595C1.47345 96.595 1.11834 96.5085 0.816287 96.3466C0.514238 96.1847 0.278844 95.9546 0.139826 95.6853C0.000808811 95.416 -0.0355821 95.1197 0.0352885 94.8338C0.106159 94.5479 0.281115 94.2854 0.537986 94.0793C0.794857 93.8732 1.12207 93.7328 1.47836 93.676C1.83465 93.6191 2.204 93.6483 2.53962 93.7598C2.87524 93.8714 3.16205 94.0602 3.36387 94.3026C3.5657 94.5449 3.67347 94.8299 3.67347 95.1213C3.67347 95.5122 3.47991 95.887 3.13546 96.1633C2.79101 96.4397 2.32385 96.595 1.83672 96.595V96.595Z" fill="black"/>
<path d="M25.2522 2.94728C24.8883 2.94972 24.5317 2.86532 24.2277 2.70488C23.9236 2.54444 23.6858 2.31516 23.5444 2.0461C23.403 1.77705 23.3645 1.48039 23.4336 1.19372C23.5027 0.907052 23.6765 0.64333 23.9327 0.436004C24.189 0.228677 24.5162 0.0870892 24.8729 0.029225C25.2296 -0.0286393 25.5997 -0.000168007 25.9362 0.111C26.2727 0.222169 26.5605 0.410995 26.763 0.653597C26.9655 0.8962 27.0736 1.18162 27.0736 1.4736C27.0736 1.86232 26.8822 2.23533 26.541 2.51135C26.1999 2.78736 25.7367 2.94404 25.2522 2.94728Z" fill="black"/>
<path d="M25.2522 21.6828C24.8883 21.6853 24.5317 21.6009 24.2277 21.4404C23.9236 21.28 23.6858 21.0507 23.5444 20.7816C23.403 20.5126 23.3645 20.2159 23.4336 19.9293C23.5027 19.6426 23.6765 19.3789 23.9327 19.1715C24.189 18.9642 24.5162 18.8226 24.8729 18.7648C25.2296 18.7069 25.5997 18.7354 25.9362 18.8465C26.2727 18.9577 26.5605 19.1465 26.763 19.3891C26.9655 19.6317 27.0736 19.9172 27.0736 20.2091C27.0736 20.5979 26.8822 20.9709 26.541 21.2469C26.1999 21.5229 25.7367 21.6796 25.2522 21.6828V21.6828Z" fill="black"/>
<path d="M25.2522 40.4574C24.8883 40.4598 24.5317 40.3755 24.2277 40.215C23.9236 40.0546 23.6858 39.8253 23.5444 39.5562C23.403 39.2872 23.3645 38.9905 23.4336 38.7039C23.5027 38.4172 23.6765 38.1535 23.9327 37.9461C24.189 37.7388 24.5162 37.5972 24.8729 37.5394C25.2296 37.4815 25.5997 37.51 25.9362 37.6211C26.2727 37.7323 26.5605 37.9211 26.763 38.1637C26.9655 38.4063 27.0736 38.6917 27.0736 38.9837C27.0736 39.3725 26.8822 39.7455 26.541 40.0215C26.1999 40.2975 25.7367 40.4542 25.2522 40.4574V40.4574Z" fill="black"/>
<path d="M25.2522 59.124C24.8883 59.1264 24.5317 59.042 24.2277 58.8816C23.9236 58.7212 23.6858 58.4919 23.5444 58.2228C23.403 57.9538 23.3645 57.6571 23.4336 57.3705C23.5027 57.0838 23.6765 56.8201 23.9327 56.6128C24.189 56.4054 24.5162 56.2638 24.8729 56.206C25.2296 56.1481 25.5997 56.1766 25.9362 56.2878C26.2727 56.3989 26.5604 56.5877 26.7629 56.8303C26.9654 57.0729 27.0735 57.3584 27.0736 57.6503C27.0756 57.8433 27.0299 58.0347 26.9393 58.2134C26.8487 58.3921 26.7149 58.5547 26.5456 58.6917C26.3762 58.8287 26.1747 58.9374 25.9527 59.0116C25.7307 59.0858 25.4927 59.124 25.2522 59.124Z" fill="black"/>
<path d="M25.2522 77.8694C24.8883 77.8718 24.5317 77.7874 24.2277 77.627C23.9236 77.4666 23.6858 77.2373 23.5444 76.9682C23.403 76.6992 23.3645 76.4025 23.4336 76.1158C23.5027 75.8292 23.6765 75.5654 23.9327 75.3581C24.189 75.1508 24.5162 75.0092 24.8729 74.9513C25.2296 74.8935 25.5997 74.922 25.9362 75.0331C26.2727 75.1443 26.5605 75.3331 26.763 75.5757C26.9655 75.8183 27.0736 76.1037 27.0736 76.3957C27.0736 76.7844 26.8822 77.1575 26.541 77.4335C26.1999 77.7095 25.7367 77.8662 25.2522 77.8694V77.8694Z" fill="black"/>
<path d="M25.2522 96.5951C24.8883 96.5975 24.5317 96.5131 24.2277 96.3527C23.9236 96.1922 23.6858 95.9629 23.5444 95.6939C23.403 95.4248 23.3645 95.1282 23.4336 94.8415C23.5027 94.5548 23.6765 94.2911 23.9327 94.0838C24.189 93.8764 24.5162 93.7349 24.8729 93.677C25.2296 93.6191 25.5997 93.6476 25.9362 93.7588C26.2727 93.8699 26.5605 94.0588 26.763 94.3014C26.9655 94.544 27.0736 94.8294 27.0736 95.1214C27.0736 95.5101 26.8822 95.8831 26.541 96.1591C26.1999 96.4351 25.7367 96.5918 25.2522 96.5951V96.5951Z" fill="black"/>
<path d="M48.5145 2.94737C48.1512 2.94737 47.7961 2.8609 47.494 2.69897C47.192 2.53704 46.9566 2.30692 46.8176 2.03764C46.6785 1.76836 46.6422 1.47201 46.713 1.18615C46.7839 0.90028 46.9588 0.637745 47.2157 0.431647C47.4726 0.22555 47.7998 0.0851756 48.1561 0.0283134C48.5124 -0.0285489 48.8817 0.000648941 49.2174 0.112188C49.553 0.223728 49.8398 0.412594 50.0416 0.654939C50.2434 0.897284 50.3512 1.18221 50.3512 1.47367C50.3512 1.86452 50.1577 2.23933 49.8132 2.5157C49.4687 2.79207 49.0016 2.94737 48.5145 2.94737V2.94737Z" fill="black"/>
<path d="M48.5145 21.6828C48.1512 21.6828 47.7961 21.5963 47.494 21.4344C47.192 21.2724 46.9566 21.0423 46.8176 20.773C46.6785 20.5038 46.6422 20.2074 46.713 19.9216C46.7839 19.6357 46.9588 19.3732 47.2157 19.1671C47.4726 18.961 47.7998 18.8206 48.1561 18.7637C48.5124 18.7069 48.8817 18.7361 49.2174 18.8476C49.553 18.9591 49.8398 19.148 50.0416 19.3904C50.2434 19.6327 50.3512 19.9176 50.3512 20.2091C50.3512 20.4026 50.3037 20.5943 50.2114 20.773C50.1191 20.9518 49.9838 21.1143 49.8132 21.2511C49.6426 21.388 49.4402 21.4965 49.2174 21.5706C48.9945 21.6446 48.7557 21.6828 48.5145 21.6828V21.6828Z" fill="black"/>
<path d="M48.5145 40.4575C48.1512 40.4575 47.7961 40.3711 47.494 40.2092C47.192 40.0472 46.9566 39.817 46.8176 39.5478C46.6785 39.2785 46.6422 38.9822 46.713 38.6964C46.7839 38.4105 46.9588 38.1479 47.2157 37.9418C47.4726 37.7357 47.7998 37.5953 48.1561 37.5384C48.5124 37.4816 48.8817 37.5108 49.2174 37.6223C49.553 37.7339 49.8398 37.9227 50.0416 38.1651C50.2434 38.4074 50.3512 38.6923 50.3512 38.9838C50.3512 39.3747 50.1577 39.7495 49.8132 40.0258C49.4687 40.3022 49.0016 40.4575 48.5145 40.4575V40.4575Z" fill="black"/>
<path d="M48.5145 59.1241C48.1512 59.1241 47.7961 59.0377 47.494 58.8758C47.192 58.7139 46.9566 58.4837 46.8176 58.2144C46.6785 57.9451 46.6422 57.6488 46.713 57.363C46.7839 57.0771 46.9588 56.8145 47.2157 56.6084C47.4726 56.4023 47.7998 56.2619 48.1561 56.2051C48.5124 56.1482 48.8817 56.1774 49.2174 56.2889C49.553 56.4005 49.8398 56.5894 50.0416 56.8317C50.2434 57.074 50.3512 57.359 50.3512 57.6504C50.3512 58.0413 50.1577 58.4161 49.8132 58.6925C49.4687 58.9688 49.0016 59.1241 48.5145 59.1241V59.1241Z" fill="black"/>
<path d="M48.5145 77.8695C48.1512 77.8695 47.7961 77.783 47.494 77.6211C47.192 77.4592 46.9566 77.229 46.8176 76.9598C46.6785 76.6905 46.6422 76.3941 46.713 76.1083C46.7839 75.8224 46.9588 75.5599 47.2157 75.3538C47.4726 75.1477 47.7998 75.0073 48.1561 74.9504C48.5124 74.8936 48.8817 74.9228 49.2174 75.0343C49.553 75.1458 49.8398 75.3347 50.0416 75.5771C50.2434 75.8194 50.3512 76.1043 50.3512 76.3958C50.3512 76.7866 50.1577 77.1614 49.8132 77.4378C49.4687 77.7142 49.0016 77.8695 48.5145 77.8695V77.8695Z" fill="black"/>
<path d="M48.5145 96.595C48.1512 96.595 47.7961 96.5085 47.494 96.3466C47.192 96.1847 46.9566 95.9546 46.8176 95.6853C46.6785 95.416 46.6422 95.1197 46.713 94.8338C46.7839 94.5479 46.9588 94.2854 47.2157 94.0793C47.4726 93.8732 47.7998 93.7328 48.1561 93.676C48.5124 93.6191 48.8817 93.6483 49.2174 93.7598C49.553 93.8714 49.8398 94.0602 50.0416 94.3026C50.2434 94.5449 50.3512 94.8299 50.3512 95.1213C50.3512 95.5122 50.1577 95.887 49.8132 96.1633C49.4687 96.4397 49.0016 96.595 48.5145 96.595V96.595Z" fill="black"/>
<path d="M71.8655 2.94737C71.5023 2.94737 71.1471 2.8609 70.8451 2.69897C70.543 2.53704 70.3077 2.30692 70.1686 2.03764C70.0296 1.76836 69.9932 1.47201 70.0641 1.18615C70.135 0.90028 70.3099 0.637745 70.5668 0.431647C70.8237 0.22555 71.1509 0.0851756 71.5072 0.0283134C71.8635 -0.0285489 72.2328 0.000648941 72.5684 0.112188C72.904 0.223728 73.1909 0.412594 73.3927 0.654939C73.5945 0.897284 73.7023 1.18221 73.7023 1.47367C73.7023 1.6672 73.6547 1.85884 73.5624 2.03764C73.4701 2.21643 73.3348 2.37886 73.1643 2.5157C72.9937 2.65255 72.7913 2.7611 72.5684 2.83516C72.3456 2.90922 72.1067 2.94737 71.8655 2.94737V2.94737Z" fill="black"/>
<path d="M71.8655 21.6828C71.3784 21.6828 70.9113 21.5275 70.5668 21.2511C70.2224 20.9748 70.0288 20.5999 70.0288 20.2091C70.0288 19.8183 70.2224 19.4434 70.5668 19.1671C70.9113 18.8907 71.3784 18.7354 71.8655 18.7354C72.3527 18.7354 72.8198 18.8907 73.1643 19.1671C73.5087 19.4434 73.7023 19.8183 73.7023 20.2091C73.7023 20.5999 73.5087 20.9748 73.1643 21.2511C72.8198 21.5275 72.3527 21.6828 71.8655 21.6828V21.6828Z" fill="black"/>
<path d="M71.8655 40.4575C71.5023 40.4575 71.1471 40.3711 70.8451 40.2092C70.543 40.0472 70.3077 39.817 70.1686 39.5478C70.0296 39.2785 69.9932 38.9822 70.0641 38.6964C70.135 38.4105 70.3099 38.1479 70.5668 37.9418C70.8237 37.7357 71.1509 37.5953 71.5072 37.5384C71.8635 37.4816 72.2328 37.5108 72.5684 37.6223C72.904 37.7339 73.1909 37.9227 73.3927 38.1651C73.5945 38.4074 73.7023 38.6923 73.7023 38.9838C73.7023 39.1773 73.6547 39.369 73.5624 39.5478C73.4701 39.7266 73.3348 39.889 73.1643 40.0258C72.9937 40.1627 72.7913 40.2712 72.5684 40.3453C72.3456 40.4194 72.1067 40.4575 71.8655 40.4575V40.4575Z" fill="black"/>
<path d="M71.8655 59.1241C71.5023 59.1241 71.1471 59.0377 70.8451 58.8758C70.543 58.7139 70.3077 58.4837 70.1686 58.2144C70.0296 57.9451 69.9932 57.6488 70.0641 57.363C70.135 57.0771 70.3099 56.8145 70.5668 56.6084C70.8237 56.4023 71.1509 56.2619 71.5072 56.2051C71.8635 56.1482 72.2328 56.1774 72.5684 56.2889C72.904 56.4005 73.1909 56.5894 73.3927 56.8317C73.5945 57.074 73.7023 57.359 73.7023 57.6504C73.7023 57.844 73.6547 58.0356 73.5624 58.2144C73.4701 58.3932 73.3348 58.5556 73.1643 58.6925C72.9937 58.8293 72.7913 58.9379 72.5684 59.0119C72.3456 59.086 72.1067 59.1241 71.8655 59.1241V59.1241Z" fill="black"/>
<path d="M71.8655 77.8695C71.5023 77.8695 71.1471 77.783 70.8451 77.6211C70.543 77.4592 70.3077 77.229 70.1686 76.9598C70.0296 76.6905 69.9932 76.3941 70.0641 76.1083C70.135 75.8224 70.3099 75.5599 70.5668 75.3538C70.8237 75.1477 71.1509 75.0073 71.5072 74.9504C71.8635 74.8936 72.2328 74.9228 72.5684 75.0343C72.904 75.1458 73.1909 75.3347 73.3927 75.5771C73.5945 75.8194 73.7023 76.1043 73.7023 76.3958C73.7023 76.5893 73.6547 76.781 73.5624 76.9598C73.4701 77.1385 73.3348 77.301 73.1643 77.4378C72.9937 77.5747 72.7913 77.6832 72.5684 77.7573C72.3456 77.8313 72.1067 77.8695 71.8655 77.8695V77.8695Z" fill="black"/>
<path d="M71.8655 96.595C71.5023 96.595 71.1471 96.5085 70.8451 96.3466C70.543 96.1847 70.3077 95.9546 70.1686 95.6853C70.0296 95.416 69.9932 95.1197 70.0641 94.8338C70.135 94.5479 70.3099 94.2854 70.5668 94.0793C70.8237 93.8732 71.1509 93.7328 71.5072 93.676C71.8635 93.6191 72.2328 93.6483 72.5684 93.7598C72.904 93.8714 73.1909 94.0602 73.3927 94.3026C73.5945 94.5449 73.7023 94.8299 73.7023 95.1213C73.7023 95.3148 73.6547 95.5065 73.5624 95.6853C73.4701 95.8641 73.3348 96.0265 73.1643 96.1633C72.9937 96.3002 72.7913 96.4087 72.5684 96.4828C72.3456 96.5569 72.1067 96.595 71.8655 96.595V96.595Z" fill="black"/>
<path d="M95.2166 2.94737C94.8533 2.94737 94.4982 2.8609 94.1962 2.69897C93.8941 2.53704 93.6587 2.30692 93.5197 2.03764C93.3807 1.76836 93.3443 1.47201 93.4152 1.18615C93.486 0.90028 93.6609 0.637745 93.9178 0.431647C94.1746 0.22555 94.502 0.0851756 94.8582 0.0283134C95.2145 -0.0285489 95.5839 0.000648941 95.9195 0.112188C96.2551 0.223728 96.5419 0.412594 96.7438 0.654939C96.9456 0.897284 97.0534 1.18221 97.0534 1.47367C97.0534 1.86452 96.8598 2.23933 96.5153 2.5157C96.1709 2.79207 95.7037 2.94737 95.2166 2.94737V2.94737Z" fill="black"/>
<path d="M95.2166 21.6828C94.8533 21.6828 94.4982 21.5963 94.1962 21.4344C93.8941 21.2724 93.6587 21.0423 93.5197 20.773C93.3807 20.5038 93.3443 20.2074 93.4152 19.9216C93.486 19.6357 93.6609 19.3732 93.9178 19.1671C94.1746 18.961 94.502 18.8206 94.8582 18.7637C95.2145 18.7069 95.5839 18.7361 95.9195 18.8476C96.2551 18.9591 96.5419 19.148 96.7438 19.3904C96.9456 19.6327 97.0534 19.9176 97.0534 20.2091C97.0534 20.4026 97.0058 20.5943 96.9135 20.773C96.8212 20.9518 96.6859 21.1143 96.5153 21.2511C96.3448 21.388 96.1423 21.4965 95.9195 21.5706C95.6967 21.6446 95.4578 21.6828 95.2166 21.6828V21.6828Z" fill="black"/>
<path d="M95.2166 40.4575C94.8533 40.4575 94.4982 40.3711 94.1962 40.2092C93.8941 40.0472 93.6587 39.817 93.5197 39.5478C93.3807 39.2785 93.3443 38.9822 93.4152 38.6964C93.486 38.4105 93.6609 38.1479 93.9178 37.9418C94.1746 37.7357 94.502 37.5953 94.8582 37.5384C95.2145 37.4816 95.5839 37.5108 95.9195 37.6223C96.2551 37.7339 96.5419 37.9227 96.7438 38.1651C96.9456 38.4074 97.0534 38.6923 97.0534 38.9838C97.0534 39.3747 96.8598 39.7495 96.5153 40.0258C96.1709 40.3022 95.7037 40.4575 95.2166 40.4575V40.4575Z" fill="black"/>
<path d="M95.2166 59.1241C94.8533 59.1241 94.4982 59.0377 94.1962 58.8758C93.8941 58.7139 93.6587 58.4837 93.5197 58.2144C93.3807 57.9451 93.3443 57.6488 93.4152 57.363C93.486 57.0771 93.6609 56.8145 93.9178 56.6084C94.1746 56.4023 94.502 56.2619 94.8582 56.2051C95.2145 56.1482 95.5839 56.1774 95.9195 56.2889C96.2551 56.4005 96.5419 56.5894 96.7438 56.8317C96.9456 57.074 97.0534 57.359 97.0534 57.6504C97.0534 58.0413 96.8598 58.4161 96.5153 58.6925C96.1709 58.9688 95.7037 59.1241 95.2166 59.1241V59.1241Z" fill="black"/>
<path d="M95.2166 77.8695C94.8533 77.8695 94.4982 77.783 94.1962 77.6211C93.8941 77.4592 93.6587 77.229 93.5197 76.9598C93.3807 76.6905 93.3443 76.3941 93.4152 76.1083C93.486 75.8224 93.6609 75.5599 93.9178 75.3538C94.1746 75.1477 94.502 75.0073 94.8582 74.9504C95.2145 74.8936 95.5839 74.9228 95.9195 75.0343C96.2551 75.1458 96.5419 75.3347 96.7438 75.5771C96.9456 75.8194 97.0534 76.1043 97.0534 76.3958C97.0534 76.7866 96.8598 77.1614 96.5153 77.4378C96.1709 77.7142 95.7037 77.8695 95.2166 77.8695V77.8695Z" fill="black"/>
<path d="M95.2166 96.595C94.8533 96.595 94.4982 96.5085 94.1962 96.3466C93.8941 96.1847 93.6587 95.9546 93.5197 95.6853C93.3807 95.416 93.3443 95.1197 93.4152 94.8338C93.486 94.5479 93.6609 94.2854 93.9178 94.0793C94.1746 93.8732 94.502 93.7328 94.8582 93.676C95.2145 93.6191 95.5839 93.6483 95.9195 93.7598C96.2551 93.8714 96.5419 94.0602 96.7438 94.3026C96.9456 94.5449 97.0534 94.8299 97.0534 95.1213C97.0534 95.5122 96.8598 95.887 96.5153 96.1633C96.1709 96.4397 95.7037 96.595 95.2166 96.595V96.595Z" fill="black"/>
<path d="M118.555 2.94737C118.192 2.94737 117.837 2.8609 117.535 2.69897C117.233 2.53704 116.997 2.30692 116.858 2.03764C116.719 1.76836 116.683 1.47201 116.754 1.18615C116.825 0.90028 117 0.637745 117.256 0.431647C117.513 0.22555 117.841 0.0851756 118.197 0.0283134C118.553 -0.0285489 118.923 0.000648941 119.258 0.112188C119.594 0.223728 119.881 0.412594 120.082 0.654939C120.284 0.897284 120.392 1.18221 120.392 1.47367C120.392 1.86452 120.198 2.23933 119.854 2.5157C119.51 2.79207 119.042 2.94737 118.555 2.94737V2.94737Z" fill="black"/>
<path d="M118.555 21.6828C118.192 21.6828 117.837 21.5963 117.535 21.4344C117.233 21.2724 116.997 21.0423 116.858 20.773C116.719 20.5038 116.683 20.2074 116.754 19.9216C116.825 19.6357 117 19.3732 117.256 19.1671C117.513 18.961 117.841 18.8206 118.197 18.7637C118.553 18.7069 118.923 18.7361 119.258 18.8476C119.594 18.9591 119.881 19.148 120.082 19.3904C120.284 19.6327 120.392 19.9176 120.392 20.2091C120.392 20.4026 120.344 20.5943 120.252 20.773C120.16 20.9518 120.025 21.1143 119.854 21.2511C119.683 21.388 119.481 21.4965 119.258 21.5706C119.035 21.6446 118.796 21.6828 118.555 21.6828V21.6828Z" fill="black"/>
<path d="M118.555 40.4575C118.192 40.4575 117.837 40.3711 117.535 40.2092C117.233 40.0472 116.997 39.817 116.858 39.5478C116.719 39.2785 116.683 38.9822 116.754 38.6964C116.825 38.4105 117 38.1479 117.256 37.9418C117.513 37.7357 117.841 37.5953 118.197 37.5384C118.553 37.4816 118.923 37.5108 119.258 37.6223C119.594 37.7339 119.881 37.9227 120.082 38.1651C120.284 38.4074 120.392 38.6923 120.392 38.9838C120.392 39.3747 120.198 39.7495 119.854 40.0258C119.51 40.3022 119.042 40.4575 118.555 40.4575V40.4575Z" fill="black"/>
<path d="M118.555 59.1241C118.192 59.1241 117.837 59.0377 117.535 58.8758C117.233 58.7139 116.997 58.4837 116.858 58.2144C116.719 57.9451 116.683 57.6488 116.754 57.363C116.825 57.0771 117 56.8145 117.256 56.6084C117.513 56.4023 117.841 56.2619 118.197 56.2051C118.553 56.1482 118.923 56.1774 119.258 56.2889C119.594 56.4005 119.881 56.5894 120.082 56.8317C120.284 57.074 120.392 57.359 120.392 57.6504C120.392 58.0413 120.198 58.4161 119.854 58.6925C119.51 58.9688 119.042 59.1241 118.555 59.1241V59.1241Z" fill="black"/>
<path d="M118.555 77.8695C118.192 77.8695 117.837 77.783 117.535 77.6211C117.233 77.4592 116.997 77.229 116.858 76.9598C116.719 76.6905 116.683 76.3941 116.754 76.1083C116.825 75.8224 117 75.5599 117.256 75.3538C117.513 75.1477 117.841 75.0073 118.197 74.9504C118.553 74.8936 118.923 74.9228 119.258 75.0343C119.594 75.1458 119.881 75.3347 120.082 75.5771C120.284 75.8194 120.392 76.1043 120.392 76.3958C120.392 76.7866 120.198 77.1614 119.854 77.4378C119.51 77.7142 119.042 77.8695 118.555 77.8695V77.8695Z" fill="black"/>
<path d="M118.555 96.595C118.192 96.595 117.837 96.5085 117.535 96.3466C117.233 96.1847 116.997 95.9546 116.858 95.6853C116.719 95.416 116.683 95.1197 116.754 94.8338C116.825 94.5479 117 94.2854 117.256 94.0793C117.513 93.8732 117.841 93.7328 118.197 93.676C118.553 93.6191 118.923 93.6483 119.258 93.7598C119.594 93.8714 119.881 94.0602 120.082 94.3026C120.284 94.5449 120.392 94.8299 120.392 95.1213C120.392 95.5122 120.198 95.887 119.854 96.1633C119.51 96.4397 119.042 96.595 118.555 96.595V96.595Z" fill="black"/>
</svg>
