<svg width="123" height="113" viewBox="0 0 123 113" fill="none" xmlns="http://www.w3.org/2000/svg">
<path d="M61.8184 82.7797C95.1362 82.7797 122.146 76.802 122.146 69.4281C122.146 62.0542 95.1362 56.0765 61.8184 56.0765C28.5005 56.0765 1.49109 62.0542 1.49109 69.4281C1.49109 76.802 28.5005 82.7797 61.8184 82.7797Z" stroke="black" stroke-miterlimit="10"/>
<path d="M61.8184 27.7032C95.1362 27.7032 122.146 21.7255 122.146 14.3516C122.146 6.9777 95.1362 1 61.8184 1C28.5005 1 1.49109 6.9777 1.49109 14.3516C1.49109 21.7255 28.5005 27.7032 61.8184 27.7032Z" stroke="black" stroke-miterlimit="10"/>
<path d="M61.8184 96.1214C95.1362 96.1214 122.146 90.1437 122.146 82.7698C122.146 75.396 95.1362 69.4183 61.8184 69.4183C28.5005 69.4183 1.49109 75.396 1.49109 82.7698C1.49109 90.1437 28.5005 96.1214 61.8184 96.1214Z" stroke="black" stroke-miterlimit="10"/>
</svg>
