<?xml version="1.0" encoding="UTF-8"?><!DOCTYPE svg PUBLIC "-//W3C//DTD SVG 1.1//EN" "http://www.w3.org/Graphics/SVG/1.1/DTD/svg11.dtd"><svg xmlns="http://www.w3.org/2000/svg" xmlns:xlink="http://www.w3.org/1999/xlink"><defs><clipPath id="clip0"><path fill="white" d="M0 0h12v12H0z"/></clipPath><radialGradient id="paint0_radial" cx="0" cy="0" r="1" gradientUnits="userSpaceOnUse" gradientTransform="matrix(0 -35.6787 33.184 0 9.563 38.773)"><stop stop-color="#FD5"/><stop offset=".1" stop-color="#FD5"/><stop offset=".5" stop-color="#FF543E"/><stop offset="1" stop-color="#C837AB"/></radialGradient><radialGradient id="paint1_radial" cx="0" cy="0" r="1" gradientUnits="userSpaceOnUse" gradientTransform="matrix(0 -35.6341 33.1516 0 9.571 38.747)"><stop stop-color="#FD5"/><stop offset=".1" stop-color="#FD5"/><stop offset=".5" stop-color="#FF543E"/><stop offset="1" stop-color="#C837AB"/></radialGradient><radialGradient id="paint2_radial" cx="0" cy="0" r="1" gradientUnits="userSpaceOnUse" gradientTransform="rotate(78.678 -4.597 -2.358) scale(15.9288 65.6756)"><stop stop-color="#3771C8"/><stop offset=".128" stop-color="#3771C8"/><stop offset="1" stop-color="#60F" stop-opacity="0"/></radialGradient><linearGradient id="paint0_linear" x1="0" y1="23.25" x2="47.316" y2="23.25" gradientUnits="userSpaceOnUse"><stop stop-color="#95681D"/><stop offset="1" stop-color="#E9CF61"/></linearGradient></defs><symbol id="icon-arrow"><path d="M9.707 2.56a1 1 0 00-1.414-1.414l1.414 1.415zM5 5.855l-.707.707a1 1 0 001.414 0L5 5.854zM1.707 1.146A1 1 0 10.293 2.561l1.414-1.415zm6.586 0l-4 4 1.414 1.415 4-4-1.414-1.415zm-2.586 4l-4-4L.293 2.561l4 4 1.414-1.415z" fill="#272727"/></symbol><symbol id="icon-bitcoin"><path d="M46.607 28.889c-3.16 12.427-15.955 20.024-28.687 16.915C5.275 42.697-2.455 30.124.708 17.61 3.87 5.184 16.664-2.413 29.396.696 42.04 3.802 49.77 16.376 46.607 28.89z" fill="#F7931A"/><path d="M34.078 19.916c.469-3.106-1.932-4.779-5.21-5.869l1.054-4.201-2.575-.633-1.054 4.082-2.107-.46 1.053-4.082-2.575-.632-1.054 4.201-1.638-.403-3.546-.864-.702 2.703 1.875.46c.363.041.696.221.926.501.23.28.338.638.302.996l-1.229 4.778c.059 0 .178.058.294.058-.058 0-.177-.058-.293-.058l-1.697 6.676c-.117.288-.469.806-1.17.632 0 .057-1.875-.46-1.875-.46l-1.266 2.936 3.394.807 1.874.46-1.054 4.232 2.576.632 1.054-4.202 2.026.518-1.054 4.202 2.576.632 1.053-4.231c4.45.806 7.725.517 9.133-3.453 1.114-3.16-.058-4.978-2.4-6.215 1.757-.348 2.988-1.438 3.337-3.74l-.028-.003zm-5.913 8.229c-.821 3.16-6.205 1.438-7.963 1.035l1.406-5.638c1.757.404 7.377 1.245 6.584 4.605l-.027-.002zm.82-8.23c-.701 2.878-5.268 1.44-6.732 1.036l1.267-5.12c1.464.404 6.205 1.036 5.445 4.082l.02.003z" fill="white"/></symbol><symbol id="icon-bolt"><path d="M12.092.986L.652 12.358h4.244l-3.262 8.628L13.347 9.613H9.103L12.092.986z" fill="white"/></symbol><symbol id="icon-close"><path d="M1.214 1l16 16m0-16l-16 16" stroke="#F5F5F7" stroke-width=".5" stroke-linecap="square" stroke-linejoin="round"/></symbol><symbol id="icon-comments"><path d="M21.6 11.683c0 1.975-.875 3.778-2.314 5.168v3.416l-3.429-1.307c-1.18.431-2.484.674-3.857.674-5.302 0-9.6-3.56-9.6-7.95 0-4.39 4.298-7.95 9.6-7.95s9.6 3.559 9.6 7.95z" fill="black"/><path d="M19.28 20.533a.276.276 0 01-.098-.018l-3.33-1.269c-1.225.435-2.52.655-3.852.655-5.44 0-9.867-3.686-9.867-8.217 0-4.53 4.427-8.217 9.867-8.217 5.44 0 9.867 3.686 9.867 8.216 0 1.93-.82 3.8-2.313 5.279v3.298a.273.273 0 01-.274.273zm-3.426-1.852c.034 0 .067.006.099.018l3.053 1.164v-3.016c0-.074.03-.145.084-.196 1.437-1.388 2.228-3.152 2.228-4.968 0-4.23-4.18-7.67-9.319-7.67-5.138 0-9.317 3.44-9.317 7.671 0 4.23 4.18 7.671 9.318 7.671 1.302 0 2.568-.22 3.76-.657a.268.268 0 01.095-.017z" fill="black"/></symbol><symbol id="icon-copy"><path d="M8.137 2.318H1.941c-.581 0-1.053.425-1.053.947v7.988c0 .523.472.947 1.053.947h6.196c.582 0 1.054-.424 1.054-.947V3.265c-.003-.522-.475-.947-1.054-.947zm.314 8.933c0 .157-.142.284-.317.284H1.938c-.174 0-.316-.127-.316-.284V3.265c0-.157.142-.285.316-.285h6.196c.175 0 .317.128.317.285v7.986z" fill="#222"/><path d="M10.506.224H4.31c-.581 0-1.053.424-1.053.947h.737c0-.157.142-.285.316-.285h6.196c.175 0 .317.128.317.285v7.988c0 .157-.142.284-.317.284v.662c.582 0 1.054-.424 1.054-.946V1.17c0-.523-.472-.947-1.054-.947z" fill="#222"/></symbol><symbol id="icon-danger"><path d="M14.207 10.319L8.304 1.475C8.07 1.127 7.647.91 7.196.91c-.45 0-.874.217-1.107.565L.185 10.32c-.24.36-.247.81-.018 1.177.229.366.66.593 1.126.593H13.1c.466 0 .897-.227 1.126-.593a1.073 1.073 0 00-.019-1.177zm-.797.76a.365.365 0 01-.31.164H1.293a.365.365 0 01-.31-.163.295.295 0 01.005-.324l5.904-8.844a.367.367 0 01.304-.155c.124 0 .241.06.305.155l5.904 8.844c.066.099.068.223.005.324z" fill="#800303"/><path d="M7.2 4.393c-.356 0-.634.172-.634.479 0 .934.122 2.277.122 3.211 0 .244.235.346.513.346.209 0 .504-.102.504-.346 0-.934.122-2.277.122-3.211 0-.307-.287-.48-.626-.48zM7.21 8.97c-.383 0-.67.275-.67.605 0 .322.287.605.67.605.356 0 .66-.283.66-.605 0-.33-.304-.604-.66-.604z" fill="#800303"/></symbol><symbol id="icon-faq"><g clip-path="url(#clip0)" fill="black"><path d="M9.954 3.013H9.69v2.046a2.752 2.752 0 01-2.75 2.749H3.012v.263c0 1.129.918 2.046 2.047 2.046h4.203l2.161 1.802a.352.352 0 00.577-.27v-6.59c0-1.13-.914-2.046-2.046-2.046z"/><path d="M8.988 5.059V2.046A2.045 2.045 0 006.94 0H2.046A2.045 2.045 0 000 2.046v6.59a.352.352 0 00.577.27l2.161-1.801h4.203a2.048 2.048 0 002.047-2.046zm-4.494.54a.352.352 0 110-.704.352.352 0 010 .704zm.351-1.555v.073a.352.352 0 01-.703 0v-.376c0-.194.158-.352.352-.352a.59.59 0 10-.59-.59.352.352 0 01-.703 0c0-.345.134-.67.378-.914a1.295 1.295 0 111.266 2.159z"/></g></symbol><symbol id="icon-fb"><path d="M0 12.8c0-4.48 0-6.72.872-8.432A8 8 0 014.368.872C6.08 0 8.32 0 12.8 0h10.4c4.48 0 6.72 0 8.432.872a8 8 0 013.496 3.496C36 6.08 36 8.32 36 12.8v10.4c0 4.48 0 6.72-.872 8.432a8 8 0 01-3.496 3.496C29.92 36 27.68 36 23.2 36H12.8c-4.48 0-6.72 0-8.432-.872a8 8 0 01-3.496-3.496C0 29.92 0 27.68 0 23.2V12.8z" fill="#1977F3"/><path fill-rule="evenodd" clip-rule="evenodd" d="M35.875 17.938C35.875 8.032 27.844 0 17.938 0S0 8.032 0 17.938c0 8.952 6.559 16.373 15.135 17.72V23.124H10.58v-5.186h4.556v-3.953c0-4.495 2.68-6.98 6.776-6.98 1.962 0 4.015.35 4.015.35v4.415h-2.262c-2.228 0-2.924 1.382-2.924 2.803v3.364h4.975l-.795 5.187h-4.18v12.534c8.577-1.344 15.135-8.766 15.135-17.72z" fill="#1977F3"/><path fill-rule="evenodd" clip-rule="evenodd" d="M24.92 23.124l.795-5.186H20.74v-3.365c0-1.418.694-2.803 2.924-2.803h2.263V7.356s-2.054-.351-4.016-.351c-4.097 0-6.776 2.482-6.776 6.98v3.953H10.58v5.186h4.555V36h5.605V23.124h4.18z" fill="#FEFEFE"/></symbol><symbol id="icon-gmaps"><path d="M0 12.8c0-4.48 0-6.72.872-8.432A8 8 0 014.368.872C6.08 0 8.32 0 12.8 0h10.4c4.48 0 6.72 0 8.432.872a8 8 0 013.496 3.496C36 6.08 36 8.32 36 12.8v10.4c0 4.48 0 6.72-.872 8.432a8 8 0 01-3.496 3.496C29.92 36 27.68 36 23.2 36H12.8c-4.48 0-6.72 0-8.432-.872a8 8 0 01-3.496-3.496C0 29.92 0 27.68 0 23.2V12.8z" fill="#E8EAED"/><path d="M13.783 24.274a26.106 26.106 0 012.113 3.12c.539 1.022.76 1.712 1.161 2.943.236.678.457.885.926.885.512 0 .745-.346.925-.885.373-1.16.664-2.043 1.118-2.887.897-1.616 2.032-3.053 3.135-4.433.303-.387 2.238-2.666 3.109-4.474 0 0 1.062-1.976 1.062-4.738 0-2.582-1.05-4.378-1.05-4.378l-3.04.815-1.85 4.86-.457.664-.096.125-.125.152-.207.247-.303.303-1.644 1.34-4.101 2.375-.676 3.966z" fill="#34A853"/><path d="M9.542 18.211c1.008 2.294 2.928 4.296 4.241 6.063l6.948-8.231s-.981 1.284-2.748 1.284a3.557 3.557 0 01-3.577-3.563c0-1.368.815-2.306.815-2.306l-4.712 1.258-.967 5.495z" fill="#FBBC04"/><path d="M20.813 4.828c2.305.745 4.281 2.305 5.469 4.613l-5.554 6.616s.815-.952.815-2.305c0-2.032-1.711-3.563-3.563-3.563-1.754 0-2.762 1.272-2.762 1.272V7.287l5.595-2.459z" fill="#4285F4"/><path d="M10.812 7.742c1.38-1.645 3.798-3.342 7.14-3.342 1.615 0 2.843.428 2.843.428l-5.577 6.63h-3.95l-.457-3.716z" fill="#1A73E8"/><path d="M9.542 18.211s-.91-1.81-.91-4.418c0-2.472.966-4.628 2.194-6.037l4.407 3.714-5.69 6.741z" fill="#EA4335"/></symbol><symbol id="icon-insta"><path d="M0 8a8 8 0 018-8h20a8 8 0 018 8v20a8 8 0 01-8 8H8a8 8 0 01-8-8V8z" fill="url(#paint0_radial)"/><path d="M18.006.023C10.5.023 8.303.03 7.876.066c-1.54.128-2.5.37-3.544.89-.805.4-1.44.864-2.066 1.513C1.126 3.654.434 5.111.183 6.843.062 7.683.026 7.855.02 12.15c-.003 1.432 0 3.316 0 5.843 0 7.502.008 9.695.044 10.121.125 1.5.36 2.443.858 3.474A7.575 7.575 0 005.83 35.6c.74.19 1.56.296 2.61.346.446.02 4.985.033 9.527.033 4.541 0 9.083-.006 9.517-.028 1.218-.057 1.924-.152 2.706-.354a7.528 7.528 0 004.91-4.019c.488-1.007.735-1.986.847-3.407.024-.31.035-5.249.035-10.181 0-4.934-.011-9.864-.036-10.174-.113-1.444-.36-2.414-.865-3.44a7.127 7.127 0 00-1.539-2.11C32.353 1.13 30.9.439 29.165.189c-.84-.122-1.008-.158-5.306-.165h-5.853z" fill="url(#paint1_radial)"/><path d="M18.006.023C10.5.023 8.303.03 7.876.066c-1.54.128-2.5.37-3.544.89-.805.4-1.44.864-2.066 1.513C1.126 3.654.434 5.111.183 6.843.062 7.683.026 7.855.02 12.15c-.003 1.432 0 3.316 0 5.843 0 7.502.008 9.695.044 10.121.125 1.5.36 2.443.858 3.474A7.575 7.575 0 005.83 35.6c.74.19 1.56.296 2.61.346.446.02 4.985.033 9.527.033 4.541 0 9.083-.006 9.517-.028 1.218-.057 1.924-.152 2.706-.354a7.528 7.528 0 004.91-4.019c.488-1.007.735-1.986.847-3.407.024-.31.035-5.249.035-10.181 0-4.934-.011-9.864-.036-10.174-.113-1.444-.36-2.414-.865-3.44a7.127 7.127 0 00-1.539-2.11C32.353 1.13 30.9.439 29.165.189c-.84-.122-1.008-.158-5.306-.165h-5.853z" fill="url(#paint2_radial)"/><path d="M17.997 4.725c-3.605 0-4.058.016-5.474.08-1.413.065-2.378.288-3.222.617a6.501 6.501 0 00-2.352 1.53 6.518 6.518 0 00-1.533 2.352c-.329.845-.553 1.81-.617 3.223-.063 1.416-.08 1.869-.08 5.475 0 3.605.017 4.056.08 5.473.066 1.413.29 2.378.618 3.222.34.873.793 1.614 1.531 2.352a6.501 6.501 0 002.351 1.532c.845.329 1.81.553 3.223.617 1.416.065 1.868.08 5.474.08s4.057-.015 5.473-.08c1.414-.064 2.38-.288 3.224-.617a6.496 6.496 0 002.35-1.532 6.518 6.518 0 001.533-2.352c.326-.844.55-1.81.617-3.222.063-1.416.08-1.868.08-5.473 0-3.606-.017-4.059-.08-5.475-.067-1.413-.29-2.378-.617-3.222a6.516 6.516 0 00-1.532-2.352 6.488 6.488 0 00-2.351-1.531c-.847-.329-1.812-.552-3.226-.617-1.416-.064-1.867-.08-5.473-.08h.003zm-1.19 2.392h1.19c3.545 0 3.965.013 5.365.077 1.295.059 1.997.275 2.465.457.62.24 1.062.528 1.526.993.465.465.752.907.994 1.527.181.467.398 1.17.457 2.464.064 1.4.077 1.82.077 5.364 0 3.543-.014 3.963-.077 5.363-.06 1.294-.276 1.997-.457 2.464-.241.62-.53 1.061-.994 1.526a4.104 4.104 0 01-1.526.992c-.467.183-1.17.399-2.465.458-1.4.064-1.82.077-5.365.077s-3.965-.013-5.365-.077c-1.294-.06-1.997-.276-2.465-.458a4.112 4.112 0 01-1.527-.993 4.115 4.115 0 01-.993-1.526c-.182-.467-.399-1.17-.458-2.464-.063-1.4-.076-1.82-.076-5.366 0-3.545.013-3.964.076-5.363.06-1.295.276-1.997.458-2.465.24-.62.529-1.062.993-1.527a4.12 4.12 0 011.527-.994c.468-.182 1.171-.398 2.465-.457 1.225-.056 1.7-.072 4.174-.075v.003zm8.277 2.205a1.593 1.593 0 100 3.187 1.593 1.593 0 000-3.188zm-7.087 1.861a6.818 6.818 0 10.001 13.637 6.818 6.818 0 000-13.637zm0 2.393a4.426 4.426 0 110 8.851 4.426 4.426 0 010-8.851z" fill="white"/></symbol><symbol id="icon-likes"><path d="M18.301 1.922A5.3 5.3 0 0014.354.2c-1.139 0-2.182.361-3.1 1.073-.464.36-.884.799-1.254 1.312a6.35 6.35 0 00-1.254-1.312A4.956 4.956 0 005.646.2a5.3 5.3 0 00-3.947 1.722C.689 3.02.133 4.52.133 6.145c0 1.673.622 3.205 1.957 4.82 1.195 1.445 2.912 2.912 4.9 4.61.679.58 1.448 1.237 2.247 1.938a1.155 1.155 0 001.525 0c.8-.7 1.57-1.358 2.249-1.939 1.987-1.698 3.704-3.164 4.899-4.61 1.335-1.614 1.957-3.146 1.957-4.819 0-1.625-.556-3.125-1.566-4.223z" fill="black"/></symbol><symbol id="icon-mail"><path d="M9.28 4.567L14 7.357V1.66L9.28 4.567zM0 1.66v5.697l4.72-2.79L0 1.66zM13.125 0H.875a.847.847 0 00-.849.696L7 4.993 13.974.696A.847.847 0 0013.125 0zM8.479 5.061l-1.238.763a.46.46 0 01-.482 0L5.521 5.06.028 8.31c.067.388.412.69.847.69h12.25c.435 0 .78-.302.847-.69L8.479 5.06z" fill="#272727"/></symbol><symbol id="icon-manta"><path d="M0 12.8c0-4.48 0-6.72.872-8.432A8 8 0 014.368.872C6.08 0 8.32 0 12.8 0h10.4c4.48 0 6.72 0 8.432.872a8 8 0 013.496 3.496C36 6.08 36 8.32 36 12.8v10.4c0 4.48 0 6.72-.872 8.432a8 8 0 01-3.496 3.496C29.92 36 27.68 36 23.2 36H12.8c-4.48 0-6.72 0-8.432-.872a8 8 0 01-3.496-3.496C0 29.92 0 27.68 0 23.2V12.8z" fill="#E06B61"/><path d="M30.615 16.036a.884.884 0 00-.877.892c0 .498.397.892.877.892a.884.884 0 00.876-.892.884.884 0 00-.876-.892zm3.247-2.133l-.13.348-.129-.348h-.147v.489h.092v-.385l.148.385h.064l.148-.385v.385H34v-.489h-.138zm-6.522 4.5h-.388c-.784 0-1.42-.648-1.42-1.447V15.5h1.78a.25.25 0 00.25-.254v-1.09a.25.25 0 00-.25-.253h-1.78v-1.25a.25.25 0 00-.25-.253h-1.06a.25.25 0 00-.25.254v4.293c0 1.681 1.338 3.044 2.99 3.044h.387a.25.25 0 00.25-.254v-1.071c0-.15-.111-.263-.26-.263zm5.332.63a.275.275 0 01-.397 0l-.867-.884c-.563.386-1.32.32-1.817-.178a1.476 1.476 0 010-2.067 1.413 1.413 0 012.03 0c.488.498.552 1.278.174 1.85l.867.884c.12.103.12.282.01.394zm.074-4.266a2.974 2.974 0 00-4.253 0 3.108 3.108 0 000 4.331 2.97 2.97 0 002.094.893h2.786a.25.25 0 00.249-.254V16.9a3.104 3.104 0 00-.877-2.133zm-12.094-.901c-1.688-.029-3.063 1.428-3.063 3.147v2.724c0 .14.111.254.25.254h1.07a.25.25 0 00.249-.254v-2.809c0-.836.7-1.512 1.531-1.456.766.056 1.337.733 1.337 1.512v2.762c0 .141.111.254.25.254h1.07a.25.25 0 00.249-.254v-2.818c.009-1.672-1.31-3.034-2.943-3.063zm-12.656 0c-.627.037-1.19.328-1.614.751a2.527 2.527 0 00-1.984-.752C3.033 13.96 2 15.182 2 16.572v3.166c0 .14.11.263.258.263H3.31a.26.26 0 00.258-.263v-3.185c0-.563.415-1.061.96-1.09.59-.028 1.07.442 1.07 1.034v3.241c0 .14.11.263.258.263h1.051a.26.26 0 00.259-.263v-3.185c0-.563.415-1.061.96-1.09.59-.028 1.07.442 1.07 1.034v3.241c0 .14.11.263.257.263h1.052a.26.26 0 00.258-.263v-3.25c-.018-1.513-1.263-2.715-2.767-2.621zm25.128.526h.092v-.414h.148v-.075h-.388v.075h.148v.414zM15.127 17.97a1.413 1.413 0 01-2.03 0 1.476 1.476 0 010-2.067 1.413 1.413 0 012.03 0 1.476 1.476 0 010 2.067zm1.106-3.204a2.974 2.974 0 00-4.252 0 3.108 3.108 0 000 4.331 2.969 2.969 0 002.094.893h2.786a.25.25 0 00.249-.254V16.9c0-.77-.295-1.54-.877-2.133z" fill="white"/></symbol><symbol id="icon-othersite"><path d="M0 12.8c0-4.48 0-6.72.872-8.432A8 8 0 014.368.872C6.08 0 8.32 0 12.8 0h10.4c4.48 0 6.72 0 8.432.872a8 8 0 013.496 3.496C36 6.08 36 8.32 36 12.8v10.4c0 4.48 0 6.72-.872 8.432a8 8 0 01-3.496 3.496C29.92 36 27.68 36 23.2 36H12.8c-4.48 0-6.72 0-8.432-.872a8 8 0 01-3.496-3.496C0 29.92 0 27.68 0 23.2V12.8z" fill="#1977F3"/><path d="M27.051 8.152A12.72 12.72 0 0018 4.4a12.72 12.72 0 00-9.052 3.752c-4.666 4.663-5.004 12.114-.848 17.163-.573 1.174-1.25 1.957-2.016 2.332-.467.23-.73.734-.654 1.249.08.52.477.922.997 1.002.284.043.59.07.906.07 1.572 0 3.224-.541 4.602-1.49A12.821 12.821 0 0017.999 30c3.422 0 6.634-1.33 9.052-3.747a12.712 12.712 0 003.749-9.048c0-3.414-1.33-6.635-3.749-9.053zm-1.024 17.072A11.284 11.284 0 0118 28.547c-2.027 0-4.017-.54-5.749-1.56a.749.749 0 00-.364-.101.754.754 0 00-.446.15c-1.64 1.27-3.292 1.458-4.016 1.474.863-.643 1.587-1.64 2.193-3.029a.728.728 0 00-.123-.771c-3.969-4.482-3.76-11.31.477-15.545a11.284 11.284 0 018.028-3.323c3.03 0 5.883 1.18 8.028 3.323 4.43 4.433 4.43 11.637 0 16.06z" fill="white"/><path d="M23.639 13.2H12.36c-.423 0-.761.267-.761.6 0 .333.338.6.761.6H23.64c.423 0 .761-.267.761-.6 0-.333-.344-.6-.761-.6zM23.639 16.4H12.36c-.423 0-.761.356-.761.8 0 .445.338.8.761.8H23.64c.423 0 .761-.355.761-.8 0-.444-.344-.8-.761-.8zM23.639 20H12.36c-.423 0-.761.267-.761.6 0 .333.338.6.761.6H23.64c.423 0 .761-.267.761-.6 0-.333-.344-.6-.761-.6z" fill="white"/></symbol><symbol id="icon-payeer"><path fill-rule="evenodd" clip-rule="evenodd" d="M22.112.086C14.809.516 8.036 4.364 3.934 10.41 1.87 13.456.66 16.631.141 20.368c-.188 1.356-.188 4.444 0 5.797.52 3.745 1.75 6.96 3.838 10.03 3.094 4.548 7.801 7.924 13.086 9.387 1.974.547 3.188.75 5.228.875 5.734.352 11.617-1.48 16.127-5.022 3.586-2.816 6.291-6.622 7.7-10.832.854-2.55 1.186-4.564 1.196-7.242.009-2.75-.33-4.846-1.206-7.458-1.163-3.469-3.037-6.421-5.768-9.088C36.139 2.712 30.93.436 24.922.078A40.757 40.757 0 0023.374 0c-.026.007-.594.045-1.262.085zm6.584 8.833c.537.086 1.217.252 1.512.37 1.524.606 2.932 2.024 3.718 3.741.986 2.155 1.199 5.522.513 8.11-.691 2.612-2.383 4.628-4.51 5.374-1.308.46-3.688.695-7.046.696l-1.94.001v11.092h-5.14l.001-14.662c.001-8.064.029-14.73.061-14.814.055-.14.527-.148 5.957-.108 4.938.038 6.056.07 6.874.2zm-7.774 8.942c-.014 2.219-.01 4.075.006 4.125.042.122 3.816.12 4.922-.003 1.535-.17 2.283-.535 2.942-1.437.54-.738.75-1.48.75-2.639 0-1.153-.21-1.9-.738-2.623-.908-1.243-1.725-1.456-5.59-1.456h-2.266l-.026 4.034z" fill="#09D"/></symbol><symbol id="icon-payoneer"><path d="M46.608 28.875C43.448 41.33 30.61 48.91 17.933 45.803 5.26 42.699-2.453 30.083.709 17.628 3.867 5.171 16.705-2.41 29.379.696 42.053 3.8 49.767 16.418 46.607 28.874z" fill="#FF4600"/><path d="M14.443 15.352c.079 1.762 1.628 8.486 1.628 8.486.57 1.362 1.06 0 1.06 0 1.874-5.524-1.956-8.725-1.956-8.725-.978-.561-.732.24-.732.24zm22.24-.96s1.876 1.281 0 1.521c0 0-7.006.8-12.22 5.605 0 0-7.822 6.723-10.755 14.089 0 0-.978 0-.65-1.44.325-1.442 2.28-7.767 10.996-15.531 0 0 8.395-7.526 12.63-4.244z" fill="white"/></symbol><symbol id="icon-pinterest"><path d="M0 12.8c0-4.48 0-6.72.872-8.432A8 8 0 014.368.872C6.08 0 8.32 0 12.8 0h10.4c4.48 0 6.72 0 8.432.872a8 8 0 013.496 3.496C36 6.08 36 8.32 36 12.8v10.4c0 4.48 0 6.72-.872 8.432a8 8 0 01-3.496 3.496C29.92 36 27.68 36 23.2 36H12.8c-4.48 0-6.72 0-8.432-.872a8 8 0 01-3.496-3.496C0 29.92 0 27.68 0 23.2V12.8z" fill="black"/><path d="M32.8 18c0 8.174-6.626 14.8-14.8 14.8S3.2 26.174 3.2 18 9.826 3.2 18 3.2 32.8 9.826 32.8 18z" fill="white"/><path d="M18 3.2C9.826 3.2 3.2 9.826 3.2 18c0 6.27 3.901 11.63 9.406 13.787-.129-1.171-.246-2.972.052-4.25.269-1.156 1.735-7.357 1.735-7.357s-.443-.887-.443-2.197c0-2.059 1.193-3.595 2.678-3.595 1.263 0 1.873.948 1.873 2.085 0 1.27-.808 3.168-1.226 4.928-.348 1.473.74 2.674 2.192 2.674 2.63 0 4.652-2.774 4.652-6.777 0-3.544-2.546-6.021-6.182-6.021-4.21 0-6.682 3.158-6.682 6.422 0 1.272.49 2.636 1.101 3.378a.442.442 0 01.103.424c-.113.468-.362 1.473-.411 1.679-.065.27-.215.328-.495.198-1.849-.86-3.004-3.563-3.004-5.734 0-4.668 3.392-8.956 9.779-8.956 5.134 0 9.123 3.658 9.123 8.548 0 5.1-3.216 9.205-7.68 9.205-1.5 0-2.91-.779-3.392-1.7 0 0-.742 2.827-.922 3.52-.334 1.285-1.236 2.896-1.84 3.88 1.386.428 2.857.659 4.383.659 8.174 0 14.8-6.626 14.8-14.8S26.174 3.2 18 3.2z" fill="#E60023"/></symbol><symbol id="icon-qiwi"><path d="M36.708 29.523c.158-.274.49-.394.907-.244.806.289 1.122 1.464 1.207 2.007.142.908-.158 1.283-.461 1.283-.329 0-.743-.37-1.233-1.093-.483-.718-.66-1.539-.42-1.953zM31.766 33.07c.224-.264.59-.408 1.027-.408.53 0 1.087.214 1.564.598.967.778 1.26 1.704.749 2.355-.285.358-.746.556-1.299.556-.54 0-1.093-.192-1.479-.51-.878-.73-1.138-1.917-.562-2.59z" fill="#FF8C00"/><path d="M0 20.678c0 11.42 9.74 20.679 21.751 20.679 3.186 0 6.349-.59 10.994-.586 4.169 0 8.69 1.358 13.696 5.576.503.42 1.17-.102.733-.628-4.92-5.904-9.47-7.03-14.008-7.98-5.553-1.162-8.406-4.133-10.397-7.393-.398-.649-.575-.535-.61.3a17.725 17.725 0 00.272 3.696c-.225.009-.45.006-.677.006-7.941 0-14.378-6.12-14.378-13.67s6.437-13.67 14.378-13.67c7.942 0 14.379 6.12 14.379 13.67 0 .538-.029 1.07-.092 1.59-1.049-.18-3.116-.202-4.566-.082-.547.046-.468.286-.057.358 4.753.814 8.02 3.614 8.766 8.697.016.117.177.154.24.051a19.845 19.845 0 003.078-10.614C43.502 9.26 33.762 0 21.752 0 9.74 0 0 9.26 0 20.678z" fill="#FF8C00"/></symbol><symbol id="icon-sitejabber"><path d="M0 12.8c0-4.48 0-6.72.872-8.432A8 8 0 014.368.872C6.08 0 8.32 0 12.8 0h10.4c4.48 0 6.72 0 8.432.872a8 8 0 013.496 3.496C36 6.08 36 8.32 36 12.8v10.4c0 4.48 0 6.72-.872 8.432a8 8 0 01-3.496 3.496C29.92 36 27.68 36 23.2 36H12.8c-4.48 0-6.72 0-8.432-.872a8 8 0 01-3.496-3.496C0 29.92 0 27.68 0 23.2V12.8z" fill="#F06A22"/><path d="M16.961 29.559c-6.716 0-12.16-5.46-12.16-12.195C4.799 10.63 10.244 5.17 16.96 5.17s12.161 5.46 12.161 12.195c0 2.73-.894 5.25-2.405 7.282l4.877 4.913H16.961z" fill="white"/><path d="M16.648 10.192a.388.388 0 01.693 0l1.958 3.795c.056.11.16.187.28.208l4.133.732c.31.055.433.443.214.673l-2.924 3.077a.406.406 0 00-.107.337l.598 4.247c.044.319-.278.559-.56.416l-3.765-1.893a.384.384 0 00-.346 0l-3.764 1.893c-.283.143-.606-.097-.56-.416l.596-4.247a.406.406 0 00-.106-.337L10.064 15.6c-.22-.23-.096-.618.214-.673l4.133-.732a.392.392 0 00.28-.208l1.957-3.795z" fill="#F06A22"/></symbol><symbol id="icon-skype-filled"><path d="M11.666 9.752l-1.444-.32c-.549-.126-1.18-.29-1.18-.809 0-.519.443-.881 1.243-.881 1.614 0 1.466 1.109 2.267 1.109.422 0 .79-.248.79-.674 0-.995-1.59-1.741-2.94-1.741-1.467 0-3.027.622-3.027 2.28 0 .798.285 1.648 1.856 2.042l1.95.487c.591.145.739.477.739.777 0 .498-.495.985-1.392.985-1.751 0-1.508-1.348-2.446-1.348-.422 0-.728.29-.728.705 0 .808.981 1.887 3.174 1.887 2.087 0 3.121-1.006 3.121-2.353 0-.87-.4-1.794-1.983-2.146z" fill="#919191"/><path d="M10.5 0C4.702 0 0 4.702 0 10.5S4.702 21 10.5 21 21 16.298 21 10.5 16.298 0 10.5 0zm5.467 15.951a3.652 3.652 0 01-4.382.596 6.125 6.125 0 01-3.484-.39 6.14 6.14 0 01-1.963-1.322A6.147 6.147 0 014.33 10.47c0-.357.032-.715.093-1.064a3.65 3.65 0 01.61-4.357 3.63 3.63 0 012.585-1.07c.598 0 1.188.149 1.714.428h.003a6.226 6.226 0 013.571.374 6.152 6.152 0 011.963 1.323 6.148 6.148 0 011.808 4.366c0 .375-.035.752-.102 1.119a3.655 3.655 0 01-.608 4.362z" fill="#919191"/></symbol><symbol id="icon-star"><path d="M11.38 3.025a.715.715 0 011.24 0l2.791 4.817a.717.717 0 00.468.342l5.422 1.18a.722.722 0 01.383 1.184l-3.696 4.158a.723.723 0 00-.18.553l.56 5.547c.055.55-.5.954-1.003.732l-5.076-2.249a.713.713 0 00-.578 0l-5.076 2.249a.718.718 0 01-1.003-.732l.559-5.547a.723.723 0 00-.179-.553l-3.696-4.158A.722.722 0 012.7 9.364l5.422-1.18a.717.717 0 00.468-.342l2.791-4.817z"/></symbol><symbol id="icon-subscribers"><path d="M10 7.169a3.351 3.351 0 100-6.702 3.351 3.351 0 000 6.702zM16.78 7.169a2.119 2.119 0 100-4.237 2.119 2.119 0 000 4.237zM3.22 7.169a2.118 2.118 0 100-4.237 2.118 2.118 0 000 4.237zM5.308 9.071c-.834-.683-1.589-.593-2.553-.593a2.61 2.61 0 00-2.616 2.6v4.207c0 .622.508 1.128 1.133 1.128 2.697 0 2.373.049 2.373-.116 0-2.98-.353-5.167 1.663-7.226z" fill="black"/><path d="M10.917 8.494c-1.684-.14-3.148.001-4.41 1.044C4.394 11.23 4.8 13.509 4.8 16.297c0 .737.6 1.349 1.35 1.349 8.13 0 8.453.262 8.935-.806.158-.36.115-.246.115-3.7 0-2.744-2.375-4.646-4.283-4.646zM17.245 8.478c-.97 0-1.72-.09-2.553.593 2.002 2.044 1.663 4.08 1.663 7.226 0 .166-.27.116 2.332.116.647 0 1.174-.524 1.174-1.168v-4.167a2.61 2.61 0 00-2.616-2.6z" fill="black"/></symbol><symbol id="icon-tg-filled"><path d="M10.5 21C16.3 21 21 16.3 21 10.5S16.3 0 10.5 0 0 4.7 0 10.5 4.7 21 10.5 21zM4.805 10.273l10.123-3.904c.47-.17.88.115.728.825h.001l-1.723 8.12c-.128.576-.47.716-.949.445l-2.625-1.935-1.266 1.22c-.14.14-.258.258-.53.258l.187-2.671 4.865-4.396c.212-.186-.047-.29-.326-.105l-6.013 3.785-2.591-.809c-.563-.178-.575-.562.119-.833z" fill="#919191"/></symbol><symbol id="icon-tg"><path d="M11.599.63L.96 4.732c-.726.292-.722.697-.133.878l2.73.852 6.32-3.987c.299-.182.572-.084.348.115l-5.12 4.62h-.001v.001l-.188 2.815c.276 0 .398-.126.553-.276l1.327-1.29 2.759 2.038c.509.28.874.137 1-.47l1.812-8.537c.185-.744-.284-1.08-.77-.86z" fill="#272727"/></symbol><symbol id="icon-tiktok"><path d="M0 12.8c0-4.48 0-6.72.872-8.432A8 8 0 014.368.872C6.08 0 8.32 0 12.8 0h10.4c4.48 0 6.72 0 8.432.872a8 8 0 013.496 3.496C36 6.08 36 8.32 36 12.8v10.4c0 4.48 0 6.72-.872 8.432a8 8 0 01-3.496 3.496C29.92 36 27.68 36 23.2 36H12.8c-4.48 0-6.72 0-8.432-.872a8 8 0 01-3.496-3.496C0 29.92 0 27.68 0 23.2V12.8z" fill="black"/><path d="M15.824 15.947v-.839a6.354 6.354 0 00-.892-.075c-2.891-.006-5.45 1.841-6.319 4.56-.868 2.72.157 5.68 2.53 7.308a6.447 6.447 0 01.316-9.203 6.66 6.66 0 014.365-1.751z" fill="#25F4EE"/><path d="M15.898 25.319a3.029 3.029 0 003.028-2.888V8.032h2.643c-.054-.3-.08-.606-.076-.911h-3.616v14.384a3.03 3.03 0 01-3.028 2.91 3.092 3.092 0 01-1.399-.348 3.03 3.03 0 002.448 1.252zm10.607-12.402v-.8a4.957 4.957 0 01-2.734-.822 5.013 5.013 0 002.734 1.622z" fill="#25F4EE"/><path d="M24.132 11.535a4.764 4.764 0 01-1.27-3.227h-.99c.127.656.393 1.281.782 1.836a5.033 5.033 0 001.478 1.39zm-9.165 6.981c-1.72.009-3.108 1.35-3.099 2.995.003.54.16 1.069.452 1.53.293.462.712.84 1.212 1.09-1.007-1.328-.696-3.187.693-4.15a3.201 3.201 0 012.745-.427v-3.612a6.732 6.732 0 00-.919-.068h-.165v2.746c-.3-.078-.61-.113-.919-.104z" fill="#FE2C55"/><path d="M26.637 13.055v2.755a8.755 8.755 0 01-5.044-1.605v7.238c-.008 3.611-3 6.535-6.69 6.535a6.715 6.715 0 01-3.826-1.184c2.51 2.643 6.734 2.794 9.435.336a6.537 6.537 0 001.574-2.175 6.418 6.418 0 00.556-2.61v-7.217a8.777 8.777 0 005.05 1.584v-3.546a5.293 5.293 0 01-1.055-.111z" fill="#FE2C55"/><path d="M21.569 21.546v-7.242a8.429 8.429 0 004.936 1.584v-2.756a4.931 4.931 0 01-2.695-1.585 4.93 4.93 0 01-2.166-3.24h-2.599v14.266a2.987 2.987 0 01-4.392 2.514 2.987 2.987 0 01-1.006-.88 2.994 2.994 0 01-.158-5.204 2.978 2.978 0 011.533-.433c.299.002.595.048.88.137V15.91c-3.599.062-6.468 3.077-6.407 6.685a6.54 6.54 0 001.787 4.383 6.46 6.46 0 003.747 1.11c3.607-.001 6.532-2.927 6.54-6.541z" fill="white"/></symbol><symbol id="icon-transferwise"><path d="M46.608 28.875C43.448 41.33 30.61 48.91 17.933 45.803 5.26 42.699-2.453 30.083.709 17.628 3.867 5.171 16.705-2.41 29.379.696 42.053 3.8 49.767 16.418 46.607 28.874z" fill="#00B9FF"/><path d="M44.342 22.015c0-2.39-1.694-4.07-4.069-4.07-3.023 0-5.049 2.159-5.049 5.24 0 2.406 1.71 4.07 4.125 4.07 2.197 0 3.834-1.043 4.507-2.708h-2.44c-.324.518-1.013.845-1.856.845-1.297 0-2.107-.845-2.18-2.04h6.824c.09-.453.138-.843.138-1.337zm-6.776-.279c.22-1.099 1.305-1.975 2.618-1.975 1.135 0 1.994.812 1.994 1.975h-4.612zM28.668 27.04l.437-2.294c1.338.263 1.54-.478 1.889-2.262l.17-.884c.486-2.492 1.467-3.735 4.271-3.4l-.438 2.293c-1.337-.263-1.572.733-1.872 2.278l-.17.884c-.486 2.524-1.5 3.719-4.287 3.384zM25.393 27.048l1.654-8.888h2.18l-1.645 8.888h-2.189zM12.904 18.16h2.116l.689 6.427 2.771-6.427h2.1l.737 6.49 2.674-6.49h2.107l-3.833 8.888h-2.399l-.778-6.116-2.65 6.116H14.12l-1.216-8.888z" fill="#2E4369"/><path d="M5.003 20.517L2.49 22.875h4.271l.446-1.028H5.043l1.354-1.33-.787-1.33h3.672l-3.388 7.86h1.273L11 18.16H3.592l1.41 2.357z" fill="white"/></symbol><symbol id="icon-trustpilot"><path d="M0 12.8c0-4.48 0-6.72.872-8.432A8 8 0 014.368.872C6.08 0 8.32 0 12.8 0h10.4c4.48 0 6.72 0 8.432.872a8 8 0 013.496 3.496C36 6.08 36 8.32 36 12.8v10.4c0 4.48 0 6.72-.872 8.432a8 8 0 01-3.496 3.496C29.92 36 27.68 36 23.2 36H12.8c-4.48 0-6.72 0-8.432-.872a8 8 0 01-3.496-3.496C0 29.92 0 27.68 0 23.2V12.8z" fill="#000130"/><path d="M32.4 14.547H21.397L18.01 4l-3.407 10.547-11.003-.02 8.899 6.526L9.09 31.6l8.899-6.526 8.899 6.526L23.5 21.053l8.899-6.506z" fill="#00B67A"/><path d="M24.4 22.772l-.78-2.372-5.62 4 6.4-1.628z" fill="#005128"/></symbol><symbol id="icon-twitter"><path d="M0 12.8c0-4.48 0-6.72.872-8.432A8 8 0 014.368.872C6.08 0 8.32 0 12.8 0h10.4c4.48 0 6.72 0 8.432.872a8 8 0 013.496 3.496C36 6.08 36 8.32 36 12.8v10.4c0 4.48 0 6.72-.872 8.432a8 8 0 01-3.496 3.496C29.92 36 27.68 36 23.2 36H12.8c-4.48 0-6.72 0-8.432-.872a8 8 0 01-3.496-3.496C0 29.92 0 27.68 0 23.2V12.8z" fill="#55ACEE"/><path d="M30.794 10.768c-.905.401-1.878.673-2.9.795a5.064 5.064 0 002.22-2.794c-.975.579-2.056.999-3.206 1.226a5.05 5.05 0 00-8.604 4.605A14.335 14.335 0 017.898 9.324a5.025 5.025 0 00-.684 2.539c0 1.751.891 3.297 2.246 4.202a5.03 5.03 0 01-2.287-.631v.063a5.052 5.052 0 004.05 4.95 5.056 5.056 0 01-2.28.087 5.054 5.054 0 004.716 3.507 10.13 10.13 0 01-6.27 2.161c-.408 0-.81-.024-1.205-.07a14.291 14.291 0 007.74 2.268c9.287 0 14.366-7.694 14.366-14.366 0-.219-.005-.436-.015-.653a10.263 10.263 0 002.52-2.613z" fill="white"/></symbol><symbol id="icon-views"><path d="M11.996 4.8c-4.584 0-8.74 2.508-11.808 6.582a.95.95 0 000 1.133c3.067 4.079 7.224 6.587 11.808 6.587s8.741-2.508 11.809-6.582a.95.95 0 000-1.133C20.737 7.308 16.58 4.8 11.996 4.8zm.33 12.186a5.05 5.05 0 01-5.365-5.364c.157-2.513 2.194-4.55 4.707-4.707a5.05 5.05 0 015.364 5.365c-.162 2.508-2.199 4.545-4.707 4.707zm-.153-2.326a2.713 2.713 0 01-2.886-2.886 2.729 2.729 0 012.537-2.537 2.713 2.713 0 012.886 2.886 2.729 2.729 0 01-2.537 2.537z" fill="black"/></symbol><symbol id="icon-visa"><path d="M.906 17.678h0C4.036 5.333 16.763-2.186 29.33.894l.048-.198-.048.198c12.569 3.079 20.212 15.587 17.08 27.93-3.132 12.344-15.858 19.862-28.429 16.782C5.417 42.526-2.227 30.02.906 17.678z" fill="url(#paint0_linear)" stroke="#C5A244" stroke-width=".408"/><path fill-rule="evenodd" clip-rule="evenodd" d="M16.602 19.113h-2.299L12.58 12.46c-.081-.306-.255-.577-.51-.704a7.426 7.426 0 00-2.108-.704v-.256h3.704c.51 0 .894.384.958.831l.894 4.799 2.298-5.63h2.235l-3.448 8.317zm4.726 0h-2.171l1.788-8.317h2.17l-1.787 8.317zm4.596-6.013c.064-.448.448-.704.895-.704a4.005 4.005 0 012.107.383l.384-1.79a5.442 5.442 0 00-1.98-.385c-2.107 0-3.64 1.152-3.64 2.75 0 1.217 1.086 1.856 1.852 2.24.83.384 1.15.64 1.085 1.024 0 .576-.639.832-1.276.832-.767 0-1.534-.192-2.235-.513l-.384 1.792c.767.32 1.596.448 2.363.448 2.363.063 3.831-1.088 3.831-2.815 0-2.175-3.002-2.303-3.002-3.262zm10.6 6.013L34.8 10.796H32.95a.961.961 0 00-.895.64l-3.192 7.677h2.235l.446-1.216h2.746l.256 1.216h1.98zm-3.255-6.077l.637 3.134h-1.788l1.15-3.134z" fill="#1F2838"/><path d="M27.453 35.565h-6.386V24.363h6.386v11.202z" fill="#FF5F00"/><path d="M21.472 29.964c0-2.272 1.09-4.297 2.788-5.601a7.38 7.38 0 00-4.51-1.524c-4.031 0-7.299 3.19-7.299 7.125s3.268 7.125 7.298 7.125a7.38 7.38 0 004.51-1.524c-1.697-1.304-2.787-3.328-2.787-5.601z" fill="#EB001B"/><path d="M36.069 29.964c0 3.935-3.268 7.125-7.298 7.125-1.703 0-3.27-.57-4.511-1.524 1.698-1.304 2.788-3.328 2.788-5.601 0-2.272-1.09-4.297-2.788-5.601a7.382 7.382 0 014.51-1.524c4.031 0 7.299 3.19 7.299 7.125z" fill="#F79E1B"/></symbol><symbol id="icon-webmoney"><path d="M23.538 0a23.905 23.905 0 0110.353 2.352l1.482.77-2.162 1.911-3.238-3.328-5.58 4.884-3.287-3.508-10.263 9.1 6.571 7.148-2.563 2.219 6.482 7.148-2.563 2.218 9.273 10.168 5.488-4.971 4.787 5.33c-.947.709-1.981 1.422-3.089 2.043A23.778 23.778 0 0123.617 46.5C10.577 46.472 0 36.043 0 23.216-.046 10.476 10.532 0 23.538 0zm-4.323 21.796l5.627-4.972 5.041 5.55-5.627 4.97-5.041-5.548zm4.007 9.588l5.58-5.016 5.087 5.546-5.627 4.971-5.04-5.5zm-8.012-19.04l5.624-4.97 5.04 5.548-5.626 4.971-5.038-5.549zM25.515 9.68l4.17-3.728 3.783 4.129-4.17 3.774-3.783-4.175zm7.474 17.09l4.17-3.728 3.782 4.171-4.17 3.727-3.782-4.17zm3.706 8.39l4.17-3.729 3.778 4.129-4.17 3.771-3.778-4.172zm1.712-19.163l2.79-2.487 2.52 2.753-2.79 2.485-2.52-2.752zm-3.6-8.212l2.79-2.53 2.521 2.797-2.792 2.486-2.52-2.753zm7.155 16.426l2.79-2.487 2.564 2.753-2.835 2.485-2.519-2.751zm-12.557-6.17l4.169-3.728 3.78 4.128-4.17 3.729-3.78-4.13z" fill="#0A9EF0"/></symbol><symbol id="icon-wire"><path d="M46.608 28.875C43.448 41.33 30.61 48.91 17.933 45.803 5.26 42.699-2.453 30.083.709 17.628 3.867 5.171 16.705-2.41 29.379.696 42.053 3.8 49.767 16.418 46.607 28.874z" fill="#282828"/><path d="M32.01 24.367c-.187.239-.429.447-.641.673-.403.465-.907.848-1.406 1.225-.471.396-1.063.67-1.562.997-.576.247-1.08.552-1.647.735-.54.213-1.075.395-1.6.528-.508.163-1.017.242-1.466.35-.287.05-.553.093-.806.131.024-.077.056-.149.082-.226.241-.717.422-1.467.541-2.255.05-.4.091-.804.12-1.217a8.642 8.642 0 00-.029-1.303 9.881 9.881 0 00-1.182.584c-.355.218-.697.444-1.03.678-.65.474-1.235.983-1.764 1.527a16.767 16.767 0 00-2.669 3.568l-.093.159c-.447.8-.36 1.823.294 2.54.862.945 1.808 1.824 2.905 2.576.546.377 1.13.727 1.765 1.036.635.305 1.29.595 2.07.785-.04-.79-.203-1.48-.382-2.157a12.375 12.375 0 00-.668-1.86 26.252 26.252 0 002.08-.778c.512-.242 1.074-.468 1.638-.791a17.37 17.37 0 001.74-1.033c.598-.356 1.15-.855 1.736-1.29.527-.522 1.107-.983 1.573-1.573.483-.568.95-1.135 1.309-1.774.182-.31.391-.6.542-.92.141-.323.28-.64.413-.955.305-.606.435-1.253.587-1.842.18-.583.239-1.155.276-1.679.033-.524.126-.99.089-1.413-.028-.418-.046-.784-.066-1.084-.035-.593-.057-.932-.057-.932s-.053.336-.149.924c-.043.29-.103.642-.167 1.046-.05.403-.248.834-.38 1.309-.14.475-.307.979-.587 1.47-.257.498-.486 1.032-.876 1.502-.179.244-.356.49-.534.739zm-18.861 2.41c.013.42.025.785.033 1.086l.031.933.175-.92.198-1.04c.064-.401.272-.827.42-1.297.156-.472.335-.97.635-1.452.272-.492.518-1.019.92-1.478l.551-.717c.194-.236.443-.436.657-.655.42-.453.934-.82 1.443-1.184.486-.381 1.08-.639 1.592-.951.582-.231 1.096-.521 1.67-.687a13.597 13.597 0 011.615-.48c.512-.147 1.025-.212 1.478-.307.288-.043.553-.077.809-.107-.03.076-.062.148-.09.223-.262.71-.464 1.456-.608 2.239-.063.398-.117.8-.16 1.213a9.21 9.21 0 00-.01 1.305 9.94 9.94 0 001.2-.55c.363-.208.713-.424 1.053-.645.66-.454 1.263-.947 1.81-1.476a17.031 17.031 0 002.776-3.488l.097-.157a2.18 2.18 0 00-.216-2.547c-.834-.97-1.753-1.876-2.827-2.66a13.072 13.072 0 00-1.732-1.09c-.627-.322-1.275-.634-2.046-.846.016.79.157 1.486.317 2.168.157.661.368 1.282.613 1.878-.587.17-1.3.41-2.103.718-.519.227-1.09.437-1.661.741-.584.274-1.174.61-1.771.983-.609.339-1.176.82-1.771 1.236-.543.508-1.14.95-1.622 1.528-.5.554-.987 1.106-1.362 1.735-.192.306-.411.59-.572.902l-.441.941c-.323.598-.471 1.24-.642 1.825-.199.578-.272 1.146-.325 1.67-.051.523-.16.986-.134 1.41z" fill="white"/></symbol><symbol id="icon-yelp"><path d="M0 12.8c0-4.48 0-6.72.872-8.432A8 8 0 014.368.872C6.08 0 8.32 0 12.8 0h10.4c4.48 0 6.72 0 8.432.872a8 8 0 013.496 3.496C36 6.08 36 8.32 36 12.8v10.4c0 4.48 0 6.72-.872 8.432a8 8 0 01-3.496 3.496C29.92 36 27.68 36 23.2 36H12.8c-4.48 0-6.72 0-8.432-.872a8 8 0 01-3.496-3.496C0 29.92 0 27.68 0 23.2V12.8z" fill="#BF2519"/><path d="M33.97 17.87c-.213-.16-.248-.186-1.53-.608 1.11-.273 1.158-.302 1.355-.431.446-.303.684-.804.65-1.347l-.005-.059c-.09-.871-1.213-2.515-1.969-2.885-.498-.237-1.053-.204-1.49.09-.205.135-.232.154-1.076 1.306-.083-1.346-.241-3.72-.28-3.942l-.008-.051-.013-.05a1.49 1.49 0 00-1.095-1.049c-.904-.225-3.296.449-3.938 1.11-.376.393-.521.923-.391 1.419l.026.099.045.091c.061.127.223.395 1.61 2.573l.513.806c-1.243-.508-1.293-.51-1.55-.512-.49-.022-.98.24-1.276.703l-.005.01c-.153.245-.247.579-.306.929-.4-.54-1.003-.973-1.916-1.152a3.131 3.131 0 00-1.828.18 1.8 1.8 0 00-1.848-.03 1.519 1.519 0 00-.434.367v-.74l-.058-.439-.017-.079a1.613 1.613 0 00-.963-1.076l-.004-.002a1.817 1.817 0 00-1.624.139c-.536.316-.81.841-.81 1.56v1.507a2.967 2.967 0 00-.707-.766c-.752-.57-1.761-.763-2.916-.556-.67.117-1.23.409-1.673.838-.007-.014-.014-.031-.022-.045a1.66 1.66 0 00-1.06-.804c-.781-.214-1.774.052-2.183 1.45l-.158.535c-.18-.33-.644-1.228-.663-1.255a1.67 1.67 0 00-2.009-.612c-.725.273-1.144.911-1.144 1.66 0 .237.041.483.127.733l.022.061 1.92 3.912c-.693.183-1.186.7-1.266 1.408a1.62 1.62 0 00.518 1.4c.52.48 1.33.64 2.28.444 1.033-.202 1.627-.825 2.043-2.145l.633-1.99c.207.838.582 1.385.938 1.736.511.506 1.449 1.066 3 .857 1.153-.161 1.95-.677 2.382-1.284l.028.146c.122.433.456.818.905 1.022a1.759 1.759 0 001.488-.01c.248-.108.459-.278.623-.492v.628c0 1.037.6 1.478.957 1.649a1.793 1.793 0 001.512.042c.46-.2.8-.578.935-1.038l.02-.07.063-.429v-.183a3.296 3.296 0 001.848-.335c.253-.132.475-.29.673-.473h.42c.23.121.49.196.77.196.282 0 .542-.075.77-.196h1.222c.809.456 1.991.8 2.624.692.545-.097.974-.448 1.156-.94l.01-.024c.076-.224.089-.265.094-1.53.693 1.12.73 1.15.924 1.303.419.327.969.399 1.476.194.816-.327 2.062-1.911 2.187-2.78.01-.076.016-.153.016-.228 0-.455-.196-.877-.547-1.158zM21.317 14.92l.005.001.003.001-.008-.002zm11 7.117l-.004.002.005-.002z" fill="white"/><path d="M24.27 16.114c-.198.317-.28 1.313-.212 1.975.024.218.063.4.121.509.08.15.212.24.363.245.096.005.157-.01 1.982-.6l.816-.259c.2-.052.338-.237.35-.475.014-.244-.113-.458-.319-.536l-.572-.233c-1.963-.81-2.05-.84-2.15-.842-.15-.007-.285.07-.379.216zM28.657 22.142c.032-.092.036-.155.04-2.072l.007-.857c.012-.206-.122-.396-.342-.48-.226-.088-.47-.035-.608.137l-.401.474c-1.374 1.615-1.431 1.688-1.464 1.785a.383.383 0 00-.023.175.458.458 0 00.112.248c.318.38 1.847.942 2.333.86.17-.032.294-.128.346-.27zM31.756 21.475c.461-.184 1.467-1.463 1.537-1.954a.431.431 0 00-.147-.413c-.077-.059-.137-.081-1.96-.68 0 0-.8-.264-.81-.269-.194-.075-.415-.006-.563.178-.155.188-.18.436-.055.624l.322.523c1.083 1.76 1.165 1.884 1.243 1.945a.42.42 0 00.433.046zM30.815 16.948c2.073-.502 2.152-.528 2.235-.582.125-.085.187-.226.177-.4v-.017c-.054-.508-.945-1.832-1.384-2.047-.157-.074-.312-.07-.44.016-.08.054-.14.13-1.25 1.65 0 0-.501.683-.507.689-.132.16-.134.391-.006.589.134.205.36.304.568.247l-.011.017c.101-.039.286-.084.618-.162zM28.733 15.236c-.036-.822-.282-4.479-.311-4.648a.436.436 0 00-.335-.307c-.528-.132-2.551.436-2.926.823a.446.446 0 00-.129.417c.059.12 2.564 4.063 2.564 4.063.371.601.673.507.772.477.099-.031.4-.125.365-.825z" fill="#E9E9E9"/><path d="M24.436 15.7c-.197.316-.28 1.313-.212 1.974.024.218.064.4.121.509.079.15.212.24.363.245.097.005.158-.012 1.983-.598 0 0 .81-.26.814-.26.202-.052.338-.238.351-.476.014-.243-.112-.458-.32-.536l-.572-.233c-1.961-.809-2.05-.84-2.148-.842-.152-.006-.286.07-.38.217zM28.823 21.727c.032-.092.036-.155.041-2.073l.005-.855c.014-.208-.12-.397-.34-.482-.227-.087-.471-.033-.608.137 0 0-.4.475-.402.475-1.373 1.614-1.431 1.689-1.465 1.784a.392.392 0 00-.021.176.47.47 0 00.11.25c.32.378 1.847.94 2.335.857.17-.031.293-.127.345-.27zM31.923 21.06c.46-.184 1.465-1.463 1.536-1.955a.43.43 0 00-.147-.413c-.078-.058-.136-.08-1.96-.679 0 0-.8-.264-.81-.27-.194-.074-.415-.005-.564.178-.155.189-.178.437-.054.625l.322.524c1.082 1.758 1.165 1.882 1.243 1.943.12.095.274.11.434.046zM30.98 16.533c2.073-.503 2.153-.529 2.235-.583.125-.084.188-.225.177-.398 0-.005.002-.011 0-.017-.053-.51-.944-1.833-1.384-2.048a.43.43 0 00-.44.017c-.08.052-.14.131-1.25 1.65 0 0-.5.682-.507.688-.132.161-.134.391-.004.589.133.204.36.304.567.247l-.01.017c.101-.038.284-.083.616-.162zM28.9 14.821c-.036-.821-.284-4.479-.313-4.649a.436.436 0 00-.334-.306c-.529-.131-2.551.435-2.926.822-.12.126-.165.28-.129.417.06.121 2.565 4.064 2.565 4.064.37.6.672.507.772.476.098-.03.398-.123.364-.824z" fill="#BF2519"/><path d="M3.233 23.491c.262.242.756.31 1.357.189.563-.112.913-.363 1.249-1.432l1.674-5.26c.087-.28.08-.522-.019-.702a.618.618 0 00-.405-.293c-.298-.082-.67-.074-.905.728l-.879 2.984-1.79-3.381c-.113-.226-.444-.388-.782-.254-.44.167-.586.563-.41 1.072l2.181 4.442s.06.158.06.183l.02.125a.57.57 0 01-.164.41.542.542 0 01-.403.137l-.365-.008c-.349.043-.568.243-.603.553-.025.199.04.374.184.507zM11.81 18.504H9.48c-.064-.046-.095-.123-.047-.356a1.21 1.21 0 01.154-.386l.092-.14c.17-.215.401-.354.664-.415.82-.2 1.39.216 1.483.926.045.31.016.37-.016.37zm1.432-.406c-.075-.76-.368-1.353-.85-1.717-.511-.389-1.236-.513-2.095-.36-1.076.187-1.722.956-1.87 2.227-.182 1.52.068 2.665.726 3.313.496.49 1.229.684 2.12.563 1.272-.178 1.844-.877 1.844-1.318 0-.325-.196-.58-.485-.62-.165-.032-.304 0-.612.277-.444.387-.96.543-1.415.427a1.056 1.056 0 01-.742-.657s-.055-.217-.052-.192c-.037-.196-.054-.39.066-.47l.033-.021h2.793c.258 0 .389-.034.464-.115.153-.17.141-.657.075-1.337M15.775 14.078a.768.768 0 00-.69.065c-.21.124-.298.314-.298.657v6.66s.037.239.04.25a.61.61 0 00.341.384.71.71 0 00.603-.005c.243-.106.386-.349.386-.65v-6.673l-.042-.329a.554.554 0 00-.34-.359zM21.046 20.844c-.922 0-1.07-.819-1.098-1.437a28.353 28.353 0 01-.012-.362l.01-.278c.06-1.07.28-1.491.845-1.608.379-.088.668-.045.886.13.326.262.47.818.457 1.746-.01 1.087-.199 1.809-1.088 1.809zm.069-4.89c-.618-.127-1.147-.021-1.655.323 0 0-.058.046-.08.06l-.045.023-.14.062-.039-.156-.033-.057-.012-.035-.003-.01-.04-.053c-.145-.227-.542-.331-.9-.127-.174.1-.275.24-.275.656v6.538c0 .358.113.58.358.698.208.104.44.112.64.026a.59.59 0 00.343-.366l.04-.28v-1.132l-.011-.182.005-.053.007-.026.067-.216.205.136s.051.034.073.057l.062.04.07.043.067.031c.548.26 1.282.229 1.873-.075.743-.389 1.11-1.077 1.196-2.234.177-2.311-.355-3.416-1.773-3.692M23.98 21.355h.077c.062 0 .12-.003.12-.073 0-.062-.053-.069-.101-.069h-.096v.142zm-.062-.198h.163c.107 0 .157.04.157.128 0 .08-.05.114-.118.12l.129.198h-.067l-.122-.192h-.08v.192h-.062v-.446zm.144.549c.18 0 .326-.142.326-.33a.324.324 0 00-.326-.328.325.325 0 00-.326.332c0 .184.145.326.326.326zm0-.713a.384.384 0 110 .769.384.384 0 110-.769z" fill="#231F20"/></symbol><symbol id="icon-yext"><path d="M0 12.8c0-4.48 0-6.72.872-8.432A8 8 0 014.368.872C6.08 0 8.32 0 12.8 0h10.4c4.48 0 6.72 0 8.432.872a8 8 0 013.496 3.496C36 6.08 36 8.32 36 12.8v10.4c0 4.48 0 6.72-.872 8.432a8 8 0 01-3.496 3.496C29.92 36 27.68 36 23.2 36H12.8c-4.48 0-6.72 0-8.432-.872a8 8 0 01-3.496-3.496C0 29.92 0 27.68 0 23.2V12.8z" fill="black"/><path fill-rule="evenodd" clip-rule="evenodd" d="M18 31.508c-7.52 0-13.616-6.075-13.616-13.57C4.384 10.444 10.48 4.37 18 4.37s13.616 6.075 13.616 13.57c0 7.493-6.096 13.569-13.616 13.569zm0-28.319c-8.174 0-14.8 6.604-14.8 14.75 0 8.145 6.626 14.749 14.8 14.749s14.8-6.604 14.8-14.75S26.174 3.19 18 3.19z" fill="white"/><path fill-rule="evenodd" clip-rule="evenodd" d="M18.4 19.57h2.617v5.544h1.164v-5.545H24.8v-1.232h-6.4v1.232zM16.764 18.337L14.2 20.892l-2.563-2.555-.837.834 2.564 2.554L10.8 24.28l.837.834 2.563-2.555 2.564 2.555.836-.834-2.564-2.555 2.564-2.554-.837-.834zM21.6 11.968c.386 0 .763.114 1.09.33l-2.84 3.007a2.289 2.289 0 01-.052-2.214c.18-.34.44-.624.757-.821a1.975 1.975 0 011.046-.302zm0 5.572c.85 0 1.663-.358 2.263-.993.6-.635.937-1.497.937-2.396h-1.137c0 .37-.089.735-.259 1.06-.17.323-.414.596-.711.792a1.967 1.967 0 01-1.998.11l3.592-3.803a3.275 3.275 0 00-1.211-1.165 3.055 3.055 0 00-1.598-.38 3.073 3.073 0 00-1.565.507c-.471.31-.859.744-1.124 1.26a3.548 3.548 0 00-.389 1.683c.01.587.165 1.162.449 1.667.283.505.686.923 1.168 1.214.482.29 1.027.444 1.582.444h.002zM14.2 13.79l-2.494-3.027-.906.774 2.809 3.41v2.593h1.182v-2.592l2.81-3.41-.907-.775-2.494 3.028z" fill="white"/></symbol><symbol id="icon-youtube"><path d="M0 12.8c0-4.48 0-6.72.872-8.432A8 8 0 014.368.872C6.08 0 8.32 0 12.8 0h10.4c4.48 0 6.72 0 8.432.872a8 8 0 013.496 3.496C36 6.08 36 8.32 36 12.8v10.4c0 4.48 0 6.72-.872 8.432a8 8 0 01-3.496 3.496C29.92 36 27.68 36 23.2 36H12.8c-4.48 0-6.72 0-8.432-.872a8 8 0 01-3.496-3.496C0 29.92 0 27.68 0 23.2V12.8z" fill="#292929"/><path d="M30.617 11.744a3.388 3.388 0 00-.856-1.505 3.307 3.307 0 00-1.48-.87C26.232 8.8 17.987 8.8 17.987 8.8s-8.246.017-10.295.585c-.56.154-1.07.455-1.48.872-.41.416-.705.935-.856 1.504-.62 3.702-.86 9.342.017 12.895.151.57.447 1.088.857 1.505.41.417.92.717 1.48.87 2.048.569 10.294.569 10.294.569s8.245 0 10.294-.568a3.306 3.306 0 001.48-.871c.41-.417.705-.936.856-1.505.654-3.706.855-9.343-.017-12.912z" fill="red"/><path d="M15.6 22l6.8-4-6.8-4v8z" fill="white"/></symbol></svg>