<svg width="24" height="24" viewBox="0 0 24 24" fill="none" xmlns="http://www.w3.org/2000/svg">
<path d="M21.5999 11.6832C21.5999 13.6584 20.7252 15.4608 19.2859 16.851V20.2667L15.8575 18.9601C14.6766 19.3914 13.3734 19.6336 11.9999 19.6336C6.69809 19.6336 2.3999 16.0742 2.3999 11.6837C2.3999 7.29334 6.69809 3.73334 11.9999 3.73334C17.3017 3.73334 21.5999 7.29279 21.5999 11.6832Z" fill="black"/>
<path d="M19.2803 20.5333C19.2469 20.5333 19.214 20.5273 19.1822 20.5153L15.8518 19.2463C14.6269 19.6812 13.3312 19.9013 12 19.9013C6.55973 19.9008 2.1333 16.2146 2.1333 11.684C2.1333 7.15334 6.55973 3.46666 12 3.46666C17.4408 3.46666 21.8666 7.15279 21.8666 11.6834C21.8666 13.6123 21.0464 15.4821 19.5545 16.9619V20.2602C19.5545 20.3503 19.51 20.4339 19.4355 20.4853C19.39 20.5164 19.3351 20.5333 19.2803 20.5333ZM15.8545 18.6815C15.888 18.6815 15.9209 18.6875 15.9527 18.6995L19.0062 19.8631V16.8472C19.0062 16.7729 19.0363 16.7024 19.0895 16.6511C20.5266 15.2631 21.3178 13.4986 21.3178 11.6834C21.3178 7.45378 17.1375 4.01292 11.9994 4.01292C6.8613 4.01292 2.6816 7.45378 2.6816 11.684C2.6816 15.9142 6.86184 19.3551 12 19.3551C13.3022 19.3551 14.5677 19.1344 15.7602 18.6985C15.7909 18.687 15.8227 18.6815 15.8545 18.6815Z" fill="black"/>
</svg>
