<svg width="15" height="13" viewBox="0 0 15 13" fill="none" xmlns="http://www.w3.org/2000/svg">
<path d="M14.2074 10.3186L8.30371 1.47521C8.07112 1.12683 7.64684 0.9104 7.19641 0.9104C6.74599 0.9104 6.32171 1.12683 6.08909 1.47524L0.185405 10.3186C-0.0549728 10.6787 -0.0620849 11.1298 0.166823 11.4959C0.395788 11.8621 0.82718 12.0895 1.2927 12.0895H13.1001C13.5656 12.0895 13.9971 11.8621 14.226 11.4959C14.4549 11.1297 14.4478 10.6786 14.2074 10.3186ZM13.4101 11.0797C13.3471 11.1805 13.2283 11.2431 13.1001 11.2431H1.2927C1.16454 11.2431 1.04577 11.1805 0.982775 11.0798C0.91975 10.9789 0.921718 10.8547 0.987863 10.7556L6.89161 1.91229C6.95564 1.81639 7.07244 1.7568 7.19644 1.7568C7.32041 1.7568 7.43721 1.81639 7.50125 1.91229L13.4049 10.7556C13.4711 10.8548 13.4731 10.9789 13.4101 11.0797Z" fill="#800303"/>
<path d="M7.20085 4.3927C6.8444 4.3927 6.56621 4.56546 6.56621 4.87172C6.56621 5.80614 6.68791 7.1489 6.68791 8.08335C6.68794 8.32677 6.92269 8.42884 7.20088 8.42884C7.40952 8.42884 7.7051 8.32677 7.7051 8.08335C7.7051 7.14892 7.8268 5.80617 7.8268 4.87172C7.8268 4.56548 7.53992 4.3927 7.20085 4.3927Z" fill="#800303"/>
<path d="M7.20953 8.9706C6.82702 8.9706 6.54009 9.24543 6.54009 9.57525C6.54009 9.8972 6.827 10.1799 7.20953 10.1799C7.56598 10.1799 7.87028 9.8972 7.87028 9.57525C7.87028 9.24543 7.56595 8.9706 7.20953 8.9706Z" fill="#800303"/>
</svg>
