<svg width="12" height="12" viewBox="0 0 12 12" fill="none" xmlns="http://www.w3.org/2000/svg">
<g clip-path="url(#clip0)">
<path d="M9.95389 3.0127H9.69067V5.05881C9.69067 6.57474 8.45737 7.80804 6.94144 7.80804H3.01245V8.07135C3.01245 9.19955 3.93036 10.1174 5.05856 10.1174H9.26175L11.4234 11.9188C11.4878 11.9724 11.5678 12.0002 11.6485 12.0002C11.8418 12.0002 12 11.8434 12 11.6487V5.05881C12 3.92886 11.0858 3.0127 9.95389 3.0127Z" fill="black"/>
<path d="M8.98755 5.05869V2.04623C8.98755 0.914276 8.07147 0.00012207 6.94144 0.00012207H2.04611C0.914154 0.00012207 0 0.916199 0 2.04623V8.63611C0 8.83075 0.158203 8.98767 0.351471 8.98767C0.43222 8.98767 0.512238 8.95984 0.576599 8.9061L2.73825 7.1048H6.94144C8.06964 7.1048 8.98755 6.18698 8.98755 5.05869ZM4.49377 5.59857C4.29968 5.59857 4.14221 5.4411 4.14221 5.24701C4.14221 5.05292 4.29968 4.89545 4.49377 4.89545C4.68777 4.89545 4.84534 5.05292 4.84534 5.24701C4.84534 5.4411 4.68777 5.59857 4.49377 5.59857ZM4.84534 4.04373V4.11734C4.84534 4.31143 4.68787 4.4689 4.49377 4.4689C4.29959 4.4689 4.14221 4.31143 4.14221 4.11734V3.74078C4.14221 3.5466 4.29959 3.38922 4.49377 3.38922C4.81897 3.38922 5.08356 3.12454 5.08356 2.79935C5.08356 2.47406 4.81897 2.20947 4.49377 2.20947C4.33594 2.20947 4.1879 2.27081 4.07657 2.38214C3.96524 2.49347 3.9039 2.64151 3.9039 2.79889C3.9039 2.99307 3.74652 3.15073 3.55234 3.15073C3.35815 3.15073 3.20078 2.99344 3.20078 2.79935V2.79889C3.20078 2.45374 3.33527 2.12909 3.57935 1.88501C3.82352 1.64084 4.14807 1.50635 4.49332 1.50635C5.2067 1.50635 5.78668 2.08643 5.78668 2.79935C5.78668 3.3905 5.38797 3.89029 4.84534 4.04373Z" fill="black"/>
</g>
<defs>
<clipPath id="clip0">
<rect width="12" height="12" fill="white" transform="translate(0 0.00012207)"/>
</clipPath>
</defs>
</svg>
