<svg width="20" height="18" viewBox="0 0 20 18" fill="none" xmlns="http://www.w3.org/2000/svg">
<path d="M18.3012 1.92239C17.2797 0.811708 15.878 0.199997 14.3541 0.199997C13.215 0.199997 12.1719 0.561016 11.2535 1.27294C10.7901 1.6323 10.3702 2.07196 9.99997 2.58511C9.62991 2.07211 9.20986 1.6323 8.74631 1.27294C7.82808 0.561016 6.7849 0.199997 5.64581 0.199997C4.12191 0.199997 2.72011 0.811708 1.6986 1.92239C0.689294 3.02008 0.133301 4.5197 0.133301 6.1452C0.133301 7.81823 0.755237 9.3497 2.09049 10.9649C3.28499 12.4098 5.00175 13.8765 6.9898 15.5749C7.66865 16.1549 8.43813 16.8123 9.23711 17.5126C9.44819 17.698 9.71904 17.8 9.99997 17.8C10.2807 17.8 10.5517 17.698 10.7625 17.5129C11.5615 16.8125 12.3314 16.1547 13.0106 15.5744C14.9983 13.8763 16.7151 12.4098 17.9096 10.9648C19.2448 9.3497 19.8666 7.81823 19.8666 6.14505C19.8666 4.5197 19.3106 3.02008 18.3012 1.92239Z" fill="black"/>
</svg>
