<svg width="36" height="36" viewBox="0 0 36 36" fill="none" xmlns="http://www.w3.org/2000/svg">
<path d="M0 12.8C0 8.31958 0 6.07937 0.871948 4.36808C1.63893 2.86278 2.86278 1.63893 4.36808 0.871948C6.07937 0 8.31958 0 12.8 0H23.2C27.6804 0 29.9206 0 31.6319 0.871948C33.1372 1.63893 34.3611 2.86278 35.1281 4.36808C36 6.07937 36 8.31958 36 12.8V23.2C36 27.6804 36 29.9206 35.1281 31.6319C34.3611 33.1372 33.1372 34.3611 31.6319 35.1281C29.9206 36 27.6804 36 23.2 36H12.8C8.31958 36 6.07937 36 4.36808 35.1281C2.86278 34.3611 1.63893 33.1372 0.871948 31.6319C0 29.9206 0 27.6804 0 23.2V12.8Z" fill="#E06B61"/>
<path d="M30.6146 16.0356C30.1257 16.0356 29.7383 16.4396 29.7383 16.9281C29.7383 17.426 30.1349 17.8205 30.6146 17.8205C31.1035 17.8205 31.4909 17.4166 31.4909 16.9281C31.4909 16.4396 31.1035 16.0356 30.6146 16.0356ZM33.8616 13.9031L33.7325 14.2507L33.6033 13.9031H33.4558V14.3916H33.548V14.0065L33.6956 14.3916H33.7602L33.9078 14.0065V14.3916H34V13.9031H33.8616ZM27.3399 18.403H26.9524C26.1683 18.403 25.5319 17.7548 25.5319 16.9563V15.5001H27.3122C27.4506 15.5001 27.5613 15.3874 27.5613 15.2465V14.1568C27.5613 14.0158 27.4506 13.9031 27.3122 13.9031H25.5319V12.6537C25.5319 12.5128 25.4212 12.4 25.2828 12.4H24.222C24.0836 12.4 23.9729 12.5128 23.9729 12.6537V16.9469C23.9729 18.6285 25.3105 19.9906 26.9617 19.9906H27.3491C27.4875 19.9906 27.5982 19.8779 27.5982 19.737V18.666C27.5982 18.5157 27.4875 18.403 27.3399 18.403ZM32.6717 19.0324C32.561 19.1451 32.3857 19.1451 32.275 19.0324L31.4079 18.1493C30.8452 18.5345 30.0888 18.4687 29.5907 17.9708C29.028 17.3978 29.028 16.4772 29.5907 15.9041C30.1534 15.331 31.0574 15.331 31.6201 15.9041C32.109 16.402 32.1735 17.1817 31.7953 17.7548L32.6624 18.6378C32.7824 18.7412 32.7824 18.9197 32.6717 19.0324ZM32.7455 14.7674C31.5739 13.5743 29.6645 13.5743 28.4929 14.7674C27.3214 15.9605 27.3214 17.9051 28.4929 19.0982C29.0741 19.69 29.8305 19.9812 30.5869 19.9906H33.3727C33.5111 19.9906 33.6218 19.8779 33.6218 19.737V16.8999C33.6126 16.1296 33.3174 15.3498 32.7455 14.7674ZM20.6521 13.8655C18.964 13.8374 17.5895 15.2935 17.5895 17.0126V19.737C17.5895 19.8779 17.7002 19.9906 17.8386 19.9906H18.9086C19.047 19.9906 19.1577 19.8779 19.1577 19.737V16.9281C19.1577 16.092 19.8588 15.4156 20.689 15.472C21.4546 15.5283 22.0265 16.2047 22.0265 16.9844V19.7464C22.0265 19.8873 22.1372 20 22.2756 20H23.3456C23.484 20 23.5947 19.8873 23.5947 19.7464V16.9281C23.6039 15.2559 22.2848 13.8937 20.6521 13.8655ZM7.99596 13.8655C7.36869 13.9031 6.806 14.1943 6.38167 14.6171C5.87432 14.1098 5.17325 13.8092 4.39839 13.8655C3.03315 13.9595 2 15.1807 2 16.5711V19.737C2 19.8779 2.11069 20 2.25829 20H3.30989C3.44826 20 3.56818 19.8873 3.56818 19.737V16.5523C3.56818 15.9887 3.98328 15.4908 4.52753 15.4626C5.1179 15.4344 5.59758 15.9041 5.59758 16.4959V19.737C5.59758 19.8779 5.70827 20 5.85587 20H6.90747C7.04583 20 7.16575 19.8873 7.16575 19.737V16.5523C7.16575 15.9887 7.58086 15.4908 8.12511 15.4626C8.71548 15.4344 9.19516 15.9041 9.19516 16.4959V19.737C9.19516 19.8779 9.30585 20 9.45345 20H10.505C10.6434 20 10.7633 19.8873 10.7633 19.737V16.4865C10.7449 14.9741 9.49957 13.7716 7.99596 13.8655ZM33.1237 14.3916H33.2159V13.9783H33.3635V13.9031H32.9761V13.9783H33.1237V14.3916V14.3916ZM15.1266 17.9708C14.5639 18.5439 13.6598 18.5439 13.0971 17.9708C12.5344 17.3978 12.5344 16.4772 13.0971 15.9041C13.6598 15.331 14.5639 15.331 15.1266 15.9041C15.6892 16.4678 15.6892 17.3978 15.1266 17.9708ZM16.2335 14.7674C15.062 13.5743 13.1525 13.5743 11.981 14.7674C10.8095 15.9605 10.8095 17.9051 11.981 19.0982C12.5621 19.69 13.3185 19.9812 14.0749 19.9906H16.8608C16.9991 19.9906 17.1098 19.8779 17.1098 19.737V16.8999C17.1098 16.1296 16.8146 15.3592 16.2335 14.7674Z" fill="white"/>
</svg>
