<svg width="36" height="36" viewBox="0 0 36 36" fill="none" xmlns="http://www.w3.org/2000/svg">
<path d="M0 12.8C0 8.31958 0 6.07937 0.871948 4.36808C1.63893 2.86278 2.86278 1.63893 4.36808 0.871948C6.07937 0 8.31958 0 12.8 0H23.2C27.6804 0 29.9206 0 31.6319 0.871948C33.1372 1.63893 34.3611 2.86278 35.1281 4.36808C36 6.07937 36 8.31958 36 12.8V23.2C36 27.6804 36 29.9206 35.1281 31.6319C34.3611 33.1372 33.1372 34.3611 31.6319 35.1281C29.9206 36 27.6804 36 23.2 36H12.8C8.31958 36 6.07937 36 4.36808 35.1281C2.86278 34.3611 1.63893 33.1372 0.871948 31.6319C0 29.9206 0 27.6804 0 23.2V12.8Z" fill="#1977F3"/>
<path d="M27.0514 8.15212C24.6328 5.7347 21.4205 4.40002 17.999 4.40002C14.5776 4.40002 11.3653 5.7347 8.94669 8.15212C4.28108 12.8154 3.94323 20.266 8.09937 25.3153C7.52555 26.4891 6.84985 27.2717 6.08297 27.6469C5.61641 27.8774 5.35363 28.3813 5.42871 28.8958C5.50915 29.4158 5.906 29.8178 6.42619 29.8982C6.71041 29.9411 7.01609 29.9679 7.33249 29.9679C8.90378 29.9679 10.5555 29.4265 11.9337 28.4777C13.7893 29.4747 15.8754 30 17.999 30C21.4205 30 24.6328 28.6707 27.0514 26.2533C29.47 23.8359 30.8 20.6198 30.8 17.2054C30.8 13.791 29.47 10.5695 27.0514 8.15212ZM26.0271 25.2241C23.882 27.3682 21.029 28.5474 17.999 28.5474C15.9719 28.5474 13.9823 28.0061 12.2501 26.9876C12.1375 26.9233 12.0088 26.8858 11.8855 26.8858C11.73 26.8858 11.5691 26.9394 11.4404 27.0359C9.79937 28.3062 8.14763 28.4938 7.42366 28.5099C8.28707 27.8667 9.01104 26.8697 9.61703 25.4814C9.72965 25.2241 9.68138 24.924 9.49369 24.7096C5.52524 20.2285 5.73439 13.3997 9.97097 9.16518C12.1161 7.02113 14.9691 5.8419 17.999 5.8419C21.029 5.8419 23.882 7.02113 26.0271 9.16518C30.4567 13.598 30.4567 20.802 26.0271 25.2241Z" fill="white"/>
<path d="M23.6387 13.2H12.3612C11.9383 13.2 11.6 13.4666 11.6 13.8C11.6 14.1333 11.9383 14.4 12.3612 14.4H23.6387C24.0616 14.4 24.4 14.1333 24.4 13.8C24.4 13.4666 24.056 13.2 23.6387 13.2Z" fill="white"/>
<path d="M23.6387 16.4H12.3612C11.9383 16.4 11.6 16.7556 11.6 17.2C11.6 17.6445 11.9383 18 12.3612 18H23.6387C24.0616 18 24.4 17.6445 24.4 17.2C24.4 16.7556 24.056 16.4 23.6387 16.4Z" fill="white"/>
<path d="M23.6387 20H12.3612C11.9383 20 11.6 20.2667 11.6 20.6C11.6 20.9333 11.9383 21.2 12.3612 21.2H23.6387C24.0616 21.2 24.4 20.9333 24.4 20.6C24.4 20.2667 24.056 20 23.6387 20Z" fill="white"/>
</svg>
