<svg width="48" height="47" viewBox="0 0 48 47" fill="none" xmlns="http://www.w3.org/2000/svg">
<path fill-rule="evenodd" clip-rule="evenodd" d="M22.112 0.0856161C14.8089 0.516721 8.03599 4.36403 3.93431 10.4112C1.86949 13.4555 0.659519 16.6317 0.141306 20.368C-0.0467274 21.7236 -0.0471949 24.812 0.140465 26.1645C0.660079 29.9104 1.89033 33.1253 3.97851 36.1944C7.0734 40.7428 11.78 44.1191 17.0654 45.5824C19.0388 46.1287 20.2529 46.3319 22.2929 46.4572C28.0274 46.8093 33.9097 44.9775 38.4201 41.4352C42.0057 38.6191 44.7112 34.8132 46.1206 30.6027C46.9742 28.0529 47.3064 26.0392 47.3156 23.3611C47.3249 20.611 46.9862 18.5147 46.1102 15.9028C44.9471 12.4345 43.0728 9.48173 40.3419 6.81545C36.1394 2.71221 30.9304 0.436055 24.9224 0.0776412C24.0964 0.028325 23.3994 -0.00614137 23.3737 0.000916897C23.348 0.00806683 22.7802 0.0461998 22.112 0.0856161ZM28.6957 8.91918C29.2326 9.00461 29.9134 9.17062 30.2083 9.28823C31.7317 9.89533 33.1404 11.3133 33.9257 13.0302C34.9117 15.1855 35.1248 18.5522 34.4393 21.14C33.7475 23.7519 32.0557 25.768 29.9297 26.5143C28.6213 26.9736 26.2413 27.2086 22.8831 27.2102L20.9438 27.2111V32.7569V38.3027H18.3732H15.8026L15.8043 23.6408C15.8053 15.5767 15.8327 8.91047 15.8654 8.82696C15.9202 8.68699 16.3918 8.67856 21.8221 8.71944C26.7603 8.75675 27.8782 8.7892 28.6957 8.91918ZM20.9223 17.8615C20.9085 20.08 20.9111 21.9362 20.9282 21.9864C20.9697 22.108 24.7438 22.1056 25.8503 21.9834C27.3855 21.8138 28.1333 21.4484 28.792 20.5463C29.3312 19.8077 29.5418 19.0665 29.5418 17.907C29.5418 16.7542 29.3314 16.0066 28.8037 15.2837C27.8962 14.0407 27.0789 13.8279 23.2145 13.8279H20.9477L20.9223 17.8615Z" fill="#0099DD"/>
</svg>
