<svg width="36" height="36" viewBox="0 0 36 36" fill="none" xmlns="http://www.w3.org/2000/svg">
<path d="M0 12.8C0 8.31958 0 6.07937 0.871948 4.36808C1.63893 2.86278 2.86278 1.63893 4.36808 0.871948C6.07937 0 8.31958 0 12.8 0H23.2C27.6804 0 29.9206 0 31.6319 0.871948C33.1372 1.63893 34.3611 2.86278 35.1281 4.36808C36 6.07937 36 8.31958 36 12.8V23.2C36 27.6804 36 29.9206 35.1281 31.6319C34.3611 33.1372 33.1372 34.3611 31.6319 35.1281C29.9206 36 27.6804 36 23.2 36H12.8C8.31958 36 6.07937 36 4.36808 35.1281C2.86278 34.3611 1.63893 33.1372 0.871948 31.6319C0 29.9206 0 27.6804 0 23.2V12.8Z" fill="#F06A22"/>
<path d="M16.9611 29.5589C10.2447 29.5589 4.80005 24.0991 4.80005 17.3641C4.80005 10.629 10.2447 5.16919 16.9611 5.16919C23.6774 5.16919 29.1221 10.629 29.1221 17.3641C29.1221 20.0939 28.2277 22.6142 26.7166 24.6464L31.5944 29.5589H16.9611Z" fill="white"/>
<path d="M16.6485 10.1921C16.7955 9.9073 17.1943 9.90731 17.3412 10.1921L19.2987 13.9873C19.3554 14.0971 19.4586 14.1738 19.5783 14.195L23.7118 14.9266C24.022 14.9815 24.1453 15.3695 23.9258 15.6004L21.0021 18.6775C20.9175 18.7666 20.8781 18.8907 20.8954 19.0137L21.4925 23.2609C21.5373 23.5797 21.2146 23.8195 20.9321 23.6774L17.1677 21.784C17.0587 21.7292 16.931 21.7292 16.8221 21.784L13.0576 23.6774C12.7751 23.8195 12.4524 23.5797 12.4973 23.2609L13.0944 19.0137C13.1117 18.8907 13.0722 18.7666 12.9876 18.6775L10.0639 15.6004C9.84448 15.3695 9.96772 14.9815 10.278 14.9266L14.4115 14.195C14.5311 14.1738 14.6344 14.0971 14.691 13.9873L16.6485 10.1921Z" fill="#F06A22"/>
</svg>
