<svg width="21" height="21" viewBox="0 0 21 21" fill="none" xmlns="http://www.w3.org/2000/svg">
<path d="M11.6664 9.75197L10.2225 9.43153C9.67329 9.3064 9.04107 9.14106 9.04107 8.62324C9.04107 8.10429 9.48455 7.74172 10.2852 7.74172C11.8987 7.74172 11.7513 8.85059 12.5524 8.85059C12.9739 8.85059 13.3429 8.60273 13.3429 8.17655C13.3429 7.18208 11.7513 6.43579 10.4012 6.43579C8.93549 6.43579 7.37465 7.05824 7.37465 8.716C7.37465 9.51437 7.65984 10.3637 9.23093 10.7577L11.1817 11.2447C11.7721 11.3902 11.9199 11.7223 11.9199 12.0219C11.9199 12.5202 11.4249 13.0069 10.5284 13.0069C8.77703 13.0069 9.02008 11.6592 8.08153 11.6592C7.65984 11.6592 7.35382 11.9497 7.35382 12.3642C7.35382 13.1723 8.33499 14.2507 10.5284 14.2507C12.6152 14.2507 13.6492 13.2449 13.6492 11.8978C13.6492 11.0279 13.2482 10.1044 11.6664 9.75197Z" fill="#919191"/>
<path d="M10.5 0C4.7019 0 0 4.7019 0 10.5C0 16.2981 4.7019 21 10.5 21C16.2981 21 21 16.2981 21 10.5C21 4.7019 16.2981 0 10.5 0ZM15.9668 15.9512C15.2764 16.6419 14.359 17.0215 13.3829 17.0215C12.7507 17.0215 12.1317 16.8571 11.5848 16.5477C11.2299 16.6107 10.8664 16.6439 10.5037 16.6439C9.67023 16.6439 8.86146 16.4804 8.10059 16.1579C7.36487 15.8477 6.70493 15.4022 6.1376 14.8352C5.57092 14.2683 5.12583 13.6084 4.81517 12.873C4.49281 12.1116 4.32971 11.3033 4.32971 10.4697C4.32971 10.1128 4.36176 9.75531 4.42264 9.40556C4.12255 8.86578 3.96281 8.25504 3.96281 7.63355C3.96281 6.65735 4.34317 5.73946 5.03323 5.04925C5.7236 4.35871 6.64149 3.97852 7.61769 3.97852C8.21562 3.97852 8.8065 4.12768 9.3317 4.40694C9.33266 4.40678 9.33378 4.40678 9.33458 4.40646C9.7175 4.33308 10.1108 4.29607 10.5037 4.29607C11.337 4.29607 12.1456 4.45933 12.9065 4.7812C13.6414 5.09219 14.3021 5.53727 14.8686 6.10412C15.436 6.67113 15.8809 7.33138 16.1919 8.06662C16.5142 8.82781 16.6773 9.63627 16.6773 10.4697C16.6773 10.8454 16.6419 11.2215 16.5745 11.5888C16.8766 12.1307 17.0373 12.7435 17.0373 13.3671C17.0372 14.3433 16.6573 15.2613 15.9668 15.9512Z" fill="#919191"/>
</svg>
