<svg width="24" height="24" viewBox="0 0 24 24" fill="none" xmlns="http://www.w3.org/2000/svg">
<path d="M11.3805 3.02454C11.657 2.54736 12.3429 2.54736 12.6194 3.02454L15.4114 7.84245C15.5127 8.01725 15.6825 8.1412 15.8792 8.18401L21.3009 9.36403C21.8379 9.4809 22.0498 10.1365 21.6837 10.5483L17.9876 14.706C17.8535 14.8568 17.7886 15.0574 17.8089 15.2586L18.3677 20.8058C18.4231 21.3552 17.8682 21.7604 17.3654 21.5377L12.289 19.2894C12.1049 19.2078 11.8951 19.2078 11.7109 19.2894L6.63453 21.5377C6.13175 21.7604 5.57687 21.3552 5.63222 20.8058L6.19103 15.2586C6.2113 15.0574 6.14647 14.8568 6.01237 14.706L2.31619 10.5483C1.95012 10.1365 2.16206 9.4809 2.69904 9.36403L8.12076 8.18401C8.31747 8.1412 8.48721 8.01725 8.58851 7.84245L11.3805 3.02454Z"/>
</svg>
