<svg width="20" height="18" viewBox="0 0 20 18" fill="none" xmlns="http://www.w3.org/2000/svg">
<path d="M10 7.16882C11.8507 7.16882 13.3511 5.66849 13.3511 3.81774C13.3511 1.967 11.8507 0.466667 10 0.466667C8.14925 0.466667 6.64893 1.967 6.64893 3.81774C6.64893 5.66849 8.14925 7.16882 10 7.16882Z" fill="black"/>
<path d="M16.7794 7.16877C17.9494 7.16877 18.8979 6.22029 18.8979 5.05027C18.8979 3.88026 17.9494 2.93178 16.7794 2.93178C15.6094 2.93178 14.6609 3.88026 14.6609 5.05027C14.6609 6.22029 15.6094 7.16877 16.7794 7.16877Z" fill="black"/>
<path d="M3.22079 7.16877C4.39081 7.16877 5.33929 6.22029 5.33929 5.05027C5.33929 3.88026 4.39081 2.93178 3.22079 2.93178C2.05078 2.93178 1.10229 3.88026 1.10229 5.05027C1.10229 6.22029 2.05078 7.16877 3.22079 7.16877Z" fill="black"/>
<path d="M5.30815 9.07124C4.47423 8.388 3.71901 8.47844 2.75479 8.47844C1.31267 8.47844 0.139404 9.64477 0.139404 11.078V15.2846C0.139404 15.907 0.647458 16.4132 1.27222 16.4132C3.96949 16.4132 3.64455 16.462 3.64455 16.2968C3.64455 13.3161 3.2915 11.1301 5.30815 9.07124V9.07124Z" fill="black"/>
<path d="M10.9173 8.4938C9.2331 8.35332 7.76922 8.49542 6.50656 9.53764C4.39357 11.2301 4.80021 13.509 4.80021 16.2968C4.80021 17.0344 5.40032 17.6457 6.14911 17.6457C14.2796 17.6457 14.6032 17.908 15.0853 16.8403C15.2434 16.4792 15.2001 16.594 15.2001 13.1399C15.2001 10.3964 12.8246 8.4938 10.9173 8.4938V8.4938Z" fill="black"/>
<path d="M17.2453 8.4784C16.2758 8.4784 15.5247 8.38888 14.6919 9.07119C16.6935 11.1148 16.3555 13.1516 16.3555 16.2968C16.3555 16.463 16.0858 16.4131 18.6874 16.4131C19.3345 16.4131 19.8606 15.8889 19.8606 15.2445V11.078C19.8606 9.64473 18.6874 8.4784 17.2453 8.4784Z" fill="black"/>
</svg>
