<svg width="24" height="24" viewBox="0 0 24 24" fill="none" xmlns="http://www.w3.org/2000/svg">
<path d="M11.9963 4.80003C7.41227 4.80003 3.25521 7.30801 0.18773 11.3816C-0.0625767 11.7154 -0.0625767 12.1816 0.18773 12.5154C3.25521 16.5939 7.41227 19.1019 11.9963 19.1019C16.5804 19.1019 20.7374 16.5939 23.8049 12.5203C24.0552 12.1865 24.0552 11.7203 23.8049 11.3865C20.7374 7.30801 16.5804 4.80003 11.9963 4.80003ZM12.3252 16.9865C9.28221 17.178 6.76932 14.67 6.96074 11.6221C7.11779 9.10924 9.1546 7.07243 11.6675 6.91537C14.7104 6.72396 17.2233 9.23194 17.0319 12.2798C16.8699 14.7878 14.8331 16.8246 12.3252 16.9865ZM12.173 14.6602C10.5337 14.7632 9.17914 13.4135 9.28712 11.7743C9.37055 10.4197 10.4699 9.32519 11.8245 9.23684C13.4638 9.13378 14.8184 10.4835 14.7104 12.1227C14.6221 13.4822 13.5227 14.5767 12.173 14.6602Z" fill="black"/>
</svg>
