<svg width="48" height="47" viewBox="0 0 48 47" fill="none" xmlns="http://www.w3.org/2000/svg">
<path d="M0.906352 17.6783L0.906365 17.6782C4.03679 5.33283 16.7627 -2.18551 29.3299 0.893834L29.3784 0.695746L29.3299 0.893836C41.8988 3.97289 49.5415 16.4809 46.41 28.8243C43.2781 41.1683 30.5522 48.6859 17.9813 45.6058C5.41674 42.5268 -2.22666 30.0202 0.906352 17.6783Z" fill="url(#paint0_linear)" stroke="#C5A244" stroke-width="0.407895"/>
<path fill-rule="evenodd" clip-rule="evenodd" d="M16.6023 19.1125H14.3034L12.5795 12.4599C12.4977 12.1539 12.324 11.8833 12.0684 11.7558C11.4306 11.4354 10.7278 11.1804 9.96118 11.0518V10.7956H13.6645C14.1756 10.7956 14.5589 11.1804 14.6228 11.6272L15.5173 16.426L17.815 10.7956H20.05L16.6023 19.1125ZM21.3278 19.1125H19.1567L20.9445 10.7956H23.1156L21.3278 19.1125ZM25.9245 13.0999C25.9883 12.6519 26.3717 12.3958 26.8189 12.3958C27.5217 12.3315 28.2872 12.4601 28.9261 12.7794L29.3095 10.9888C28.6706 10.7327 27.9678 10.604 27.33 10.604C25.2228 10.604 23.6895 11.756 23.6895 13.3549C23.6895 14.5712 24.7756 15.2099 25.5422 15.5946C26.3717 15.9783 26.6911 16.2344 26.6272 16.618C26.6272 17.1935 25.9883 17.4496 25.3506 17.4496C24.5839 17.4496 23.8172 17.2578 23.1156 16.9373L22.7323 18.7291C23.4989 19.0484 24.3284 19.1771 25.095 19.1771C27.4578 19.2403 28.9261 18.0894 28.9261 16.3619C28.9261 14.1865 25.9245 14.059 25.9245 13.0999ZM36.5243 19.1125L34.8004 10.7956H32.9488C32.5654 10.7956 32.1821 11.0517 32.0543 11.4354L28.8621 19.1125H31.0971L31.5432 17.8973H34.2893L34.5449 19.1125H36.5243ZM33.2685 13.0357L33.9062 16.1702H32.1185L33.2685 13.0357Z" fill="#1F2838"/>
<path d="M27.4533 35.5653H21.0673V24.3626H27.4533V35.5653Z" fill="#FF5F00"/>
<path d="M21.4724 29.964C21.4724 27.6915 22.5624 25.6672 24.2598 24.3627C23.0186 23.4088 21.452 22.8394 19.7494 22.8394C15.7188 22.8394 12.4515 26.0291 12.4515 29.964C12.4515 33.8989 15.7188 37.0887 19.7494 37.0887C21.452 37.0887 23.0186 36.5193 24.2598 35.5653C22.5624 34.2608 21.4724 32.2365 21.4724 29.964Z" fill="#EB001B"/>
<path d="M36.0687 29.964C36.0687 33.8989 32.8014 37.0887 28.7708 37.0887C27.0682 37.0887 25.5016 36.5193 24.2599 35.5653C25.9578 34.2608 27.0478 32.2365 27.0478 29.964C27.0478 27.6915 25.9578 25.6672 24.2599 24.3627C25.5016 23.4088 27.0682 22.8394 28.7708 22.8394C32.8014 22.8394 36.0687 26.0291 36.0687 29.964Z" fill="#F79E1B"/>
<defs>
<linearGradient id="paint0_linear" x1="3.5253e-07" y1="23.25" x2="47.3158" y2="23.25" gradientUnits="userSpaceOnUse">
<stop stop-color="#95681D"/>
<stop offset="1" stop-color="#E9CF61"/>
</linearGradient>
</defs>
</svg>
