<svg width="48" height="47" viewBox="0 0 48 47" fill="none" xmlns="http://www.w3.org/2000/svg">
<path d="M23.5383 2.29939e-06C27.1224 -0.00156928 30.6607 0.80248 33.8906 2.35242L35.373 3.1227L33.2111 5.03298L29.9729 1.70539L24.3922 6.58894L21.1062 3.0811L10.8435 12.1811L17.414 19.3293L14.8507 21.5477L21.3332 28.6958L18.7698 30.9142L28.0427 41.0819L33.5308 36.1105L38.3178 41.4408C37.3712 42.1495 36.3366 42.8628 35.2294 43.4836C31.6815 45.4648 27.6829 46.5034 23.6171 46.5C10.5779 46.4723 0.000151587 36.0427 0.000151587 23.2161C-0.0461742 10.4757 10.5316 2.29939e-06 23.5383 2.29939e-06ZM19.2146 21.7957L24.8416 16.8244L29.8834 22.3734L24.2563 27.3448L19.2146 21.7957ZM23.2217 31.3841L28.8025 26.3681L33.889 31.9141L28.262 36.8854L23.2217 31.3841ZM15.2105 12.3444L20.8344 7.37308L25.8747 12.9221L20.2476 17.8935L15.2105 12.3444ZM25.5149 9.67929L29.6842 5.95115L33.4675 10.0798L29.2981 13.8542L25.5149 9.67929ZM32.9888 26.7686L37.1581 23.0405L40.9414 27.2123L36.7705 30.9389L32.9888 26.7686ZM36.6948 35.1585L40.8641 31.4303L44.6428 35.559L40.4735 39.3303L36.6948 35.1585ZM38.4073 15.9955L41.1977 13.5091L43.7178 16.2621L40.9275 18.747L38.4073 15.9955ZM34.8063 7.7844L37.5966 5.25482L40.1183 8.05092L37.3264 10.5374L34.8063 7.7844ZM41.9621 24.2098L44.7524 21.7233L47.3158 24.4763L44.4807 26.9612L41.9621 24.2098ZM29.4047 18.0399L33.574 14.3117L37.3542 18.4404L33.1849 22.1685L29.4047 18.0399Z" fill="#0A9EF0"/>
</svg>
