<svg width="36" height="36" viewBox="0 0 36 36" fill="none" xmlns="http://www.w3.org/2000/svg">
<path d="M0 12.8C0 8.31958 0 6.07937 0.871948 4.36808C1.63893 2.86278 2.86278 1.63893 4.36808 0.871948C6.07937 0 8.31958 0 12.8 0H23.2C27.6804 0 29.9206 0 31.6319 0.871948C33.1372 1.63893 34.3611 2.86278 35.1281 4.36808C36 6.07937 36 8.31958 36 12.8V23.2C36 27.6804 36 29.9206 35.1281 31.6319C34.3611 33.1372 33.1372 34.3611 31.6319 35.1281C29.9206 36 27.6804 36 23.2 36H12.8C8.31958 36 6.07937 36 4.36808 35.1281C2.86278 34.3611 1.63893 33.1372 0.871948 31.6319C0 29.9206 0 27.6804 0 23.2V12.8Z" fill="black"/>
<path fill-rule="evenodd" clip-rule="evenodd" d="M18 31.5077C10.48 31.5077 4.38403 25.4327 4.38403 17.9381C4.38403 10.4436 10.48 4.36909 18 4.36909C25.5199 4.36909 31.6159 10.4441 31.6159 17.9381C31.6159 25.4322 25.5199 31.5077 18 31.5077ZM18 3.18909C9.82636 3.18909 3.19995 9.79269 3.19995 17.9381C3.19995 26.0836 9.82636 32.6877 18 32.6877C26.1735 32.6877 32.8 26.0841 32.8 17.9381C32.8 9.79217 26.1741 3.18909 18 3.18909Z" fill="white"/>
<path fill-rule="evenodd" clip-rule="evenodd" d="M18.3999 19.5692H21.0175V25.1137H22.1813V19.5692H24.7999V18.337H18.3999V19.5692Z" fill="white"/>
<path fill-rule="evenodd" clip-rule="evenodd" d="M16.7635 18.337L14.2001 20.8922L11.6366 18.337L10.8 19.1707L13.364 21.7254L10.8 24.2801L11.6366 25.1137L14.2001 22.5586L16.7635 25.1137L17.6001 24.2801L15.0361 21.7254L17.6001 19.1707L16.7635 18.337Z" fill="white"/>
<path fill-rule="evenodd" clip-rule="evenodd" d="M21.6007 11.9679C21.9859 11.9671 22.3634 12.0815 22.6899 12.2978L19.8501 15.3046C19.6559 14.974 19.5487 14.5944 19.5396 14.2052C19.5306 13.8161 19.62 13.4314 19.7985 13.091C19.9771 12.7507 20.2383 12.4671 20.5552 12.2697C20.8721 12.0722 21.233 11.968 21.6007 11.9679ZM21.6007 17.5398C22.4493 17.5395 23.263 17.1824 23.8629 16.547C24.4629 15.9116 24.7999 15.0499 24.7999 14.1514H23.6635C23.6633 14.5219 23.5742 14.8863 23.4044 15.2103C23.2346 15.5343 22.9898 15.8072 22.6929 16.0034C22.3961 16.1996 22.057 16.3127 21.7076 16.332C21.3581 16.3512 21.0098 16.2761 20.6953 16.1136L24.2867 12.3105C23.9853 11.8173 23.5679 11.4156 23.0756 11.1447C22.5833 10.8739 22.0329 10.7432 21.4785 10.7655C20.9241 10.7878 20.3847 10.9623 19.9133 11.272C19.4418 11.5816 19.0544 12.0157 18.7892 12.5317C18.524 13.0476 18.39 13.6277 18.4005 14.2151C18.4109 14.8024 18.5653 15.3767 18.8487 15.8818C19.132 16.3869 19.5345 16.8052 20.0166 17.0959C20.4987 17.3866 21.0439 17.5395 21.5987 17.5398H21.6007Z" fill="white"/>
<path fill-rule="evenodd" clip-rule="evenodd" d="M14.2001 13.7909L11.7059 10.7631L10.8 11.5373L13.6087 14.9478V17.5398H14.7914V14.9478L17.6001 11.5373L16.6942 10.7631L14.2001 13.7909Z" fill="white"/>
</svg>
