<svg width="10" height="7" viewBox="0 0 10 7" fill="none" xmlns="http://www.w3.org/2000/svg">
<path d="M9.70711 2.56062C10.0976 2.1701 10.0976 1.53693 9.70711 1.14641C9.31658 0.755885 8.68342 0.755885 8.29289 1.14641L9.70711 2.56062ZM5.00001 5.85351L4.2929 6.56061C4.68343 6.95114 5.31659 6.95114 5.70711 6.56061L5.00001 5.85351ZM1.70712 1.14641C1.3166 0.755885 0.683433 0.755885 0.292909 1.14641C-0.0976152 1.53693 -0.0976152 2.1701 0.292909 2.56062L1.70712 1.14641ZM8.29289 1.14641L4.2929 5.1464L5.70711 6.56061L9.70711 2.56062L8.29289 1.14641ZM5.70711 5.1464L1.70712 1.14641L0.292909 2.56062L4.2929 6.56061L5.70711 5.1464Z" fill="#272727"/>
</svg>
