<svg width="48" height="47" viewBox="0 0 48 47" fill="none" xmlns="http://www.w3.org/2000/svg">
<path d="M46.6073 28.8888C43.4466 41.3162 30.6518 48.9125 17.9202 45.8038C5.27478 42.6975 -2.45482 30.1233 0.708438 17.6112C3.86916 5.18383 16.664 -2.4125 29.3956 0.696224C42.041 3.80245 49.7706 16.3767 46.6073 28.8888Z" fill="#F7931A"/>
<path d="M34.0783 19.9159C34.5469 16.8097 32.1459 15.1371 28.8687 14.047L29.9223 9.84558L27.3466 9.21339L26.293 13.2953L24.1859 12.8348L25.2394 8.75292L22.6637 8.12073L21.6102 12.3221L19.9716 11.9189L16.4259 11.0552L15.7243 13.7582L17.5985 14.2187C17.9621 14.2594 18.2949 14.4392 18.5247 14.7191C18.7546 14.999 18.8631 15.3566 18.8268 15.7146L17.5985 20.4934C17.6567 20.4934 17.7758 20.5506 17.8923 20.5506C17.834 20.5506 17.715 20.4934 17.5985 20.4934L15.9016 27.1688C15.7851 27.4575 15.4331 27.9752 14.7315 27.801C14.7315 27.8582 12.8574 27.3405 12.8574 27.3405L11.5911 30.2775L14.9848 31.0839L16.8589 31.5444L15.8054 35.7756L18.3811 36.4078L19.4346 32.2065L21.4607 32.7242L20.4072 36.9255L22.9829 37.5577L24.0364 33.3265C28.4863 34.1329 31.761 33.8442 33.1691 29.8743C34.2835 26.7133 33.1109 24.8964 30.7682 23.6593C32.5258 23.3109 33.7567 22.2207 34.1062 19.9184L34.0783 19.9159ZM28.1646 28.1445C27.344 31.3055 21.9597 29.5831 20.202 29.1799L21.6076 23.5424C23.3653 23.9456 28.9852 24.7868 28.1925 28.147L28.1646 28.1445ZM28.9852 19.9159C28.2837 22.7932 23.7173 21.3546 22.2535 20.9514L23.5198 15.8315C24.9836 16.2348 29.7247 16.867 28.9649 19.9135L28.9852 19.9159Z" fill="white"/>
</svg>
