<svg width="12" height="13" viewBox="0 0 12 13" fill="none" xmlns="http://www.w3.org/2000/svg">
<path d="M8.13713 2.31824H1.94111C1.35972 2.31824 0.887512 2.74254 0.887512 3.26495V11.2532C0.887512 11.7756 1.35972 12.1999 1.94111 12.1999H8.13713C8.71851 12.1999 9.19072 11.7756 9.19072 11.2532V3.26495C9.18799 2.74254 8.71579 2.31824 8.13713 2.31824ZM8.45102 11.2507C8.45102 11.4077 8.30909 11.5352 8.1344 11.5352H1.93838C1.76369 11.5352 1.62175 11.4077 1.62175 11.2507V3.26495C1.62175 3.10798 1.76369 2.98045 1.93838 2.98045H8.1344C8.30909 2.98045 8.45102 3.10798 8.45102 3.26495V11.2507Z" fill="#222222"/>
<path d="M10.5063 0.223877H4.31031C3.72892 0.223877 3.25671 0.648182 3.25671 1.17059H3.99369C3.99369 1.01362 4.13562 0.886087 4.31031 0.886087H10.5063C10.681 0.886087 10.823 1.01362 10.823 1.17059V9.1588C10.823 9.31577 10.681 9.44331 10.5063 9.44331V10.1055C11.0877 10.1055 11.5599 9.68121 11.5599 9.1588V1.17059C11.5599 0.648182 11.0877 0.223877 10.5063 0.223877Z" fill="#222222"/>
</svg>
