<svg width="36" height="36" viewBox="0 0 36 36" fill="none" xmlns="http://www.w3.org/2000/svg">
<path d="M0 12.8C0 8.31958 0 6.07937 0.871948 4.36808C1.63893 2.86278 2.86278 1.63893 4.36808 0.871948C6.07937 0 8.31958 0 12.8 0H23.2C27.6804 0 29.9206 0 31.6319 0.871948C33.1372 1.63893 34.3611 2.86278 35.1281 4.36808C36 6.07937 36 8.31958 36 12.8V23.2C36 27.6804 36 29.9206 35.1281 31.6319C34.3611 33.1372 33.1372 34.3611 31.6319 35.1281C29.9206 36 27.6804 36 23.2 36H12.8C8.31958 36 6.07937 36 4.36808 35.1281C2.86278 34.3611 1.63893 33.1372 0.871948 31.6319C0 29.9206 0 27.6804 0 23.2V12.8Z" fill="#1977F3"/>
<path fill-rule="evenodd" clip-rule="evenodd" d="M35.8753 17.9377C35.8753 8.03172 27.8436 0 17.9377 0C8.03172 0 0 8.03172 0 17.9377C0 26.8901 6.55862 34.3113 15.1352 35.6585V23.124H10.5794V17.9377H15.1352V13.9848C15.1352 9.48966 17.8141 7.00497 21.9106 7.00497C23.8731 7.00497 25.9265 7.35559 25.9265 7.35559V11.7701H23.6637C21.4364 11.7701 20.7401 13.1524 20.7401 14.5726V17.9375H25.7145L24.9199 23.1239H20.74V35.6583C29.3166 34.3137 35.8752 26.8924 35.8752 17.9375L35.8753 17.9377Z" fill="#1977F3"/>
<path fill-rule="evenodd" clip-rule="evenodd" d="M24.92 23.1239L25.7146 17.9376H20.7403V14.5726C20.7403 13.1549 21.4339 11.7701 23.6639 11.7701H25.9266V7.35563C25.9266 7.35563 23.8734 7.005 21.9108 7.005C17.8142 7.005 15.1353 9.48721 15.1353 13.9849V17.9377H10.5796V23.124H15.1353V36C15.1353 36 20.6 36 20.7403 36V23.124L24.92 23.1239Z" fill="#FEFEFE"/>
</svg>
