<svg width="36" height="36" viewBox="0 0 36 36" fill="none" xmlns="http://www.w3.org/2000/svg">
<path d="M0 12.8C0 8.31958 0 6.07937 0.871948 4.36808C1.63893 2.86278 2.86278 1.63893 4.36808 0.871948C6.07937 0 8.31958 0 12.8 0H23.2C27.6804 0 29.9206 0 31.6319 0.871948C33.1372 1.63893 34.3611 2.86278 35.1281 4.36808C36 6.07937 36 8.31958 36 12.8V23.2C36 27.6804 36 29.9206 35.1281 31.6319C34.3611 33.1372 33.1372 34.3611 31.6319 35.1281C29.9206 36 27.6804 36 23.2 36H12.8C8.31958 36 6.07937 36 4.36808 35.1281C2.86278 34.3611 1.63893 33.1372 0.871948 31.6319C0 29.9206 0 27.6804 0 23.2V12.8Z" fill="#E8EAED"/>
<path d="M13.783 24.2742C14.6124 25.3104 15.4538 26.6086 15.8961 27.3947C16.4346 28.4164 16.6558 29.1064 17.0573 30.3372C17.2929 31.0152 17.514 31.2219 17.9828 31.2219C18.4949 31.2219 18.7281 30.8758 18.9084 30.3372C19.281 29.1761 19.5719 28.2938 20.0263 27.45C20.923 25.8345 22.0577 24.3969 23.1611 23.0169C23.464 22.6299 25.3993 20.3509 26.2696 18.543C26.2696 18.543 27.3321 16.5669 27.3321 13.8046C27.3321 11.2227 26.2816 9.42688 26.2816 9.42688L23.2429 10.2419L21.3918 15.1028L20.935 15.7663L20.8388 15.8914L20.7138 16.0428L20.5071 16.2904L20.2042 16.5933L18.5598 17.9324L14.4585 20.3076L13.783 24.2742Z" fill="#34A853"/>
<path d="M9.54224 18.2113C10.5495 20.5048 12.4704 22.5074 13.783 24.2743L20.7307 16.0429C20.7307 16.0429 19.7498 17.3266 17.9828 17.3266C16.0067 17.3266 14.4056 15.752 14.4056 13.7639C14.4056 12.396 15.2206 11.4584 15.2206 11.4584L10.5087 12.7157L9.54224 18.2113Z" fill="#FBBC04"/>
<path d="M20.8125 4.828C23.1179 5.57326 25.0941 7.13348 26.2817 9.44136L20.7283 16.0573C20.7283 16.0573 21.5433 15.1053 21.5433 13.7518C21.5433 11.7204 19.8316 10.189 17.9805 10.189C16.2256 10.189 15.2183 11.4608 15.2183 11.4608V7.28734L20.8125 4.828Z" fill="#4285F4"/>
<path d="M10.8115 7.74164C12.1914 6.09728 14.6099 4.40002 17.9515 4.40002C19.567 4.40002 20.7955 4.82794 20.7955 4.82794L15.2181 11.4583H11.2683L10.8115 7.74164Z" fill="#1A73E8"/>
<path d="M9.54224 18.2113C9.54224 18.2113 8.6311 16.401 8.6311 13.7927C8.6311 11.3213 9.59753 9.16487 10.826 7.7561L15.2326 11.4704L9.54224 18.2113Z" fill="#EA4335"/>
</svg>
