<svg width="36" height="36" viewBox="0 0 36 36" fill="none" xmlns="http://www.w3.org/2000/svg">
<path d="M0 8C0 3.58172 3.58172 0 8 0H28C32.4183 0 36 3.58172 36 8V28C36 32.4183 32.4183 36 28 36H8C3.58172 36 0 32.4183 0 28V8Z" fill="url(#paint0_radial)"/>
<path d="M18.0061 0.0229492C10.4986 0.0229492 8.30297 0.030694 7.87617 0.0660989C6.33551 0.194165 5.37681 0.436744 4.33236 0.956753C3.52746 1.35644 2.89266 1.81975 2.26616 2.46921C1.12518 3.65361 0.433676 5.11074 0.183352 6.84282C0.0616481 7.68368 0.0262432 7.85518 0.0190516 12.1502C0.0162856 13.5819 0.0190516 15.4661 0.0190516 17.9934C0.0190516 25.4948 0.0273496 27.6883 0.0633077 28.1142C0.187778 29.6134 0.422889 30.5566 0.92077 31.5884C1.87228 33.5633 3.68954 35.0459 5.83043 35.5991C6.57172 35.7899 7.39046 35.895 8.44155 35.9448C8.88687 35.9642 13.4259 35.978 17.9677 35.978C22.5095 35.978 27.0512 35.9725 27.4855 35.9503C28.7026 35.8931 29.4093 35.7982 30.1907 35.5963C31.2522 35.3241 32.2415 34.8234 33.0895 34.1292C33.9375 33.4351 34.6238 32.5641 35.1003 31.5773C35.5885 30.5705 35.8361 29.5913 35.9481 28.1704C35.9725 27.8606 35.9827 22.9213 35.9827 17.9887C35.9827 13.0553 35.9716 8.12514 35.9473 7.81535C35.8339 6.37149 35.5863 5.40062 35.0823 4.37443C34.6688 3.5344 34.2097 2.90707 33.5431 2.26563C32.3537 1.12935 30.8988 0.43785 29.1648 0.187803C28.3247 0.0663755 28.1574 0.0304174 23.859 0.0229492H18.0061Z" fill="url(#paint1_radial)"/>
<path d="M18.0061 0.0229492C10.4986 0.0229492 8.30297 0.030694 7.87617 0.0660989C6.33551 0.194165 5.37681 0.436744 4.33236 0.956753C3.52746 1.35644 2.89266 1.81975 2.26616 2.46921C1.12518 3.65361 0.433676 5.11074 0.183352 6.84282C0.0616481 7.68368 0.0262432 7.85518 0.0190516 12.1502C0.0162856 13.5819 0.0190516 15.4661 0.0190516 17.9934C0.0190516 25.4948 0.0273496 27.6883 0.0633077 28.1142C0.187778 29.6134 0.422889 30.5566 0.92077 31.5884C1.87228 33.5633 3.68954 35.0459 5.83043 35.5991C6.57172 35.7899 7.39046 35.895 8.44155 35.9448C8.88687 35.9642 13.4259 35.978 17.9677 35.978C22.5095 35.978 27.0512 35.9725 27.4855 35.9503C28.7026 35.8931 29.4093 35.7982 30.1907 35.5963C31.2522 35.3241 32.2415 34.8234 33.0895 34.1292C33.9375 33.4351 34.6238 32.5641 35.1003 31.5773C35.5885 30.5705 35.8361 29.5913 35.9481 28.1704C35.9725 27.8606 35.9827 22.9213 35.9827 17.9887C35.9827 13.0553 35.9716 8.12514 35.9473 7.81535C35.8339 6.37149 35.5863 5.40062 35.0823 4.37443C34.6688 3.5344 34.2097 2.90707 33.5431 2.26563C32.3537 1.12935 30.8988 0.43785 29.1648 0.187803C28.3247 0.0663755 28.1574 0.0304174 23.859 0.0229492H18.0061Z" fill="url(#paint2_radial)"/>
<path d="M17.9974 4.72473C14.3916 4.72473 13.9391 4.7405 12.5229 4.80495C11.1095 4.86967 10.1447 5.09344 9.30051 5.42177C8.42728 5.76088 7.68655 6.2145 6.94858 6.95275C6.21005 7.69072 5.75643 8.43146 5.41621 9.30441C5.08705 10.1489 4.86301 11.1139 4.79939 12.5268C4.73632 13.943 4.71973 14.3958 4.71973 18.0016C4.71973 21.6073 4.73577 22.0585 4.79994 23.4747C4.86494 24.8881 5.08871 25.8529 5.41676 26.6971C5.75615 27.5703 6.20978 28.311 6.94802 29.049C7.68572 29.7875 8.42645 30.2423 9.29913 30.5814C10.1439 30.9097 11.1089 31.1335 12.5221 31.1982C13.9383 31.2626 14.3905 31.2784 17.996 31.2784C21.6021 31.2784 22.0532 31.2626 23.4694 31.1982C24.8828 31.1335 25.8487 30.9097 26.6934 30.5814C27.5664 30.2423 28.306 29.7875 29.0437 29.049C29.7822 28.311 30.2359 27.5703 30.5761 26.6973C30.9025 25.8529 31.1265 24.8878 31.1929 23.4749C31.2565 22.0588 31.2731 21.6073 31.2731 18.0016C31.2731 14.3958 31.2565 13.9433 31.1929 12.5271C31.1265 11.1137 30.9025 10.1489 30.5761 9.30469C30.2359 8.43146 29.7822 7.69072 29.0437 6.95275C28.3052 6.21423 27.5667 5.7606 26.6926 5.42177C25.8462 5.09344 24.8809 4.86967 23.4675 4.80495C22.0513 4.7405 21.6004 4.72473 17.9935 4.72473H17.9974ZM16.8064 7.11733C17.1598 7.11677 17.5543 7.11733 17.9974 7.11733C21.5423 7.11733 21.9625 7.13005 23.3623 7.19367C24.6568 7.25286 25.3594 7.46916 25.8274 7.65089C26.447 7.89153 26.8887 8.1792 27.3531 8.64389C27.8178 9.10858 28.1055 9.55114 28.3467 10.1707C28.5284 10.6382 28.745 11.3407 28.8039 12.6352C28.8675 14.0348 28.8814 14.4553 28.8814 17.9985C28.8814 21.5418 28.8675 21.9622 28.8039 23.3618C28.7447 24.6563 28.5284 25.3589 28.3467 25.8263C28.106 26.4459 27.8178 26.8871 27.3531 27.3515C26.8885 27.8162 26.4473 28.1039 25.8274 28.3445C25.36 28.5271 24.6568 28.7428 23.3623 28.802C21.9627 28.8656 21.5423 28.8794 17.9974 28.8794C14.4522 28.8794 14.032 28.8656 12.6324 28.802C11.338 28.7423 10.6354 28.526 10.1671 28.3442C9.54752 28.1036 9.10496 27.8159 8.64027 27.3512C8.17558 26.8865 7.88791 26.4451 7.64672 25.8252C7.46499 25.3578 7.24841 24.6552 7.1895 23.3607C7.12588 21.9611 7.11315 21.5407 7.11315 17.9952C7.11315 14.4497 7.12588 14.0315 7.1895 12.6319C7.24869 11.3374 7.46499 10.6349 7.64672 10.1669C7.88736 9.54727 8.17558 9.1047 8.64027 8.64002C9.10496 8.17533 9.54752 7.88766 10.1671 7.64647C10.6351 7.46391 11.338 7.24816 12.6324 7.18869C13.8572 7.13337 14.3319 7.11678 16.8064 7.11401V7.11733ZM25.0845 9.32184C24.7693 9.32184 24.4613 9.41529 24.1993 9.59038C23.9372 9.76547 23.733 10.0143 23.6125 10.3055C23.4919 10.5966 23.4604 10.917 23.5219 11.2261C23.5834 11.5352 23.7352 11.819 23.9581 12.0418C24.181 12.2646 24.4649 12.4163 24.774 12.4777C25.0831 12.5391 25.4034 12.5075 25.6945 12.3868C25.9857 12.2662 26.2344 12.0619 26.4094 11.7998C26.5844 11.5377 26.6778 11.2296 26.6777 10.9145C26.6777 10.0349 25.9641 9.32128 25.0845 9.32128V9.32184ZM17.9974 11.1834C14.232 11.1834 11.1792 14.2362 11.1792 18.0016C11.1792 21.7669 14.232 24.8184 17.9974 24.8184C21.7628 24.8184 24.8148 21.7669 24.8148 18.0016C24.8148 14.2362 21.7625 11.1834 17.9971 11.1834H17.9974ZM17.9974 13.576C20.4414 13.576 22.423 15.5572 22.423 18.0016C22.423 20.4456 20.4414 22.4272 17.9974 22.4272C15.5531 22.4272 13.5718 20.4456 13.5718 18.0016C13.5718 15.5572 15.5531 13.576 17.9974 13.576Z" fill="white"/>
<defs>
<radialGradient id="paint0_radial" cx="0" cy="0" r="1" gradientUnits="userSpaceOnUse" gradientTransform="translate(9.56255 38.7728) rotate(-90) scale(35.6787 33.184)">
<stop stop-color="#FFDD55"/>
<stop offset="0.1" stop-color="#FFDD55"/>
<stop offset="0.5" stop-color="#FF543E"/>
<stop offset="1" stop-color="#C837AB"/>
</radialGradient>
<radialGradient id="paint1_radial" cx="0" cy="0" r="1" gradientUnits="userSpaceOnUse" gradientTransform="translate(9.57103 38.7473) rotate(-90) scale(35.6341 33.1516)">
<stop stop-color="#FFDD55"/>
<stop offset="0.1" stop-color="#FFDD55"/>
<stop offset="0.5" stop-color="#FF543E"/>
<stop offset="1" stop-color="#C837AB"/>
</radialGradient>
<radialGradient id="paint2_radial" cx="0" cy="0" r="1" gradientUnits="userSpaceOnUse" gradientTransform="translate(-6.00648 2.61309) rotate(78.6776) scale(15.9288 65.6756)">
<stop stop-color="#3771C8"/>
<stop offset="0.128" stop-color="#3771C8"/>
<stop offset="1" stop-color="#6600FF" stop-opacity="0"/>
</radialGradient>
</defs>
</svg>
