<svg width="14" height="9" viewBox="0 0 14 9" fill="none" xmlns="http://www.w3.org/2000/svg">
<path d="M9.28025 4.56709L14 7.35709V1.65927L9.28025 4.56709Z" fill="#272727"/>
<path d="M0 1.65927V7.35709L4.71975 4.56709L0 1.65927Z" fill="#272727"/>
<path d="M13.125 0H0.875C0.438375 0 0.091875 0.304364 0.02625 0.696273L7 4.99255L13.9738 0.696273C13.9081 0.304364 13.5616 0 13.125 0Z" fill="#272727"/>
<path d="M8.47875 5.06127L7.24062 5.82382C7.16712 5.86882 7.084 5.89091 7 5.89091C6.916 5.89091 6.83287 5.86882 6.75938 5.82382L5.52125 5.06045L0.028 8.30945C0.095375 8.69809 0.440125 9 0.875 9H13.125C13.5599 9 13.9046 8.69809 13.972 8.30945L8.47875 5.06127Z" fill="#272727"/>
</svg>
