<svg width="48" height="47" viewBox="0 0 48 47" fill="none" xmlns="http://www.w3.org/2000/svg">
<path d="M46.6077 28.8745C43.4475 41.3298 30.6095 48.9099 17.9327 45.8039C5.26109 42.6986 -2.45295 30.0827 0.708674 17.6281C3.86734 5.17132 16.7053 -2.40955 29.3784 0.695746C42.0545 3.80104 49.7678 16.4184 46.6077 28.8745Z" fill="#FF4600"/>
<path d="M14.4428 15.3522C14.5219 17.1143 16.0712 23.8383 16.0712 23.8383C16.6406 25.2001 17.1308 23.8383 17.1308 23.8383C19.0052 18.3143 15.1747 15.1131 15.1747 15.1131C14.1968 14.5515 14.4428 15.3522 14.4428 15.3522ZM36.6838 14.3922C36.6838 14.3922 38.5591 15.673 36.6838 15.913C36.6838 15.913 29.6768 16.7133 24.4629 21.5181C24.4629 21.5181 16.6406 28.2408 13.7083 35.6066C13.7083 35.6066 12.7305 35.6066 13.0577 34.1662C13.3832 32.7253 15.3376 26.4002 24.0544 18.6359C24.0544 18.6359 32.4486 11.1099 36.6838 14.3922Z" fill="white"/>
</svg>
