<svg width="36" height="36" viewBox="0 0 36 36" fill="none" xmlns="http://www.w3.org/2000/svg">
<path d="M0 12.8C0 8.31958 0 6.07937 0.871948 4.36808C1.63893 2.86278 2.86278 1.63893 4.36808 0.871948C6.07937 0 8.31958 0 12.8 0H23.2C27.6804 0 29.9206 0 31.6319 0.871948C33.1372 1.63893 34.3611 2.86278 35.1281 4.36808C36 6.07937 36 8.31958 36 12.8V23.2C36 27.6804 36 29.9206 35.1281 31.6319C34.3611 33.1372 33.1372 34.3611 31.6319 35.1281C29.9206 36 27.6804 36 23.2 36H12.8C8.31958 36 6.07937 36 4.36808 35.1281C2.86278 34.3611 1.63893 33.1372 0.871948 31.6319C0 29.9206 0 27.6804 0 23.2V12.8Z" fill="black"/>
<path d="M32.7999 18C32.7999 26.1738 26.1737 32.8 18 32.8C9.82618 32.8 3.19995 26.1738 3.19995 18C3.19995 9.82615 9.82618 3.20005 18 3.20005C26.1737 3.20005 32.7999 9.82615 32.7999 18Z" fill="white"/>
<path d="M17.9999 3.20005C9.82615 3.20005 3.19995 9.82627 3.19995 18C3.19995 24.2701 7.10096 29.6301 12.6064 31.7865C12.4771 30.6156 12.3601 28.8147 12.6577 27.5364C12.9267 26.3813 14.3932 20.1798 14.3932 20.1798C14.3932 20.1798 13.9505 19.2932 13.9505 17.9825C13.9505 15.9245 15.1433 14.3881 16.6285 14.3881C17.8912 14.3881 18.5011 15.3361 18.5011 16.4729C18.5011 17.7427 17.6926 19.6413 17.2754 21.4006C16.9267 22.8737 18.0141 24.075 19.467 24.075C22.0974 24.075 24.1195 21.3014 24.1195 17.2977C24.1195 13.7541 21.5732 11.2765 17.9374 11.2765C13.7263 11.2765 11.2546 14.4351 11.2546 17.6993C11.2546 18.9713 11.7446 20.3353 12.356 21.0768C12.477 21.2234 12.4947 21.3517 12.4586 21.5013C12.3463 21.9688 12.0966 22.974 12.0476 23.1798C11.9831 23.4507 11.8331 23.5082 11.5526 23.3777C9.70422 22.5173 8.54854 19.8147 8.54854 17.6441C8.54854 12.9755 11.9406 8.68793 18.3275 8.68793C23.4615 8.68793 27.4514 12.3464 27.4514 17.2357C27.4514 22.3364 24.2353 26.4413 19.7715 26.4413C18.2718 26.4413 16.8619 25.6622 16.3793 24.7419C16.3793 24.7419 15.6372 27.5677 15.4573 28.2602C15.1232 29.5457 14.2212 31.157 13.6179 32.1401C15.0026 32.5688 16.4742 32.8 17.9999 32.8C26.1738 32.8 32.8 26.1738 32.8 18C32.8 9.82627 26.1738 3.20005 17.9999 3.20005Z" fill="#E60023"/>
</svg>
