<svg width="48" height="47" viewBox="0 0 48 47" fill="none" xmlns="http://www.w3.org/2000/svg">
<path d="M36.7081 29.5228C36.8661 29.2494 37.1979 29.1293 37.6151 29.2795C38.4209 29.5679 38.7369 30.7426 38.8222 31.2863C38.9645 32.1936 38.6642 32.5692 38.3609 32.5692C38.0322 32.5692 37.6182 32.1996 37.1284 31.4756C36.6449 30.7576 36.4679 29.9374 36.7081 29.5228Z" fill="#FF8C00"/>
<path d="M31.7657 33.0709C31.99 32.8065 32.3566 32.6623 32.7927 32.6623C33.3236 32.6623 33.8798 32.8756 34.357 33.2601C35.324 34.0382 35.6179 34.9635 35.1059 35.6155C34.8215 35.973 34.3601 36.1713 33.8071 36.1713C33.2667 36.1713 32.7137 35.979 32.3282 35.6605C31.4496 34.9305 31.1905 33.7438 31.7657 33.0709Z" fill="#FF8C00"/>
<path d="M0 20.6783C0 32.0975 9.73953 41.3566 21.7512 41.3566C24.9366 41.3566 28.0999 40.7678 32.7453 40.7708C36.9135 40.7708 41.4357 42.1287 46.4413 46.3467C46.9438 46.7673 47.6106 46.2445 47.1745 45.7188C42.2541 39.8154 37.7036 38.6888 33.1656 37.7395C27.6133 36.5768 24.7596 33.6056 22.7688 30.346C22.3706 29.6971 22.1936 29.8112 22.1589 30.6464C22.1178 31.6649 22.1905 33.0138 22.4306 34.3417C22.2063 34.3507 21.9819 34.3477 21.7544 34.3477C13.8129 34.3477 7.37575 28.228 7.37575 20.6783C7.37575 13.1286 13.8129 7.00893 21.7544 7.00893C29.6958 7.00893 36.133 13.1286 36.133 20.6783C36.133 21.2161 36.1045 21.7478 36.0413 22.2676C34.9922 22.0873 32.9254 22.0663 31.4749 22.1864C30.9282 22.2315 31.0072 22.4718 31.4181 22.5439C36.1709 23.3581 39.4385 26.1581 40.1843 31.2413C40.2001 31.3584 40.3612 31.3945 40.4244 31.2923C42.3774 28.1889 43.5024 24.5598 43.5024 20.6783C43.5024 9.25912 33.7629 0 21.7512 0C9.73953 0 0 9.25912 0 20.6783Z" fill="#FF8C00"/>
</svg>
