<svg width="36" height="36" viewBox="0 0 36 36" fill="none" xmlns="http://www.w3.org/2000/svg">
<path d="M0 12.8C0 8.31958 0 6.07937 0.871948 4.36808C1.63893 2.86278 2.86278 1.63893 4.36808 0.871948C6.07937 0 8.31958 0 12.8 0H23.2C27.6804 0 29.9206 0 31.6319 0.871948C33.1372 1.63893 34.3611 2.86278 35.1281 4.36808C36 6.07937 36 8.31958 36 12.8V23.2C36 27.6804 36 29.9206 35.1281 31.6319C34.3611 33.1372 33.1372 34.3611 31.6319 35.1281C29.9206 36 27.6804 36 23.2 36H12.8C8.31958 36 6.07937 36 4.36808 35.1281C2.86278 34.3611 1.63893 33.1372 0.871948 31.6319C0 29.9206 0 27.6804 0 23.2V12.8Z" fill="black"/>
<path d="M15.8241 15.9466V15.1082C15.5291 15.0622 15.2311 15.0371 14.9324 15.033C12.041 15.0273 9.48182 16.8744 8.61332 19.5933C7.74482 22.3122 8.76982 25.273 11.1425 26.9011C8.65293 24.2737 8.79494 20.1535 11.4594 17.6985C12.6466 16.6056 14.2003 15.982 15.8241 15.9466V15.9466Z" fill="#25F4EE"/>
<path d="M15.8977 25.3186C17.5205 25.3167 18.8542 24.0445 18.926 22.4306V8.03204H21.5692C21.5151 7.73136 21.4894 7.42629 21.4925 7.12085H17.8774V21.505C17.8173 23.1266 16.4797 24.4113 14.8491 24.4142C14.3622 24.4104 13.8821 24.2907 13.4504 24.0667C13.7303 24.4526 14.0979 24.7671 14.5232 24.9847C14.9485 25.2022 15.4195 25.3167 15.8977 25.3186V25.3186ZM26.5054 12.9172V12.117C25.5325 12.117 24.5809 11.8313 23.771 11.2955C24.481 12.1176 25.441 12.6869 26.5054 12.9172V12.9172Z" fill="#25F4EE"/>
<path d="M24.1319 11.5347C23.3125 10.6425 22.861 9.49531 22.8617 8.30774H21.8713C21.9988 8.96441 22.2651 9.58929 22.6538 10.1441C23.0425 10.699 23.5454 11.1721 24.1319 11.5347V11.5347ZM14.967 18.516C13.2469 18.5246 11.8592 19.8652 11.8682 21.5106C11.871 22.0507 12.0273 22.5799 12.3203 23.0416C12.6133 23.5034 13.032 23.8802 13.5316 24.1319C12.5252 22.8027 12.8358 20.944 14.2254 19.9804C14.7563 19.6126 15.3954 19.4149 16.051 19.4158C16.3626 19.4196 16.6722 19.4663 16.9698 19.5539V15.9423C16.6662 15.8985 16.3586 15.8756 16.051 15.8737H15.8858V18.6198C15.5861 18.5417 15.2766 18.5074 14.967 18.516V18.516Z" fill="#FE2C55"/>
<path d="M26.6366 13.0549V15.8098C24.825 15.8064 23.0605 15.2449 21.5931 14.205V21.4427C21.5853 25.0544 18.5928 27.9783 14.9036 27.9783C13.5336 27.9808 12.1965 27.567 11.0769 26.7938C13.5874 29.4369 17.8113 29.5878 20.512 27.13C21.1839 26.5186 21.7198 25.7782 22.0863 24.955C22.4527 24.1317 22.6419 23.2434 22.642 22.3454V15.1278C24.1145 16.1603 25.881 16.7143 27.6923 16.7115V13.1657C27.3371 13.1638 26.9839 13.1275 26.6366 13.0549V13.0549Z" fill="#FE2C55"/>
<path d="M21.5688 21.546V14.3037C23.0077 15.3377 24.7347 15.8921 26.5054 15.8884V13.1318C25.4593 12.9102 24.5135 12.354 23.8101 11.547C23.2485 11.1828 22.7668 10.7078 22.3944 10.1509C22.022 9.59393 21.7667 8.9668 21.6441 8.30774H19.0452V22.5725C18.9775 24.2233 17.5888 25.506 15.9417 25.4391C15.4911 25.4208 15.0505 25.3003 14.653 25.0867C14.2556 24.8731 13.9116 24.572 13.647 24.2061C12.1887 23.4366 11.6289 21.6282 12.3966 20.1667C12.6486 19.6869 13.026 19.2847 13.4886 19.0034C13.9511 18.722 14.4812 18.5721 15.0223 18.5695C15.3208 18.5724 15.6174 18.6183 15.9026 18.7072V15.9095C12.3032 15.9706 9.4343 18.9863 9.49534 22.5936C9.52295 24.2272 10.1603 25.7911 11.2817 26.977C12.3868 27.7251 13.6956 28.1127 15.029 28.0867C18.636 28.0858 21.5612 25.16 21.5688 21.546Z" fill="white"/>
</svg>
