<svg width="48" height="47" viewBox="0 0 48 47" fill="none" xmlns="http://www.w3.org/2000/svg">
<path d="M46.6077 28.8745C43.4475 41.3298 30.6095 48.9099 17.9327 45.8039C5.26109 42.6986 -2.45295 30.0827 0.708674 17.6281C3.86734 5.17132 16.7053 -2.40955 29.3784 0.695746C42.0545 3.80104 49.7678 16.4184 46.6077 28.8745Z" fill="#00B9FF"/>
<path d="M44.3418 22.0148C44.3418 19.6256 42.648 17.9453 40.2734 17.9453C37.2504 17.9453 35.2242 20.1035 35.2242 23.1855C35.2242 25.5906 36.9343 27.255 39.3494 27.255C41.5458 27.255 43.1829 26.2117 43.8555 24.5473H41.4161C41.0919 25.0649 40.403 25.3915 39.5602 25.3915C38.2634 25.3915 37.453 24.5473 37.38 23.3527H44.204C44.2932 22.8988 44.3418 22.5085 44.3418 22.0148ZM37.5664 21.736C37.7853 20.637 38.8713 19.761 40.1842 19.761C41.3188 19.761 42.1779 20.5733 42.1779 21.736H37.5664Z" fill="#2E4369"/>
<path d="M28.6677 27.0395L29.1054 24.7459C30.4426 25.0087 30.6452 24.2681 30.9937 22.4842L31.1639 21.6002C31.6502 19.1075 32.6308 17.8651 35.435 18.1996L34.9973 20.4932C33.6601 20.2304 33.4251 21.2259 33.1252 22.7709L32.955 23.6548C32.4687 26.1794 31.4557 27.374 28.6677 27.0395Z" fill="#2E4369"/>
<path d="M25.3934 27.048L27.0468 18.1603H29.2269L27.5817 27.048H25.3934Z" fill="#2E4369"/>
<path d="M12.9043 18.1603H15.0196L15.7085 24.5872L18.4802 18.1603H20.5793L21.3168 24.6509L23.9913 18.1603H26.0984L22.265 27.048H19.8661L19.088 20.9318L16.4379 27.048H14.12L12.9043 18.1603Z" fill="#2E4369"/>
<path d="M5.00264 20.5173L2.49023 22.8746H6.76132L7.20706 21.8473H5.04316L6.39661 20.5173L5.61047 19.1874H9.28182L5.89413 27.0477H7.16654L11 18.16H3.59245L5.00264 20.5173Z" fill="white"/>
</svg>
