<svg width="36" height="36" viewBox="0 0 36 36" fill="none" xmlns="http://www.w3.org/2000/svg">
<path d="M0 12.8C0 8.31958 0 6.07937 0.871948 4.36808C1.63893 2.86278 2.86278 1.63893 4.36808 0.871948C6.07937 0 8.31958 0 12.8 0H23.2C27.6804 0 29.9206 0 31.6319 0.871948C33.1372 1.63893 34.3611 2.86278 35.1281 4.36808C36 6.07937 36 8.31958 36 12.8V23.2C36 27.6804 36 29.9206 35.1281 31.6319C34.3611 33.1372 33.1372 34.3611 31.6319 35.1281C29.9206 36 27.6804 36 23.2 36H12.8C8.31958 36 6.07937 36 4.36808 35.1281C2.86278 34.3611 1.63893 33.1372 0.871948 31.6319C0 29.9206 0 27.6804 0 23.2V12.8Z" fill="#000130"/>
<path d="M32.4 14.547H21.3971L18.01 4L14.6029 14.547L3.59998 14.5268L12.4985 21.053L9.09142 31.6L17.99 25.0738L26.8885 31.6L23.5014 21.053L32.4 14.547Z" fill="#00B67A"/>
<path d="M24.4 22.7719L23.6205 20.4L18 24.4L24.4 22.7719Z" fill="#005128"/>
</svg>
