<svg width="36" height="36" viewBox="0 0 36 36" fill="none" xmlns="http://www.w3.org/2000/svg">
<path d="M0 12.8C0 8.31958 0 6.07937 0.871948 4.36808C1.63893 2.86278 2.86278 1.63893 4.36808 0.871948C6.07937 0 8.31958 0 12.8 0H23.2C27.6804 0 29.9206 0 31.6319 0.871948C33.1372 1.63893 34.3611 2.86278 35.1281 4.36808C36 6.07937 36 8.31958 36 12.8V23.2C36 27.6804 36 29.9206 35.1281 31.6319C34.3611 33.1372 33.1372 34.3611 31.6319 35.1281C29.9206 36 27.6804 36 23.2 36H12.8C8.31958 36 6.07937 36 4.36808 35.1281C2.86278 34.3611 1.63893 33.1372 0.871948 31.6319C0 29.9206 0 27.6804 0 23.2V12.8Z" fill="#55ACEE"/>
<path d="M30.7943 10.7676C29.8888 11.1692 28.9157 11.4406 27.8944 11.5626C28.9369 10.9377 29.7374 9.94824 30.1144 8.76928C29.1389 9.34782 28.0583 9.76803 26.9082 9.99451C25.9872 9.01323 24.675 8.40002 23.2228 8.40002C20.4343 8.40002 18.1736 10.6606 18.1736 13.4489C18.1736 13.8447 18.2184 14.23 18.3044 14.5996C14.1082 14.389 10.3878 12.3789 7.89755 9.32424C7.46294 10.0699 7.21395 10.9373 7.21395 11.8626C7.21395 13.6142 8.1054 15.1596 9.46017 16.0651C8.63245 16.0389 7.85398 15.8117 7.17317 15.4336C7.17281 15.4546 7.17281 15.4758 7.17281 15.497C7.17281 17.9434 8.91322 19.9841 11.223 20.4478C10.7993 20.5632 10.3532 20.6249 9.8927 20.6249C9.56738 20.6249 9.25106 20.5933 8.94283 20.5343C9.58529 22.5403 11.4499 24 13.6593 24.0408C11.9313 25.395 9.75426 26.2021 7.38877 26.2021C6.98125 26.2021 6.57932 26.1783 6.18433 26.1317C8.41875 27.5642 11.0727 28.4 13.9241 28.4C23.211 28.4 28.2895 20.7065 28.2895 14.0344C28.2895 13.8155 28.2846 13.5977 28.2749 13.3813C29.2613 12.6694 30.1174 11.7801 30.7943 10.7676Z" fill="white"/>
</svg>
