<svg width="48" height="47" viewBox="0 0 48 47" fill="none" xmlns="http://www.w3.org/2000/svg">
<path d="M46.6077 28.8745C43.4475 41.3298 30.6095 48.9099 17.9327 45.8039C5.26109 42.6986 -2.45295 30.0827 0.708674 17.6281C3.86734 5.17132 16.7053 -2.40955 29.3784 0.695746C42.0545 3.80104 49.7678 16.4184 46.6077 28.8745Z" fill="#282828"/>
<path d="M32.0091 24.3666C31.8234 24.6057 31.5813 24.8137 31.369 25.0397C30.966 25.5048 30.4619 25.888 29.9627 26.2647C29.4918 26.661 28.8997 26.9345 28.4006 27.262C27.8251 27.5093 27.321 27.8139 26.7538 27.9973C26.2132 28.2102 25.6792 28.392 25.1535 28.5246C24.6461 28.6884 24.137 28.767 23.6875 28.8751C23.4006 28.9258 23.1353 28.9684 22.8816 29.0061C22.9065 28.9291 22.938 28.857 22.9645 28.7801C23.205 28.0628 23.3857 27.3127 23.5051 26.525C23.5549 26.1255 23.5963 25.721 23.6245 25.3083C23.6477 24.8907 23.6395 24.4567 23.5963 24.0047C23.1701 24.1799 22.7804 24.3781 22.4139 24.5893C22.059 24.8072 21.7174 25.0331 21.3841 25.2673C20.734 25.7406 20.1486 26.2499 19.6196 26.7936C18.55 27.8761 17.6777 29.0765 16.9513 30.362L16.8585 30.5209C16.4107 31.3201 16.4986 32.3436 17.152 33.0609C18.0143 34.0058 18.9596 34.8852 20.0574 35.6369C20.603 36.0135 21.1868 36.364 21.8219 36.6735C22.457 36.9781 23.1121 37.268 23.8915 37.4579C23.8517 36.6686 23.6892 35.9775 23.5101 35.3012C23.3343 34.6445 23.1055 34.0304 22.8418 33.4408C23.4239 33.2541 24.127 32.9954 24.9214 32.6629C25.4338 32.4206 25.996 32.1946 26.5598 31.8719C27.1336 31.5804 27.714 31.2284 28.2994 30.8386C28.8981 30.4832 29.4503 29.9837 30.0357 29.5498C30.5631 29.0274 31.1435 28.5655 31.6095 27.976C32.0921 27.4077 32.5597 26.8411 32.9179 26.2024C33.1003 25.8913 33.3093 25.6014 33.4602 25.2821C33.6012 24.9595 33.7405 24.6418 33.8731 24.3273C34.1783 23.7214 34.3076 23.0745 34.4602 22.485C34.6409 21.902 34.699 21.3304 34.7355 20.8064C34.7686 20.2823 34.8615 19.8156 34.825 19.3931C34.7968 18.9755 34.7786 18.6087 34.7587 18.309C34.7239 17.7162 34.7023 17.3772 34.7023 17.3772C34.7023 17.3772 34.6492 17.7129 34.553 18.3008C34.5099 18.5907 34.4502 18.9428 34.3855 19.3473C34.3358 19.7501 34.1385 20.1808 34.0058 20.6557C33.8665 21.1306 33.699 21.635 33.4187 22.1263C33.1617 22.6242 32.9328 23.158 32.5431 23.628C32.364 23.8721 32.1866 24.1177 32.0091 24.3666ZM13.1487 26.7772C13.162 27.1965 13.1736 27.5617 13.1819 27.863C13.2018 28.4575 13.2134 28.7964 13.2134 28.7964C13.2134 28.7964 13.2764 28.4624 13.3875 27.8761C13.4423 27.5879 13.5103 27.2374 13.5865 26.8362C13.6496 26.435 13.8585 26.0092 14.0061 25.5392C14.162 25.0675 14.3411 24.5681 14.6413 24.0866C14.9132 23.5953 15.1587 23.068 15.5616 22.6094C15.7424 22.3736 15.9265 22.1329 16.1122 21.8921C16.3062 21.6563 16.555 21.4565 16.7689 21.2371C17.1885 20.7835 17.7026 20.4166 18.2117 20.0531C18.6976 19.6715 19.2913 19.4144 19.8037 19.1016C20.3858 18.8707 20.8999 18.5808 21.4736 18.4154C22.0226 18.2189 22.5599 18.0535 23.0889 17.9356C23.6013 17.7882 24.1137 17.7227 24.5665 17.6277C24.855 17.5851 25.1204 17.5508 25.3757 17.5213C25.3459 17.5966 25.3144 17.6687 25.2862 17.744C25.0242 18.4547 24.8219 19.1999 24.6776 19.9827C24.6146 20.3806 24.5615 20.7835 24.5184 21.1962C24.4852 21.6121 24.4802 22.0461 24.5084 22.5014C24.9396 22.3376 25.3343 22.1525 25.7074 21.9511C26.0706 21.7431 26.4205 21.527 26.7605 21.3059C27.4205 20.8522 28.0241 20.3593 28.5714 19.8304C29.6692 18.779 30.5796 17.6064 31.3475 16.3422L31.4436 16.185C31.9146 15.4005 31.8599 14.3737 31.2281 13.6384C30.3939 12.6689 29.4752 11.7617 28.4006 10.9773C27.8666 10.5809 27.2945 10.2158 26.6693 9.88823C26.0424 9.56561 25.394 9.25446 24.6229 9.04156C24.6394 9.83255 24.7804 10.5285 24.9396 11.2098C25.0971 11.8714 25.3077 12.4921 25.5532 13.0882C24.9661 13.2585 24.253 13.4976 23.4504 13.8055C22.9313 14.0331 22.3609 14.2427 21.7887 14.5473C21.205 14.8208 20.6146 15.1565 20.0176 15.5299C19.409 15.8689 18.8418 16.3504 18.2465 16.7663C17.7042 17.274 17.1072 17.7162 16.6246 18.2942C16.1255 18.8478 15.6379 19.3997 15.2631 20.0285C15.0708 20.3347 14.8519 20.6181 14.691 20.9309C14.5401 21.2486 14.3942 21.5646 14.2499 21.8725C13.9265 22.4702 13.7789 23.1122 13.6081 23.6968C13.4091 24.2749 13.3361 24.8432 13.2831 25.3672C13.2317 25.8896 13.1222 26.3531 13.1487 26.7772Z" fill="white"/>
</svg>
