<svg width="36" height="36" viewBox="0 0 36 36" fill="none" xmlns="http://www.w3.org/2000/svg">
<path d="M0 12.8C0 8.31958 0 6.07937 0.871948 4.36808C1.63893 2.86278 2.86278 1.63893 4.36808 0.871948C6.07937 0 8.31958 0 12.8 0H23.2C27.6804 0 29.9206 0 31.6319 0.871948C33.1372 1.63893 34.3611 2.86278 35.1281 4.36808C36 6.07937 36 8.31958 36 12.8V23.2C36 27.6804 36 29.9206 35.1281 31.6319C34.3611 33.1372 33.1372 34.3611 31.6319 35.1281C29.9206 36 27.6804 36 23.2 36H12.8C8.31958 36 6.07937 36 4.36808 35.1281C2.86278 34.3611 1.63893 33.1372 0.871948 31.6319C0 29.9206 0 27.6804 0 23.2V12.8Z" fill="#BF2519"/>
<path d="M33.9705 17.8704C33.7572 17.7091 33.7221 17.6845 32.4399 17.2622C33.5504 16.9891 33.5981 16.96 33.795 16.8306C34.2409 16.5284 34.4789 16.0272 34.4443 15.4843L34.4399 15.4251C34.3494 14.5537 33.2269 12.9096 32.4712 12.5405C31.9727 12.3025 31.4183 12.3359 30.9817 12.6293C30.7761 12.7653 30.7487 12.784 29.9047 13.9362C29.8224 12.5899 29.6639 10.2158 29.625 9.99374L29.6168 9.94274L29.6042 9.89339C29.4599 9.37186 29.0508 8.98031 28.509 8.8443C27.6047 8.61891 25.2132 9.29289 24.5715 9.95426C24.1948 10.3475 24.05 10.8767 24.18 11.373L24.2063 11.4717L24.2507 11.5633C24.3121 11.6899 24.4739 11.9581 25.8619 14.1358L26.3736 14.9419C25.1309 14.4336 25.0815 14.4319 24.8243 14.4297C24.3346 14.4083 23.8438 14.6705 23.5482 15.1333L23.5427 15.1421C23.3903 15.3878 23.296 15.7217 23.2373 16.0716C22.8369 15.532 22.2343 15.0993 21.3206 14.92C20.673 14.79 20.0654 14.8684 19.4928 15.0999C18.9686 14.7653 18.248 14.7264 17.6453 15.0703C17.4594 15.1761 17.3201 15.3022 17.2109 15.4366V14.6973L17.1534 14.2581L17.1358 14.1791C17.0146 13.7026 16.6549 13.3006 16.1734 13.1032L16.169 13.101C15.6403 12.8876 15.0475 12.9386 14.5446 13.2397C14.0089 13.5561 13.7341 14.0815 13.7341 14.7999V16.3074C13.5433 16.0102 13.3075 15.7525 13.0283 15.5408C12.2759 14.9704 11.2669 14.778 10.1119 14.9853C9.44236 15.1015 8.88244 15.3938 8.43879 15.8227C8.43166 15.8089 8.42453 15.7919 8.4174 15.7782C8.19201 15.3746 7.82623 15.0971 7.3579 14.9743C6.57589 14.7599 5.58329 15.0258 5.17363 16.4242C5.17363 16.4242 5.10728 16.6502 5.01624 16.9589C4.83692 16.6299 4.37188 15.7311 4.35268 15.7042C3.93371 15.0692 3.09466 14.7939 2.34446 15.0922C1.61948 15.3653 1.19995 16.0031 1.19995 16.7527C1.19995 16.9891 1.24108 17.2353 1.32718 17.4854L1.34857 17.5463C1.34857 17.5463 2.83801 20.58 3.26905 21.458C2.57643 21.6406 2.08287 22.1572 2.0028 22.8657C1.99458 22.9332 1.99019 23.0012 1.99019 23.0681C1.99019 23.5189 2.17719 23.9493 2.52049 24.2652C3.04147 24.7462 3.8509 24.9052 4.80127 24.7105C5.83391 24.5076 6.42782 23.8852 6.84405 22.5652L7.47745 20.5751C7.68365 21.413 8.05875 21.9603 8.41466 22.3113C8.92631 22.8175 9.86352 23.3774 11.4149 23.1679C12.5677 23.0067 13.3656 22.4906 13.7966 21.8841L13.8246 22.0305C13.9474 22.4632 14.2814 22.8476 14.73 23.0522C15.1989 23.2693 15.7418 23.2655 16.2178 23.0423C16.4662 22.9343 16.6768 22.7637 16.8408 22.5504V23.1778C16.8408 24.2148 17.4407 24.6557 17.7983 24.8268C18.265 25.0615 18.8238 25.0801 19.3102 24.869C19.7698 24.6699 20.1109 24.291 20.2447 23.8309L20.2655 23.7602L20.328 23.3324C20.328 23.3324 20.328 23.1673 20.328 23.1487C20.9516 23.2123 21.6025 23.1109 22.1756 22.8136C22.4289 22.682 22.6505 22.5235 22.8485 22.3414H23.2696C23.4989 22.4621 23.7594 22.5372 24.0396 22.5372C24.3209 22.5372 24.5809 22.4621 24.8095 22.3414H26.0308C26.8397 22.7966 28.022 23.1416 28.6549 23.033C29.2 22.9365 29.6294 22.5855 29.8109 22.0936L29.8202 22.0689C29.897 21.8452 29.9096 21.8035 29.9151 20.5394C30.6083 21.6592 30.6445 21.6889 30.8392 21.8424C31.2576 22.1687 31.8076 22.2405 32.3154 22.036C33.1309 21.7086 34.3769 20.1248 34.5019 19.2556C34.5123 19.1799 34.5183 19.1032 34.5183 19.028C34.5183 18.5729 34.322 18.1511 33.9705 17.8704ZM21.3162 14.9189C21.3179 14.92 21.319 14.92 21.3206 14.92C21.3217 14.9211 21.3228 14.9211 21.3245 14.9211L21.3162 14.9189ZM32.3165 22.036H32.3154C32.3138 22.036 32.3132 22.0376 32.3116 22.0382L32.3165 22.036Z" fill="white"/>
<path d="M24.2704 16.1144C24.0724 16.4314 23.9896 17.4272 24.0581 18.0892C24.0817 18.3074 24.1207 18.4895 24.1793 18.5975C24.2583 18.7483 24.391 18.8383 24.5424 18.8432C24.6383 18.8481 24.6992 18.8322 26.5243 18.2438C26.5243 18.2438 27.3354 17.9861 27.3397 17.9844C27.5405 17.9323 27.6776 17.747 27.6907 17.5095C27.7039 17.2655 27.5772 17.051 27.371 16.9732L26.7985 16.7396C24.8363 15.9301 24.7491 15.8994 24.6493 15.8983C24.4985 15.8912 24.3642 15.9685 24.2704 16.1144Z" fill="#E9E9E9"/>
<path d="M28.657 22.1424C28.6894 22.0503 28.6927 21.9872 28.6976 20.07C28.6976 20.07 28.7025 19.2227 28.7042 19.2134C28.7163 19.0072 28.5824 18.8175 28.362 18.7325C28.1355 18.6447 27.8915 18.6985 27.7538 18.8696C27.7538 18.8696 27.3546 19.3434 27.3529 19.3439C25.9792 20.959 25.9216 21.0325 25.8887 21.129C25.8679 21.1849 25.8597 21.2441 25.8662 21.3045C25.875 21.3895 25.9128 21.4756 25.9781 21.5523C26.2962 21.9324 27.8246 22.4945 28.3115 22.4111C28.481 22.3804 28.6049 22.2839 28.657 22.1424Z" fill="#E9E9E9"/>
<path d="M31.7556 21.475C32.2173 21.2913 33.2231 20.0125 33.2933 19.5211C33.3174 19.3495 33.2642 19.2025 33.1458 19.1076C33.0695 19.0495 33.0087 19.027 31.1863 18.4281C31.1863 18.4281 30.3851 18.1638 30.3763 18.1594C30.1817 18.0838 29.9612 18.1534 29.8126 18.3371C29.6579 18.5252 29.6338 18.7725 29.7583 18.9606L30.0802 19.4844C31.1633 21.2436 31.245 21.3676 31.3229 21.429C31.4435 21.5228 31.5976 21.5398 31.7556 21.475Z" fill="#E9E9E9"/>
<path d="M30.815 16.9475C32.888 16.4462 32.9675 16.4199 33.0497 16.3662C33.1753 16.2806 33.2373 16.1402 33.2269 15.9664C33.2269 15.9604 33.2274 15.9554 33.2269 15.9494C33.1731 15.441 32.282 14.1167 31.8427 13.9017C31.6864 13.8276 31.5307 13.8326 31.4024 13.9181C31.3223 13.9719 31.2625 14.0487 30.1537 15.5677C30.1537 15.5677 29.6519 16.251 29.6459 16.257C29.5137 16.4172 29.512 16.6481 29.6404 16.846C29.7736 17.0506 30.0007 17.1504 30.208 17.0928C30.208 17.0928 30.1986 17.1071 30.197 17.1104C30.2984 17.0714 30.4827 17.0264 30.815 16.9475Z" fill="#E9E9E9"/>
<path d="M28.7333 15.2358C28.6971 14.4143 28.4509 10.7571 28.4218 10.5882C28.3796 10.4335 28.2595 10.3244 28.0867 10.2811C27.5586 10.1495 25.5356 10.7171 25.161 11.1037C25.0415 11.2287 24.9965 11.3839 25.0322 11.521C25.0908 11.6417 27.5965 15.5841 27.5965 15.5841C27.9672 16.1851 28.2693 16.0913 28.368 16.0606C28.4668 16.0299 28.7673 15.9361 28.7333 15.2358Z" fill="#E9E9E9"/>
<path d="M24.4361 15.6998C24.2387 16.0162 24.1553 17.0126 24.2238 17.674C24.248 17.8923 24.2875 18.0743 24.345 18.1829C24.424 18.3332 24.5567 18.4226 24.7081 18.428C24.8051 18.433 24.8655 18.4165 26.6905 17.8297C26.6905 17.8297 27.5016 17.5709 27.5049 17.5693C27.7073 17.5177 27.8433 17.3318 27.8564 17.0943C27.8696 16.8509 27.744 16.6359 27.5367 16.558C27.5367 16.558 26.9647 16.3249 26.9636 16.3249C25.0026 15.5161 24.9143 15.4843 24.8156 15.4832C24.6642 15.4771 24.5299 15.5534 24.4361 15.6998Z" fill="#BF2519"/>
<path d="M28.8233 21.7268C28.8551 21.6346 28.8589 21.5716 28.8644 19.6544C28.8644 19.6544 28.8688 18.8071 28.8694 18.7989C28.8825 18.591 28.7482 18.4018 28.5283 18.3174C28.3018 18.2302 28.0577 18.2839 27.9206 18.4545C27.9206 18.4545 27.5203 18.9294 27.5192 18.9294C26.1455 20.5433 26.0879 20.6179 26.0544 20.7133C26.0341 20.7693 26.0259 20.8296 26.0325 20.8894C26.0407 20.9749 26.0797 21.0594 26.1438 21.1383C26.4624 21.5167 27.9903 22.0788 28.4784 21.9955C28.6478 21.9648 28.7712 21.8693 28.8233 21.7268Z" fill="#BF2519"/>
<path d="M31.9228 21.0593C32.3834 20.8756 33.3881 19.5973 33.4588 19.1054C33.4835 18.9343 33.4298 18.7868 33.3119 18.6924C33.2345 18.6343 33.1758 18.6118 31.3519 18.013C31.3519 18.013 30.5518 17.7486 30.5414 17.7437C30.3478 17.6686 30.1268 17.7382 29.9781 17.9214C29.8235 18.1095 29.8005 18.3579 29.9239 18.5455L30.2458 19.0697C31.3283 20.8279 31.4111 20.9524 31.489 21.0132C31.6096 21.1081 31.7632 21.1235 31.9228 21.0593Z" fill="#BF2519"/>
<path d="M30.9802 16.5329C33.0531 16.0305 33.1332 16.0042 33.2149 15.9505C33.3404 15.866 33.4035 15.7245 33.3925 15.5523C33.3925 15.5468 33.3936 15.5408 33.3925 15.5348C33.3394 15.0259 32.4477 13.702 32.0084 13.4871C31.8526 13.4125 31.6969 13.4174 31.5675 13.5041C31.4874 13.5562 31.4287 13.6351 30.3188 15.1531C30.3188 15.1531 29.8176 15.8359 29.8115 15.8424C29.6794 16.0031 29.6772 16.2334 29.8066 16.4309C29.9404 16.6354 30.1663 16.7352 30.3736 16.6776C30.3736 16.6776 30.3654 16.6924 30.3632 16.6952C30.4652 16.6568 30.6478 16.6118 30.9802 16.5329Z" fill="#BF2519"/>
<path d="M28.8994 14.8213C28.8638 13.9998 28.6164 10.342 28.5874 10.1725C28.5457 10.019 28.4256 9.90929 28.2534 9.86597C27.7242 9.7349 25.7017 10.3014 25.3271 10.688C25.2065 10.8136 25.1621 10.9682 25.1983 11.1053C25.2575 11.2265 27.7631 15.169 27.7631 15.169C28.1333 15.7695 28.4355 15.6762 28.5347 15.645C28.6329 15.6148 28.9334 15.5216 28.8994 14.8213Z" fill="#BF2519"/>
<path d="M3.23347 23.4915C3.49451 23.7334 3.98916 23.8019 4.5902 23.6796C5.15341 23.5683 5.50273 23.3166 5.8389 22.2478L7.51316 16.9876C7.5998 16.7084 7.59322 16.466 7.49396 16.2862C7.41335 16.1414 7.27899 16.0432 7.08925 15.9928C6.79092 15.9111 6.41856 15.9193 6.18384 16.721L5.30531 19.7049C5.30531 19.7049 3.51589 16.3246 3.5148 16.324C3.40183 16.0981 3.07059 15.9363 2.73333 16.0701C2.29352 16.2374 2.14709 16.6327 2.32258 17.1422C2.32258 17.1422 4.49917 21.5716 4.5041 21.5837C4.5041 21.5837 4.56333 21.7416 4.56333 21.7674C4.56333 21.7674 4.58307 21.8875 4.58307 21.8919C4.57869 22.0624 4.52165 22.2061 4.41965 22.3021C4.31929 22.3964 4.18 22.4458 4.01713 22.4392C4.01713 22.4392 3.67767 22.4315 3.6519 22.4315C3.30312 22.4743 3.08376 22.6744 3.04866 22.9837C3.02398 23.1828 3.08814 23.3577 3.23347 23.4915Z" fill="#231F20"/>
<path d="M11.8099 18.5039H9.47922C9.41615 18.4578 9.38544 18.3805 9.43261 18.148C9.46222 18.0257 9.49403 17.916 9.58725 17.7625C9.61742 17.7164 9.64867 17.6692 9.67884 17.6221C9.84939 17.4066 10.0803 17.2684 10.3429 17.2069C11.1622 17.0068 11.7337 17.423 11.8264 18.1332C11.8708 18.443 11.8417 18.5039 11.8099 18.5039ZM13.2423 18.0981C13.1672 17.338 12.8738 16.7446 12.3929 16.3811C11.8806 15.9922 11.1557 15.8683 10.2974 16.0219C9.22147 16.2083 8.57546 16.9772 8.42739 18.2483C8.24533 19.768 8.49539 20.913 9.15292 21.5607C9.64867 22.0504 10.3819 22.2451 11.2736 22.1244C12.5453 21.9456 13.1173 21.2475 13.1173 20.8061C13.1173 20.4814 12.921 20.2259 12.6325 20.1869C12.4674 20.154 12.3281 20.1869 12.0199 20.4628C11.5757 20.8499 11.0608 21.0057 10.6045 20.89C10.2568 20.8017 9.98539 20.562 9.86255 20.2335C9.86255 20.2335 9.80771 20.0164 9.811 20.0405C9.77371 19.8447 9.75671 19.6506 9.87736 19.5716L9.90971 19.5497H12.7032C12.961 19.5497 13.0915 19.5162 13.1666 19.4351C13.3202 19.2645 13.3081 18.7775 13.2423 18.0981" fill="#231F20"/>
<path d="M15.7748 14.0782C15.5538 13.9883 15.3042 14.0124 15.0854 14.143C14.8749 14.2674 14.7871 14.4572 14.7871 14.7999V21.4608C14.7871 21.4608 14.8239 21.6988 14.8277 21.7092C14.8749 21.8753 14.9977 22.0168 15.1682 22.0942C15.3574 22.1819 15.5757 22.1803 15.7709 22.0887C16.0139 21.9834 16.157 21.7404 16.157 21.4394V14.7659C16.157 14.7659 16.1148 14.4435 16.1148 14.4374C16.0758 14.2828 15.9481 14.149 15.7748 14.0782Z" fill="#231F20"/>
<path d="M21.046 20.8439C20.1236 20.8439 19.9767 20.0251 19.9476 19.4071C19.946 19.4054 19.9355 19.0451 19.9355 19.0451C19.9355 19.0451 19.946 18.7775 19.946 18.7671C20.0057 17.6977 20.2267 17.276 20.791 17.1586C21.17 17.0709 21.4595 17.1137 21.6767 17.2886C22.003 17.5513 22.1467 18.1074 22.1335 19.0352C22.1242 20.1216 21.935 20.8439 21.046 20.8439ZM21.1146 15.9533C20.4966 15.8271 19.9679 15.933 19.4595 16.2774C19.4595 16.2774 19.4025 16.3234 19.3806 16.3366L19.335 16.3596L19.1958 16.4221L19.1563 16.2658L19.1228 16.2094L19.1113 16.1743L19.1075 16.1638C19.1075 16.1638 19.0735 16.1183 19.0685 16.1112C18.9227 15.8842 18.5262 15.78 18.1686 15.984C17.9937 16.0832 17.8933 16.2231 17.8933 16.6404V23.1778C17.8933 23.5359 18.0057 23.7586 18.2514 23.8759C18.4587 23.9801 18.6918 23.9884 18.8919 23.9023C19.0619 23.8277 19.187 23.6961 19.2336 23.5359L19.2747 23.2557V22.1244L19.2627 21.9423L19.2676 21.8886L19.2747 21.8628L19.3422 21.6473L19.5467 21.7833C19.5467 21.7833 19.5983 21.8173 19.6202 21.8403L19.6816 21.8809C19.6822 21.8814 19.7529 21.9226 19.7529 21.9226C19.754 21.9226 19.8187 21.9544 19.8187 21.9544C20.3671 22.2132 21.1009 22.183 21.6915 21.8787C22.4351 21.4904 22.8026 20.8016 22.8876 19.6451C23.0652 17.3336 22.5333 16.2291 21.1146 15.9533" fill="#231F20"/>
<path d="M23.9803 21.3555H24.0566C24.1185 21.3555 24.1767 21.3522 24.1767 21.2825C24.1767 21.22 24.1235 21.2134 24.0757 21.2134H23.9803V21.3555ZM23.9178 21.1575H24.0812C24.1882 21.1575 24.2381 21.1964 24.2381 21.2853C24.2381 21.3653 24.1871 21.3988 24.1202 21.4059L24.249 21.6028H24.1816L24.0598 21.4114H23.9803V21.6028H23.9178V21.1575ZM24.062 21.7059C24.2425 21.7059 24.3878 21.5639 24.3878 21.3758C24.3878 21.191 24.2425 21.0484 24.062 21.0484C23.8811 21.0484 23.7357 21.191 23.7357 21.3796C23.7357 21.5639 23.8811 21.7059 24.062 21.7059V21.7059ZM24.062 20.993C24.2726 20.993 24.4498 21.1586 24.4498 21.3758C24.4498 21.5968 24.2726 21.7618 24.062 21.7618C23.8509 21.7618 23.6743 21.5968 23.6743 21.3796C23.6743 21.1586 23.8509 20.993 24.062 20.993Z" fill="#231F20"/>
</svg>
