<svg width="36" height="36" viewBox="0 0 36 36" fill="none" xmlns="http://www.w3.org/2000/svg">
<path d="M0 12.8C0 8.31958 0 6.07937 0.871948 4.36808C1.63893 2.86278 2.86278 1.63893 4.36808 0.871948C6.07937 0 8.31958 0 12.8 0H23.2C27.6804 0 29.9206 0 31.6319 0.871948C33.1372 1.63893 34.3611 2.86278 35.1281 4.36808C36 6.07937 36 8.31958 36 12.8V23.2C36 27.6804 36 29.9206 35.1281 31.6319C34.3611 33.1372 33.1372 34.3611 31.6319 35.1281C29.9206 36 27.6804 36 23.2 36H12.8C8.31958 36 6.07937 36 4.36808 35.1281C2.86278 34.3611 1.63893 33.1372 0.871948 31.6319C0 29.9206 0 27.6804 0 23.2V12.8Z" fill="#292929"/>
<path d="M30.6174 11.744C30.466 11.175 30.1706 10.6562 29.7607 10.2394C29.3507 9.82252 28.8405 9.52216 28.2809 9.36818C26.2322 8.80005 17.9867 8.80005 17.9867 8.80005C17.9867 8.80005 9.74115 8.81726 7.69247 9.3854C7.13285 9.53938 6.62266 9.83974 6.21272 10.2566C5.80277 10.6734 5.50738 11.1922 5.35595 11.7612C4.73626 15.4627 4.49584 21.1027 5.37288 24.6561C5.52431 25.2251 5.81971 25.7439 6.22965 26.1607C6.63959 26.5776 7.14978 26.8779 7.7094 27.0319C9.75808 27.6 18.0036 27.6 18.0036 27.6C18.0036 27.6 26.2492 27.6 28.2979 27.0319C28.8575 26.8779 29.3677 26.5776 29.7776 26.1607C30.1875 25.7439 30.4829 25.2251 30.6344 24.6561C31.2879 20.9495 31.4894 15.3129 30.6174 11.744Z" fill="#FF0000"/>
<path d="M15.6001 22L22.4001 18L15.6001 14V22Z" fill="white"/>
</svg>
