<svg width="87" height="45" viewBox="0 0 87 45" fill="none" xmlns="http://www.w3.org/2000/svg">
<path d="M86.6453 22.4929C86.6453 34.9154 76.5749 44.9858 64.1524 44.9858C51.73 44.9858 41.6595 34.9154 41.6595 22.4929C41.6595 10.0704 51.73 0 64.1524 0C76.5749 0 86.6453 10.0704 86.6453 22.4929Z" fill="white"/>
<path fill-rule="evenodd" clip-rule="evenodd" d="M10.1014 27.9457C13.0753 27.9457 15.4861 25.5349 15.4861 22.561C15.4861 19.5872 13.0753 17.1764 10.1014 17.1764C7.12754 17.1764 4.71675 19.5872 4.71675 22.561C4.71675 25.5349 7.12754 27.9457 10.1014 27.9457ZM10.1014 32.3079C15.4845 32.3079 19.8483 27.9441 19.8483 22.561C19.8483 17.178 15.4845 12.8141 10.1014 12.8141C4.71834 12.8141 0.354492 17.178 0.354492 22.561C0.354492 27.9441 4.71834 32.3079 10.1014 32.3079Z" fill="#272727"/>
<path fill-rule="evenodd" clip-rule="evenodd" d="M54.7718 12.4987C55.6236 11.6469 57.0046 11.6469 57.8564 12.4987L66.3764 21.0187C67.2282 21.8705 67.2282 23.2515 66.3764 24.1033L57.8564 32.6234C57.0046 33.4751 55.6236 33.4751 54.7718 32.6234C53.92 31.7716 53.92 30.3906 54.7718 29.5388L59.5684 24.7422H19.712C18.5074 24.7422 17.5309 23.7656 17.5309 22.561C17.5309 21.3564 18.5074 20.3799 19.712 20.3799H59.5684L54.7718 15.5833C53.92 14.7315 53.92 13.3505 54.7718 12.4987Z" fill="#272727"/>
</svg>
