<svg width="100" height="45" viewBox="0 0 100 45" fill="none" xmlns="http://www.w3.org/2000/svg">
<path d="M42.8139 24.156L42.1106 32.787L35.3837 28.746L26.5828 32.85L30.2529 24.21L25.5278 18.117L34.5451 16.821L40.3973 9L42.2909 16.839L48.1972 17.739L49.5047 10.323C49.7376 9.06163 49.6895 7.76454 49.3638 6.52381C49.038 5.28307 48.4426 4.12912 47.6199 3.14385C46.7971 2.15858 45.7671 1.36616 44.603 0.822828C43.4389 0.279495 42.1693 -0.00142629 40.8842 5.44529e-06H13.598C11.543 -0.000365789 9.55331 0.72072 7.97731 2.03703C6.40131 3.35333 5.33941 5.18098 4.9775 7.2L0.135236 34.731C-0.0887964 35.9884 -0.0339609 37.2796 0.295882 38.5136C0.625725 39.7476 1.22256 40.8945 2.04437 41.8735C2.86618 42.8524 3.89299 43.6397 5.05252 44.1799C6.21205 44.7201 7.47611 45 8.75573 45H36.069C38.1235 44.9986 40.1123 44.2769 41.6879 42.9609C43.2636 41.6449 44.3259 39.8182 44.6895 37.8L47.7554 20.358L42.8139 24.156Z" fill="white"/>
<path d="M27.142 9L26.0419 15.237H17.1329L16.4385 17.937H18.0075C19.1025 17.887 20.1953 18.0734 21.2115 18.4835C22.2277 18.8935 23.1433 19.5176 23.8958 20.313C25.3866 21.867 25.8856 24.042 25.3927 26.838C25.0487 29.2788 23.7523 31.485 21.7858 32.976C19.7897 34.4079 17.3812 35.1534 14.9236 35.1C10.3008 35.1 7.34011 33.162 6.04163 29.286L12.0742 26.145C12.2663 26.9224 12.7291 27.6064 13.38 28.0746C14.0308 28.5429 14.8272 28.7649 15.627 28.701C16.4046 28.7293 17.1715 28.512 17.8182 28.08C18.1032 27.8836 18.3442 27.6301 18.5258 27.3357C18.7074 27.0413 18.8257 26.7125 18.8732 26.37C18.9488 26.0643 18.9489 25.7449 18.8735 25.4392C18.7981 25.1335 18.6495 24.8507 18.4404 24.615C18.195 24.3778 17.9012 24.1962 17.579 24.0829C17.2569 23.9695 16.914 23.9269 16.5738 23.958H8.35004L12.0381 9H27.142Z" fill="#272727"/>
<path d="M52.4167 33.0539C51.6333 33.0539 51.0139 32.7715 50.5585 32.2067C50.103 31.642 49.9481 30.9588 50.0939 30.1572C50.2396 29.3738 50.6222 28.718 51.2416 28.1897C51.8793 27.6431 52.608 27.3699 53.4278 27.3699C54.2112 27.3699 54.8306 27.6614 55.286 28.2443C55.7415 28.8091 55.8963 29.4832 55.7506 30.2665C55.6048 31.0863 55.2223 31.7604 54.6029 32.2887C54.0017 32.7988 53.2729 33.0539 52.4167 33.0539Z" fill="#272727"/>
<path d="M68.432 18.6252C69.9441 18.6252 71.0828 19.1535 71.8479 20.2102C72.6313 21.2486 72.8681 22.6787 72.5584 24.5005L71.1101 32.6713H66.5738L67.9128 25.0744C68.0221 24.3639 67.9219 23.8265 67.6122 23.4621C67.3207 23.0977 66.8562 22.9156 66.2185 22.9156C64.7611 22.9156 63.8775 23.7445 63.5678 25.4023V25.375L62.2835 32.6713H57.7472L60.1519 19.0078H64.6882L64.4423 20.4015C65.4807 19.2173 66.8106 18.6252 68.432 18.6252Z" fill="#272727"/>
<path d="M76.9075 20.5928C78.4378 19.2811 80.2232 18.6252 82.2636 18.6252C84.304 18.6252 85.9163 19.3266 87.1005 20.7294C88.2664 22.114 88.6672 23.8082 88.3028 25.8122C88.2118 26.4316 88.0569 26.9964 87.8383 27.5065H78.4651C78.7019 28.6178 79.5764 29.1734 81.0885 29.1734C82.1816 29.1734 83.0834 28.8455 83.7939 28.1897L86.6905 30.8404C85.1056 32.3161 83.1198 33.0539 80.7333 33.0539C78.3649 33.0539 76.5795 32.3343 75.3772 30.895C74.193 29.4194 73.774 27.6431 74.1201 25.5663C74.448 23.5623 75.3772 21.9045 76.9075 20.5928ZM79.0117 24.3366H84.1765C84.1036 23.0795 83.384 22.451 82.0176 22.451C80.6695 22.451 79.6675 23.0795 79.0117 24.3366Z" fill="#272727"/>
<path d="M98.8146 23.3528H95.9726L95.2894 27.3152C95.1801 27.8982 95.3076 28.2717 95.672 28.4356C96.0545 28.5996 96.8015 28.6451 97.9128 28.5723L97.2023 32.6713C94.6335 33.0175 92.8208 32.7624 91.7642 31.9062C90.7076 31.0317 90.3614 29.5378 90.7258 27.4245L91.4363 23.3528H89.3867L90.1519 19.0078H92.2014L92.6387 16.5484L97.4209 15.182L96.7377 19.0078H99.6071L98.8146 23.3528Z" fill="#272727"/>
</svg>
