<svg width="120" height="114" viewBox="0 0 120 114" fill="none" xmlns="http://www.w3.org/2000/svg">
<path d="M74.8342 72.3584C106.424 49.1874 125.398 21.359 117.214 10.2018C109.031 -0.955352 76.7878 8.78378 45.1982 31.9548C13.6085 55.1258 -5.36575 82.9542 2.81801 94.1114C11.0018 105.269 43.2445 95.5294 74.8342 72.3584Z" stroke="black" stroke-miterlimit="10"/>
<path d="M89.7208 0.986938C89.7225 3.05625 90.5457 5.04024 92.0095 6.50286C93.4733 7.96549 95.458 8.78709 97.5273 8.78709C95.4591 8.78878 93.4761 9.61113 92.0136 11.0736C90.5512 12.536 89.7289 14.519 89.7272 16.5872C89.7272 14.5185 88.9054 12.5345 87.4426 11.0717C85.9797 9.60889 83.9957 8.78709 81.927 8.78709C83.9957 8.78709 85.9797 7.96529 87.4426 6.50247C88.9054 5.03966 89.7272 3.05567 89.7272 0.986938H89.7208Z" fill="black"/>
<path d="M40.4686 84.1971C40.4686 85.2214 40.6704 86.2357 41.0624 87.1821C41.4544 88.1284 42.0289 88.9883 42.7532 89.7126C43.4775 90.4369 44.3374 91.0115 45.2838 91.4035C46.2301 91.7955 47.2444 91.9972 48.2688 91.9972C46.2028 91.9989 44.2217 92.8195 42.7596 94.2792C41.2975 95.7389 40.4737 97.7186 40.4686 99.7846C40.4686 97.7153 39.647 95.7306 38.1844 94.2668C36.7217 92.803 34.7378 91.9798 32.6685 91.9781C33.6928 91.9781 34.7071 91.7763 35.6534 91.3843C36.5998 90.9923 37.4597 90.4178 38.184 89.6935C38.9083 88.9692 39.4829 88.1093 39.8748 87.1629C40.2668 86.2165 40.4686 85.2022 40.4686 84.1779V84.1971Z" fill="black"/>
</svg>
